0
SECTION
2
HEADER
9
$INSUNITS
70
4
9
$ACADVER
1
AC1014
9
$HANDSEED
5
FFFF
0
ENDSEC
0
SECTION
2
TABLES
0
TABLE
2
VPORT
5
8
100
AcDbSymbolTable
0
ENDTAB
0
TABLE
2
LTYPE
5
5
100
AcDbSymbolTable
0
LTYPE
5
14
100
AcDbSymbolTableRecord
100
AcDbLinetypeTableRecord
2
BYBLOCK
70
0
0
LTYPE
5
15
100
AcDbSymbolTableRecord
100
AcDbLinetypeTableRecord
2
BYLAYER
70
0
0
LTYPE
5
16
100
AcDbSymbolTableRecord
100
AcDbLinetypeTableRecord
2
DASHED
70
0
3
Dashed __ __ __ __ __ __ __ __ __ __ __ __ __ _
72
65
73
2
40
0.75
49
0.5
74
0
49
-0.25
74
0
0
ENDTAB
0
TABLE
2
LAYER
5
2
100
AcDbSymbolTable
70
2
0
LAYER
5
50
100
AcDbSymbolTableRecord
100
AcDbLayerTableRecord
2
0
70
0
62
7
6
CONTINUOUS
0
ENDTAB
0
TABLE
2
STYLE
5
3
100
AcDbSymbolTable
70
1
0
STYLE
5
11
100
AcDbSymbolTableRecord
100
AcDbTextStyleTableRecord
2
STANDARD
70
0
0
ENDTAB
0
TABLE
2
VIEW
5
6
100
AcDbSymbolTable
70
0
0
ENDTAB
0
TABLE
2
UCS
5
7
100
AcDbSymbolTable
70
0
0
ENDTAB
0
TABLE
2
APPID
5
9
100
AcDbSymbolTable
70
2
0
APPID
5
12
100
AcDbSymbolTableRecord
100
AcDbRegAppTableRecord
2
ACAD
70
0
0
ENDTAB
0
TABLE
2
DIMSTYLE
5
A
100
AcDbSymbolTable
70
1
0
ENDTAB
0
TABLE
2
BLOCK_RECORD
5
1
100
AcDbSymbolTable
70
1
0
BLOCK_RECORD
5
1F
100
AcDbSymbolTableRecord
100
AcDbBlockTableRecord
2
*MODEL_SPACE
0
BLOCK_RECORD
5
1B
100
AcDbSymbolTableRecord
100
AcDbBlockTableRecord
2
*PAPER_SPACE
0
ENDTAB
0
ENDSEC
0
SECTION
2
BLOCKS
0
BLOCK
5
20
100
AcDbEntity
100
AcDbBlockBegin
2
*MODEL_SPACE
0
ENDBLK
5
21
100
AcDbEntity
100
AcDbBlockEnd
0
BLOCK
5
1C
100
AcDbEntity
100
AcDbBlockBegin
2
*PAPER_SPACE
0
ENDBLK
5
1D
100
AcDbEntity
100
AcDbBlockEnd
0
ENDSEC
0
SECTION
2
ENTITIES
0
LWPOLYLINE
5
100
100
AcDbEntity
8
OUTER_PROFILES
100
AcDbPolyline
90
124
70
1
43
0.0
10
99.999999999990038
20
101.75000000006918
10
100.00000000007519
20
192.25000000011175
10
104.00000000007589
20
192.25000000011426
10
104.00000000006919
20
201.75000000011431
10
100.00000000006918
20
201.75000000011167
10
100.00000000006692
20
205.34100000011165
10
96.147000000067649
20
205.34100000010915
10
96.147000000094266
20
203.95000000010918
10
94.147000000094266
20
203.95000000010765
10
94.147000000068331
20
205.34100000010793
10
93.147000000068346
20
205.34100000010733
10
93.147000000065361
20
208.65900000006121
10
94.147000000065347
20
208.65900000006238
10
94.147000000088781
20
210.05000000006271
10
96.147000000088781
20
210.05000000006476
10
96.147000000064665
20
208.65900000006476
10
99.999999999979607
20
208.65900000006923
10
99.999999999979252
20
212.25000000006924
10
104.00000000005973
20
212.25000000007384
10
104.00000000004925
20
221.75000000007384
10
99.999999999978328
20
221.75000000006918
10
100.00000000006345
20
312.2500000001117
10
104.00000000006415
20
312.25000000011426
10
104.00000000005748
20
321.75000000011431
10
100.00000000005747
20
321.75000000011164
10
100.00000000005519
20
325.34100000011165
10
96.147000000055925
20
325.34100000010915
10
96.147000000082556
20
323.95000000010918
10
94.147000000082556
20
323.95000000010759
10
94.147000000056607
20
325.3410000001079
10
93.147000000056607
20
325.34100000010733
10
93.147000000053609
20
328.65900000006121
10
94.147000000053609
20
328.65900000006235
10
94.147000000077043
20
330.05000000006271
10
96.147000000077028
20
330.05000000006476
10
96.147000000052927
20
328.65900000006479
10
99.999999999967869
20
328.65900000006923
10
99.999999999967528
20
332.25000000006924
10
104.000000000048
20
332.25000000007384
10
104.00000000003752
20
341.75000000007378
10
99.999999999966604
20
341.75000000006918
10
99.999999999959556
20
414.00000000000995
10
-4.0447645233143703e-11
20
413.99999999999989
10
-3.3388292131064645e-11
20
341.75000000000551
10
-4.0000000000340847
20
341.75000000000517
10
-4.0000000000324825
20
332.25000000000512
10
-3.2460700793990327e-11
20
332.25000000000563
10
-3.2124303217528904e-11
20
328.65900000000568
10
3.852999999967138
20
328.65900000000607
10
3.8529999999412743
20
330.05000000000609
10
5.8529999999412672
20
330.05000000000655
10
5.8529999999664559
20
328.65900000000624
10
6.8529999999664524
20
328.65900000000642
10
6.8529999998421198
20
325.34100000000643
10
5.8529999998421234
20
325.34100000000467
10
5.8529999998428872
20
323.95000000000437
10
3.8529999998428939
20
323.9500000000013
10
3.85299999984213
20
325.34100000000132
10
-1.5787871010530807e-10
20
325.34099999999466
10
-2.2983281944277678e-11
20
321.74999999999471
10
-4.0000000000230047
20
321.74999999998806
10
-4.0000000000074571
20
312.24999999998806
10
-6.7612582199672033e-12
20
312.24999999999477
10
-2.1671553440683056e-11
20
221.75000000000554
10
-4.0000000000223688
20
221.75000000000509
10
-4.0000000000207656
20
212.25000000000512
10
-2.0743962103608737e-11
20
212.25000000000563
10
-2.0389800958753312e-11
20
208.65900000000565
10
3.8529999999788727
20
208.65900000000607
10
3.8529999999529911
20
210.05000000000607
10
5.8529999999529831
20
210.05000000000655
10
5.8529999999781896
20
208.65900000000624
10
6.8529999999781861
20
208.65900000000636
10
6.8529999998538358
20
205.34100000000637
10
5.8529999998538393
20
205.34100000000467
10
5.8529999998546032
20
203.95000000000437
10
3.8529999998546103
20
203.9500000000013
10
3.8529999998538464
20
205.34100000000132
10
-1.4616197141492648e-10
20
205.34099999999469
10
-1.1266543253896089e-11
20
201.74999999999471
10
-4.000000000011287
20
201.74999999998803
10
-3.9999999999957407
20
192.24999999998801
10
4.9554804704143862e-12
20
192.2499999999948
10
-9.9548147503014661e-12
20
101.75000000000554
10
-4.000000000010651
20
101.75000000000512
10
-4.0000000000090488
20
92.25000000000513
10
-9.0272234132271478e-12
20
92.250000000005627
10
-8.6730622683717229e-12
20
88.659000000005648
10
3.8529999999905895
20
88.65900000000606
10
3.8529999999647258
20
90.050000000006051
10
5.8529999999647186
20
90.050000000006563
10
5.8529999999899074
20
88.659000000006245
10
6.8529999999899038
20
88.659000000006372
10
6.8529999998655704
20
85.341000000006375
10
5.852999999865574
20
85.341000000004669
10
5.85299999986632
20
83.950000000004366
10
3.8529999998663271
20
83.950000000001324
10
3.8529999998655811
20
85.341000000001287
10
-1.3442746915615089e-10
20
85.340999999994693
10
4.6795900487950348e-13
20
81.749999999994714
10
-3.9999999999995532
20
81.74999999998802
10
-3.9999999999840057
20
72.249999999988034
10
1.6689982729189978e-11
20
72.249999999994799
10
0
20
0
10
100
20
0
10
100.0000000000869
20
72.25000000011174
10
104.0000000000876
20
72.250000000114298
10
104.00000000008092
20
81.750000000114298
10
100.00000000008089
20
81.750000000111669
10
100.00000000007864
20
85.341000000111649
10
96.147000000079373
20
85.341000000109162
10
96.147000000106004
20
83.950000000109171
10
94.147000000106004
20
83.950000000107622
10
94.147000000080055
20
85.341000000107897
10
93.147000000080055
20
85.341000000107314
10
93.147000000077057
20
88.659000000061212
10
94.147000000077057
20
88.659000000062377
10
94.147000000100491
20
90.050000000062695
10
96.147000000100476
20
90.050000000064756
10
96.147000000076375
20
88.659000000064765
10
99.999999999991317
20
88.659000000069241
10
99.999999999990962
20
92.250000000069221
10
104.00000000007142
20
92.25000000007384
10
104.00000000006096
20
101.75000000007384
0
LWPOLYLINE
5
101
100
AcDbEntity
8
INTERIOR_PROFILES
100
AcDbPolyline
90
4
70
1
43
0.0
10
54.999999999999709
20
2.8000000000053582
10
44.999999999999702
20
2.8000000000043812
10
44.999999999999304
20
7.0000000000045581
10
54.999999999999304
20
7.000000000005544
0
LWPOLYLINE
5
102
100
AcDbEntity
8
INTERIOR_PROFILES
100
AcDbPolyline
90
4
70
1
43
0.0
10
54.999999999960146
20
411.20000000000562
10
54.999999999960224
20
407.00000000000557
10
44.999999999960224
20
407.00000000000455
10
44.99999999997668
20
411.20000000000459
0
ENDSEC
0
SECTION
2
OBJECTS
0
DICTIONARY
5
C
100
AcDbDictionary
3
ACAD_GROUP
350
D
3
ACAD_MLINESTYLE
350
17
0
DICTIONARY
5
D
100
AcDbDictionary
0
DICTIONARY
5
1A
330
C
100
AcDbDictionary
0
DICTIONARY
5
17
100
AcDbDictionary
0
ENDSEC
0
EOF
