0
SECTION
2
HEADER
9
$INSUNITS
70
4
9
$ACADVER
1
AC1014
9
$HANDSEED
5
FFFF
0
ENDSEC
0
SECTION
2
TABLES
0
TABLE
2
VPORT
5
8
100
AcDbSymbolTable
0
ENDTAB
0
TABLE
2
LTYPE
5
5
100
AcDbSymbolTable
0
LTYPE
5
14
100
AcDbSymbolTableRecord
100
AcDbLinetypeTableRecord
2
BYBLOCK
70
0
0
LTYPE
5
15
100
AcDbSymbolTableRecord
100
AcDbLinetypeTableRecord
2
BYLAYER
70
0
0
LTYPE
5
16
100
AcDbSymbolTableRecord
100
AcDbLinetypeTableRecord
2
DASHED
70
0
3
Dashed __ __ __ __ __ __ __ __ __ __ __ __ __ _
72
65
73
2
40
0.75
49
0.5
74
0
49
-0.25
74
0
0
ENDTAB
0
TABLE
2
LAYER
5
2
100
AcDbSymbolTable
70
2
0
LAYER
5
50
100
AcDbSymbolTableRecord
100
AcDbLayerTableRecord
2
0
70
0
62
7
6
CONTINUOUS
0
ENDTAB
0
TABLE
2
STYLE
5
3
100
AcDbSymbolTable
70
1
0
STYLE
5
11
100
AcDbSymbolTableRecord
100
AcDbTextStyleTableRecord
2
STANDARD
70
0
0
ENDTAB
0
TABLE
2
VIEW
5
6
100
AcDbSymbolTable
70
0
0
ENDTAB
0
TABLE
2
UCS
5
7
100
AcDbSymbolTable
70
0
0
ENDTAB
0
TABLE
2
APPID
5
9
100
AcDbSymbolTable
70
2
0
APPID
5
12
100
AcDbSymbolTableRecord
100
AcDbRegAppTableRecord
2
ACAD
70
0
0
ENDTAB
0
TABLE
2
DIMSTYLE
5
A
100
AcDbSymbolTable
70
1
0
ENDTAB
0
TABLE
2
BLOCK_RECORD
5
1
100
AcDbSymbolTable
70
1
0
BLOCK_RECORD
5
1F
100
AcDbSymbolTableRecord
100
AcDbBlockTableRecord
2
*MODEL_SPACE
0
BLOCK_RECORD
5
1B
100
AcDbSymbolTableRecord
100
AcDbBlockTableRecord
2
*PAPER_SPACE
0
ENDTAB
0
ENDSEC
0
SECTION
2
BLOCKS
0
BLOCK
5
20
100
AcDbEntity
100
AcDbBlockBegin
2
*MODEL_SPACE
0
ENDBLK
5
21
100
AcDbEntity
100
AcDbBlockEnd
0
BLOCK
5
1C
100
AcDbEntity
100
AcDbBlockBegin
2
*PAPER_SPACE
0
ENDBLK
5
1D
100
AcDbEntity
100
AcDbBlockEnd
0
ENDSEC
0
SECTION
2
ENTITIES
0
LWPOLYLINE
5
100
100
AcDbEntity
8
OUTER_PROFILES
100
AcDbPolyline
90
212
70
1
43
0.0
10
114.75000000000001
20
254.00000000034325
10
105.25
20
254
10
105.25
20
250
10
0
20
250
10
0
20
229.03571428571462
10
-4.0000000001458602
20
229.03571428571433
10
-3.9999999999999858
20
219.53571428571428
10
0
20
219.53571428571428
10
0
20
215.94471428571433
10
3.8530000000000086
20
215.94471428571433
10
3.8530000000000086
20
217.33571428571429
10
5.8530000000000015
20
217.33571428571429
10
5.8530000000000371
20
215.94471428571433
10
6.8529999999999802
20
215.94471428571433
10
6.8529999999999802
20
212.62671428571429
10
5.8530000000000015
20
212.62671428571429
10
5.8530000000000015
20
211.23571428571432
10
3.8530000000000086
20
211.23571428571432
10
3.8530000000000086
20
212.62671428571429
10
0
20
212.62671428571429
10
0
20
209.03571428571433
10
-3.9999999999999858
20
209.03571428571433
10
-4.0000000001458602
20
199.53571428571428
10
0
20
199.53571428571399
10
0
20
184.39285714285745
10
-4.0000000001458602
20
184.39285714285717
10
-3.9999999999999858
20
174.89285714285714
10
0
20
174.89285714285714
10
0
20
171.30185714285716
10
3.8530000000000086
20
171.30185714285716
10
3.8530000000000086
20
172.69285714285715
10
5.8530000000000015
20
172.69285714285715
10
5.8530000000000371
20
171.30185714285716
10
6.8529999999999802
20
171.30185714285716
10
6.8529999999999802
20
167.98385714285715
10
5.8530000000000015
20
167.98385714285715
10
5.8530000000000015
20
166.59285714285716
10
3.8530000000000086
20
166.59285714285716
10
3.8530000000000086
20
167.98385714285715
10
0
20
167.98385714285715
10
0
20
164.39285714285717
10
-3.9999999999999858
20
164.39285714285717
10
-4.0000000001458602
20
154.89285714285714
10
0
20
154.89285714285685
10
0
20
139.75000000000031
10
-4.0000000001458602
20
139.75000000000003
10
-3.9999999999999858
20
130.25
10
0
20
130.25
10
0
20
126.65900000000002
10
3.8530000000000086
20
126.65900000000002
10
3.8530000000000086
20
128.05000000000001
10
5.8530000000000015
20
128.05000000000001
10
5.8530000000000371
20
126.65900000000002
10
6.8529999999999802
20
126.65900000000002
10
6.8529999999999802
20
123.34100000000001
10
5.8530000000000015
20
123.34100000000001
10
5.8530000000000015
20
121.95000000000002
10
3.8530000000000086
20
121.95000000000002
10
3.8530000000000086
20
123.34100000000001
10
0
20
123.34100000000001
10
0
20
119.75000000000003
10
-3.9999999999999858
20
119.75000000000003
10
-4.0000000001458602
20
110.25
10
0
20
110.24999999999972
10
0
20
95.107142857143174
10
-4.0000000001458602
20
95.10714285714289
10
-3.9999999999999858
20
85.607142857142861
10
0
20
85.607142857142861
10
0
20
82.016142857142881
10
3.8530000000000086
20
82.016142857142881
10
3.8530000000000086
20
83.407142857142873
10
5.8530000000000015
20
83.407142857142873
10
5.8530000000000371
20
82.016142857142881
10
6.8529999999999802
20
82.016142857142881
10
6.8529999999999802
20
78.698142857142869
10
5.8530000000000015
20
78.698142857142869
10
5.8530000000000015
20
77.307142857142878
10
3.8530000000000086
20
77.307142857142878
10
3.8530000000000086
20
78.698142857142869
10
0
20
78.698142857142869
10
0
20
75.10714285714289
10
-3.9999999999999858
20
75.10714285714289
10
-4.0000000001458602
20
65.607142857142861
10
0
20
65.607142857142577
10
0
20
50.464285714286028
10
-4.0000000001458602
20
50.464285714285744
10
-3.9999999999999858
20
40.964285714285715
10
0
20
40.964285714285715
10
0
20
37.373285714285736
10
3.8530000000000086
20
37.373285714285736
10
3.8530000000000086
20
38.764285714285727
10
5.8530000000000015
20
38.764285714285727
10
5.8530000000000371
20
37.373285714285736
10
6.8529999999999802
20
37.373285714285736
10
6.8529999999999802
20
34.055285714285723
10
5.8530000000000015
20
34.055285714285723
10
5.8530000000000015
20
32.664285714285732
10
3.8530000000000086
20
32.664285714285732
10
3.8530000000000086
20
34.055285714285723
10
0
20
34.055285714285723
10
0
20
30.464285714285744
10
-3.9999999999999858
20
30.464285714285744
10
-4.0000000001458602
20
20.964285714285715
10
0
20
20.964285714285431
10
0
20
0
10
105.25000000001599
20
1.3500311979441904e-11
10
105.25000000001648
20
-3.9999999999865565
10
114.7500000000165
20
-4.0000000003285763
10
114.750000000016
20
1.4672707493446069e-11
10
220
20
0
10
220
20
20.964285714285431
10
224.00000000014583
20
20.96428571428568
10
224
20
30.464285714285708
10
220
20
30.464285714285673
10
220
20
34.055285714285723
10
216.14699999999999
20
34.055285714285723
10
216.14699999999999
20
32.664285714285697
10
214.14699999999999
20
32.664285714285697
10
214.14699999999999
20
34.055285714285688
10
213.14700000000002
20
34.055285714285688
10
213.14700000000002
20
37.373285714285736
10
214.14699999999999
20
37.373285714285736
10
214.14699999999999
20
38.764285714285727
10
216.14699999999999
20
38.764285714285691
10
216.14699999999999
20
37.3732857142857
10
220
20
37.3732857142857
10
220
20
40.96428571428568
10
224
20
40.96428571428568
10
224.00000000014589
20
50.464285714285708
10
220
20
50.464285714285992
10
220
20
65.607142857142577
10
224.00000000014583
20
65.607142857142833
10
224
20
75.107142857142861
10
220
20
75.107142857142833
10
220
20
78.698142857142869
10
216.14699999999999
20
78.698142857142869
10
216.14699999999999
20
77.30714285714285
10
214.14699999999999
20
77.30714285714285
10
214.14699999999999
20
78.698142857142841
10
213.14700000000002
20
78.698142857142841
10
213.14700000000002
20
82.016142857142881
10
214.14699999999999
20
82.016142857142881
10
214.14699999999999
20
83.407142857142873
10
216.14699999999999
20
83.407142857142844
10
216.14699999999999
20
82.016142857142853
10
220
20
82.016142857142853
10
220
20
85.607142857142833
10
224
20
85.607142857142833
10
224.00000000014589
20
95.107142857142861
10
220
20
95.107142857143145
10
220
20
110.24999999999972
10
224.00000000014583
20
110.24999999999997
10
224
20
119.75
10
220
20
119.74999999999996
10
220
20
123.34100000000001
10
216.14699999999999
20
123.34100000000001
10
216.14699999999999
20
121.94999999999999
10
214.14699999999999
20
121.94999999999999
10
214.14699999999999
20
123.34099999999998
10
213.14700000000002
20
123.34099999999998
10
213.14700000000002
20
126.65900000000002
10
214.14699999999999
20
126.65900000000002
10
214.14699999999999
20
128.05000000000001
10
216.14699999999999
20
128.04999999999998
10
216.14699999999999
20
126.65899999999999
10
220
20
126.65899999999999
10
220
20
130.24999999999997
10
224
20
130.24999999999997
10
224.00000000014589
20
139.75
10
220
20
139.75000000000028
10
220
20
154.89285714285685
10
224.00000000014583
20
154.89285714285711
10
224
20
164.39285714285714
10
220
20
164.39285714285711
10
220
20
167.98385714285715
10
216.14699999999999
20
167.98385714285715
10
216.14699999999999
20
166.59285714285713
10
214.14699999999999
20
166.59285714285713
10
214.14699999999999
20
167.98385714285712
10
213.14700000000002
20
167.98385714285712
10
213.14700000000002
20
171.30185714285716
10
214.14699999999999
20
171.30185714285716
10
214.14699999999999
20
172.69285714285715
10
216.14699999999999
20
172.69285714285712
10
216.14699999999999
20
171.30185714285713
10
220
20
171.30185714285713
10
220
20
174.89285714285711
10
224
20
174.89285714285711
10
224.00000000014589
20
184.39285714285714
10
220
20
184.39285714285742
10
220
20
199.53571428571399
10
224.00000000014583
20
199.53571428571425
10
224
20
209.03571428571428
10
220
20
209.03571428571425
10
220
20
212.62671428571429
10
216.14699999999999
20
212.62671428571429
10
216.14699999999999
20
211.23571428571427
10
214.14699999999999
20
211.23571428571427
10
214.14699999999999
20
212.62671428571426
10
213.14700000000002
20
212.62671428571426
10
213.14700000000002
20
215.94471428571433
10
214.14699999999999
20
215.94471428571433
10
214.14699999999999
20
217.33571428571429
10
216.14699999999999
20
217.33571428571426
10
216.14699999999999
20
215.94471428571427
10
220
20
215.94471428571427
10
220
20
219.53571428571425
10
224
20
219.53571428571425
10
224.00000000014589
20
229.03571428571428
10
220
20
229.03571428571456
10
220
20
250
10
114.75000000000001
20
250
0
ENDSEC
0
SECTION
2
OBJECTS
0
DICTIONARY
5
C
100
AcDbDictionary
3
ACAD_GROUP
350
D
3
ACAD_MLINESTYLE
350
17
0
DICTIONARY
5
D
100
AcDbDictionary
0
DICTIONARY
5
1A
330
C
100
AcDbDictionary
0
DICTIONARY
5
17
100
AcDbDictionary
0
ENDSEC
0
EOF
