0
SECTION
2
HEADER
9
$INSUNITS
70
4
9
$ACADVER
1
AC1014
9
$HANDSEED
5
FFFF
0
ENDSEC
0
SECTION
2
TABLES
0
TABLE
2
VPORT
5
8
100
AcDbSymbolTable
0
ENDTAB
0
TABLE
2
LTYPE
5
5
100
AcDbSymbolTable
0
LTYPE
5
14
100
AcDbSymbolTableRecord
100
AcDbLinetypeTableRecord
2
BYBLOCK
70
0
0
LTYPE
5
15
100
AcDbSymbolTableRecord
100
AcDbLinetypeTableRecord
2
BYLAYER
70
0
0
LTYPE
5
16
100
AcDbSymbolTableRecord
100
AcDbLinetypeTableRecord
2
DASHED
70
0
3
Dashed __ __ __ __ __ __ __ __ __ __ __ __ __ _
72
65
73
2
40
0.75
49
0.5
74
0
49
-0.25
74
0
0
ENDTAB
0
TABLE
2
LAYER
5
2
100
AcDbSymbolTable
70
2
0
LAYER
5
50
100
AcDbSymbolTableRecord
100
AcDbLayerTableRecord
2
0
70
0
62
7
6
CONTINUOUS
0
ENDTAB
0
TABLE
2
STYLE
5
3
100
AcDbSymbolTable
70
1
0
STYLE
5
11
100
AcDbSymbolTableRecord
100
AcDbTextStyleTableRecord
2
STANDARD
70
0
0
ENDTAB
0
TABLE
2
VIEW
5
6
100
AcDbSymbolTable
70
0
0
ENDTAB
0
TABLE
2
UCS
5
7
100
AcDbSymbolTable
70
0
0
ENDTAB
0
TABLE
2
APPID
5
9
100
AcDbSymbolTable
70
2
0
APPID
5
12
100
AcDbSymbolTableRecord
100
AcDbRegAppTableRecord
2
ACAD
70
0
0
ENDTAB
0
TABLE
2
DIMSTYLE
5
A
100
AcDbSymbolTable
70
1
0
ENDTAB
0
TABLE
2
BLOCK_RECORD
5
1
100
AcDbSymbolTable
70
1
0
BLOCK_RECORD
5
1F
100
AcDbSymbolTableRecord
100
AcDbBlockTableRecord
2
*MODEL_SPACE
0
BLOCK_RECORD
5
1B
100
AcDbSymbolTableRecord
100
AcDbBlockTableRecord
2
*PAPER_SPACE
0
ENDTAB
0
ENDSEC
0
SECTION
2
BLOCKS
0
BLOCK
5
20
100
AcDbEntity
100
AcDbBlockBegin
2
*MODEL_SPACE
0
ENDBLK
5
21
100
AcDbEntity
100
AcDbBlockEnd
0
BLOCK
5
1C
100
AcDbEntity
100
AcDbBlockBegin
2
*PAPER_SPACE
0
ENDBLK
5
1D
100
AcDbEntity
100
AcDbBlockEnd
0
ENDSEC
0
SECTION
2
ENTITIES
0
LWPOLYLINE
5
100
100
AcDbEntity
8
OUTER_PROFILES
100
AcDbPolyline
90
164
70
1
43
0.0
10
5.8529999999968485
20
55.341000000237742
10
5.852999999984414
20
53.950000000237466
10
3.8529999999844571
20
53.950000000234361
10
3.8529999999972468
20
55.341000000234352
10
-2.7616797737550769e-12
20
55.341000000227758
10
3.3478775307571595e-12
20
51.750000000227779
10
-3.9999999999966378
20
51.750000000221064
10
-3.9999999999811258
20
42.250000000221107
10
1.9569901255067634e-11
20
42.250000000227871
10
0
20
0
10
220
20
0
10
220.00000000005755
20
42.250000000484548
10
224.00000000005826
20
42.25000000048712
10
224.00000000005153
20
51.750000000487084
10
220.00000000005156
20
51.750000000484455
10
220.00000000004928
20
55.341000000484435
10
216.14700000004927
20
55.34100000048204
10
216.14700000006536
20
53.950000000482049
10
214.14700000006536
20
53.950000000480465
10
214.14700000004967
20
55.34100000048074
10
213.14700000004964
20
55.341000000480165
10
213.14700000004666
20
58.659000000370611
10
214.14700000004669
20
58.659000000371826
10
214.14700000005985
20
60.050000000372101
10
216.14700000005985
20
60.050000000374141
10
216.14700000004629
20
58.659000000374149
10
219.99999999999426
20
58.659000000378683
10
219.99999999999389
20
62.250000000378662
10
224.00000000004206
20
62.250000000383245
10
224.00000000003163
20
71.750000000383224
10
219.99999999999301
20
71.750000000378549
10
220.00000000005102
20
108.91666666715122
10
224.00000000005173
20
108.91666666715378
10
224.00000000004502
20
118.41666666715375
10
220.00000000004505
20
118.41666666715112
10
220.00000000004277
20
122.0076666671511
10
216.14700000004277
20
122.0076666671487
10
216.14700000005885
20
120.61666666714871
10
214.14700000005888
20
120.61666666714713
10
214.14700000004316
20
122.0076666671474
10
213.14700000004314
20
122.00766666714682
10
213.14700000004018
20
125.32566666703727
10
214.14700000004018
20
125.32566666703849
10
214.14700000005337
20
126.71666666703877
10
216.14700000005337
20
126.71666666704081
10
216.14700000003978
20
125.32566666704082
10
219.99999999998775
20
125.32566666704534
10
219.99999999998738
20
128.91666666704532
10
224.00000000003556
20
128.9166666670499
10
224.0000000000251
20
138.41666666704987
10
219.99999999998647
20
138.41666666704521
10
220.00000000004451
20
175.5833333338179
10
224.00000000004522
20
175.58333333382046
10
224.00000000003848
20
185.08333333382041
10
220.00000000003851
20
185.08333333381779
10
220.00000000003624
20
188.67433333381774
10
216.14700000003623
20
188.67433333381538
10
216.14700000005232
20
187.28333333381539
10
214.14700000005234
20
187.2833333338138
10
214.14700000003663
20
188.67433333381405
10
213.1470000000366
20
188.67433333381348
10
213.14700000003367
20
191.99233333370393
10
214.14700000003367
20
191.99233333370515
10
214.14700000004686
20
193.38333333370542
10
216.14700000004686
20
193.38333333370747
10
216.14700000003327
20
191.99233333370751
10
219.99999999998124
20
191.992333333712
10
219.9999999999809
20
195.58333333371198
10
224.00000000002905
20
195.58333333371655
10
224.00000000001859
20
205.08333333371655
10
219.99999999997993
20
205.08333333371186
10
220.00000000003803
20
242.25000000048456
10
224.00000000003871
20
242.25000000048712
10
224.000000000032
20
251.75000000048709
10
220.000000000032
20
251.75000000048448
10
220.00000000002973
20
255.34100000048448
10
216.14700000002972
20
255.34100000048204
10
216.14700000004581
20
253.95000000048208
10
214.14700000004584
20
253.95000000048049
10
214.14700000003012
20
255.34100000048079
10
213.14700000003012
20
255.34100000048022
10
213.14700000002713
20
258.65900000037067
10
214.14700000002713
20
258.65900000037186
10
214.14700000004032
20
260.05000000037217
10
216.14700000004032
20
260.05000000037415
10
216.14700000002674
20
258.65900000037419
10
219.9999999999747
20
258.65900000037874
10
219.99999999997436
20
262.25000000037869
10
224.00000000002251
20
262.25000000038324
10
224.00000000001211
20
271.75000000038324
10
219.99999999997343
20
271.75000000037858
10
219.9999999999693
20
314.00000000025477
10
-3.0695446184836328e-11
20
314.00000000023277
10
-2.6573188094403122e-11
20
271.75000000023863
10
-4.0000000000272697
20
271.75000000023823
10
-4.0000000000256133
20
262.25000000023829
10
-2.5627833188934801e-11
20
262.25000000023874
10
-2.5273672044079376e-11
20
258.65900000023879
10
3.8529999999747351
20
258.65900000023919
10
3.8529999999593874
20
260.05000000023915
10
5.8529999999593807
20
260.05000000023961
10
5.8529999999743376
20
258.65900000023936
10
6.8529999999743518
20
258.65900000023947
10
6.8529999999773299
20
255.34100000023949
10
5.8529999999773157
20
255.34100000023773
10
5.8529999999648812
20
253.95000000023745
10
3.8529999999649234
20
253.95000000023435
10
3.8529999999777131
20
255.34100000023437
10
-2.2295498780522394e-11
20
255.34100000022775
10
-1.6185941476010157e-11
20
251.75000000022777
10
-4.0000000000161711
20
251.75000000022109
10
-4.0000000000006599
20
242.25000000022112
10
3.6082248300317588e-14
20
242.25000000022786
10
-2.0062285166488891e-11
20
205.083333333572
10
-4.0000000000207585
20
205.08333333357157
10
-4.0000000000191021
20
195.58333333357157
10
-1.911693026102057e-11
20
195.58333333357209
10
-1.8762214004652833e-11
20
191.99233333357211
10
3.8529999999812463
20
191.9923333335725
10
3.8529999999658986
20
193.38333333357247
10
5.852999999965891
20
193.38333333357298
10
5.852999999980848
20
191.9923333335727
10
6.8529999999808622
20
191.99233333357279
10
6.8529999999838411
20
188.6743333335728
10
5.8529999999838269
20
188.6743333335711
10
5.8529999999713924
20
187.28333333357082
10
3.8529999999714351
20
187.2833333335677
10
3.8529999999842248
20
188.67433333356769
10
-1.5784040741095851e-11
20
188.67433333356107
10
-9.6744834365836141e-12
20
185.08333333356109
10
-4.0000000000096607
20
185.08333333355438
10
-3.9999999999941487
20
175.58333333355444
10
6.5475402877268607e-12
20
175.5833333335612
10
-1.3515299990274343e-11
20
138.41666666690531
10
-4.0000000000142117
20
138.41666666690489
10
-4.0000000000125908
20
128.91666666690494
10
-1.2605472221594027e-11
20
128.91666666690543
10
-1.2251311076738602e-11
20
125.32566666690545
10
3.8529999999877571
20
125.32566666690582
10
3.8529999999724094
20
126.71666666690581
10
5.8529999999724023
20
126.71666666690629
10
5.8529999999873592
20
125.325666666906
10
6.8529999999873734
20
125.3256666669061
10
6.8529999999903524
20
122.00766666690612
10
5.8529999999903382
20
122.0076666669044
10
5.8529999999779037
20
120.61666666690412
10
3.8529999999779458
20
120.61666666690101
10
3.8529999999907356
20
122.007666666901
10
-9.27313781318162e-12
20
122.00766666689444
10
-3.163025397157071e-12
20
118.41666666689446
10
-4.0000000000031495
20
118.41666666688772
10
-3.9999999999876374
20
108.91666666688776
10
1.3058998327153404e-11
20
108.91666666689453
10
-7.0038419508478e-12
20
71.750000000238657
10
-4.0000000000077005
20
71.750000000238245
10
-4.0000000000060805
20
62.250000000238266
10
-6.0940141821674843e-12
20
62.250000000238764
10
-5.7398530373120593e-12
20
58.659000000238784
10
3.8529999999942688
20
58.65900000023916
10
3.8529999999789211
20
60.050000000239152
10
5.8529999999789144
20
60.050000000239628
10
5.8529999999938713
20
58.659000000239352
10
6.8529999999938855
20
58.659000000239431
10
6.8529999999968627
20
55.341000000239461
0
LWPOLYLINE
5
101
100
AcDbEntity
8
INTERIOR_PROFILES
100
AcDbPolyline
90
4
70
1
43
0.0
10
114.99999999997183
20
307.00000000024454
10
104.99999999996265
20
307.00000000024352
10
104.99999999997084
20
311.20000000036634
10
114.99999999997173
20
311.20000000024453
0
LWPOLYLINE
5
102
100
AcDbEntity
8
INTERIOR_PROFILES
100
AcDbPolyline
90
4
70
1
43
0.0
10
104.99999999999518
20
7.0000000002423501
10
114.99999999999969
20
7.0000000002432561
10
114.99999999999972
20
2.800000000243239
10
104.99999999999935
20
2.8000000001199243
0
ENDSEC
0
SECTION
2
OBJECTS
0
DICTIONARY
5
C
100
AcDbDictionary
3
ACAD_GROUP
350
D
3
ACAD_MLINESTYLE
350
17
0
DICTIONARY
5
D
100
AcDbDictionary
0
DICTIONARY
5
1A
330
C
100
AcDbDictionary
0
DICTIONARY
5
17
100
AcDbDictionary
0
ENDSEC
0
EOF
