0
SECTION
2
HEADER
9
$INSUNITS
70
4
9
$ACADVER
1
AC1014
9
$HANDSEED
5
FFFF
0
ENDSEC
0
SECTION
2
TABLES
0
TABLE
2
VPORT
5
8
100
AcDbSymbolTable
0
ENDTAB
0
TABLE
2
LTYPE
5
5
100
AcDbSymbolTable
0
LTYPE
5
14
100
AcDbSymbolTableRecord
100
AcDbLinetypeTableRecord
2
BYBLOCK
70
0
0
LTYPE
5
15
100
AcDbSymbolTableRecord
100
AcDbLinetypeTableRecord
2
BYLAYER
70
0
0
LTYPE
5
16
100
AcDbSymbolTableRecord
100
AcDbLinetypeTableRecord
2
DASHED
70
0
3
Dashed __ __ __ __ __ __ __ __ __ __ __ __ __ _
72
65
73
2
40
0.75
49
0.5
74
0
49
-0.25
74
0
0
ENDTAB
0
TABLE
2
LAYER
5
2
100
AcDbSymbolTable
70
2
0
LAYER
5
50
100
AcDbSymbolTableRecord
100
AcDbLayerTableRecord
2
0
70
0
62
7
6
CONTINUOUS
0
ENDTAB
0
TABLE
2
STYLE
5
3
100
AcDbSymbolTable
70
1
0
STYLE
5
11
100
AcDbSymbolTableRecord
100
AcDbTextStyleTableRecord
2
STANDARD
70
0
0
ENDTAB
0
TABLE
2
VIEW
5
6
100
AcDbSymbolTable
70
0
0
ENDTAB
0
TABLE
2
UCS
5
7
100
AcDbSymbolTable
70
0
0
ENDTAB
0
TABLE
2
APPID
5
9
100
AcDbSymbolTable
70
2
0
APPID
5
12
100
AcDbSymbolTableRecord
100
AcDbRegAppTableRecord
2
ACAD
70
0
0
ENDTAB
0
TABLE
2
DIMSTYLE
5
A
100
AcDbSymbolTable
70
1
0
ENDTAB
0
TABLE
2
BLOCK_RECORD
5
1
100
AcDbSymbolTable
70
1
0
BLOCK_RECORD
5
1F
100
AcDbSymbolTableRecord
100
AcDbBlockTableRecord
2
*MODEL_SPACE
0
BLOCK_RECORD
5
1B
100
AcDbSymbolTableRecord
100
AcDbBlockTableRecord
2
*PAPER_SPACE
0
ENDTAB
0
ENDSEC
0
SECTION
2
BLOCKS
0
BLOCK
5
20
100
AcDbEntity
100
AcDbBlockBegin
2
*MODEL_SPACE
0
ENDBLK
5
21
100
AcDbEntity
100
AcDbBlockEnd
0
BLOCK
5
1C
100
AcDbEntity
100
AcDbBlockBegin
2
*PAPER_SPACE
0
ENDBLK
5
1D
100
AcDbEntity
100
AcDbBlockEnd
0
ENDSEC
0
SECTION
2
ENTITIES
0
LWPOLYLINE
5
100
100
AcDbEntity
8
OUTER_PROFILES
100
AcDbPolyline
90
172
70
1
43
0.0
10
5.8530000000000024
20
163.61666666666667
10
3.8530000000000095
20
163.61666666666665
10
3.8530000000000149
20
165.00766666666667
10
6.106226635438361e-15
20
165.00766666666664
10
3.8857805861880479e-15
20
161.41666666666649
10
-3.9999999999999996
20
161.41666666666652
10
-4.0000000000028786
20
151.91666666666652
10
2.2204460492503131e-15
20
151.91666666666623
10
-1.6653345369377348e-15
20
136.97222222222257
10
-4.0000000000533671
20
136.97222222222229
10
-3.9999999999999885
20
127.47222222222233
10
-3.3306690738754696e-15
20
127.47222222222233
10
-5.5511151231257827e-15
20
123.88122222222221
10
3.8530000000000033
20
123.88122222222221
10
3.8530000000000082
20
125.2722222222222
10
5.8530000000000015
20
125.2722222222222
10
5.8529999999999962
20
123.88122222222221
10
6.8530000000000104
20
123.88122222222221
10
6.8530000000000051
20
120.56322222222222
10
5.8530000000000086
20
120.56322222222219
10
5.8530000000000033
20
119.17222222222223
10
3.8530000000000109
20
119.1722222222222
10
3.8530000000000157
20
120.56322222222222
10
7.2164496600635175e-15
20
120.56322222222219
10
4.9960036108132044e-15
20
116.97222222222203
10
-3.9999999999999987
20
116.97222222222207
10
-4.0000000000028777
20
107.47222222222207
10
3.8857805861880479e-15
20
107.47222222222179
10
-5.5511151231257827e-16
20
92.527777777778113
10
-4.0000000000533662
20
92.527777777777828
10
-3.9999999999999876
20
83.027777777777885
10
-1.6653345369377348e-15
20
83.027777777777885
10
-4.4408920985006262e-15
20
79.436777777777763
10
3.8530000000000042
20
79.436777777777763
10
3.8530000000000091
20
80.827777777777754
10
5.8530000000000024
20
80.827777777777754
10
5.8529999999999971
20
79.436777777777763
10
6.8530000000000113
20
79.436777777777763
10
6.8530000000000069
20
76.11877777777778
10
5.8530000000000104
20
76.118777777777751
10
5.8530000000000051
20
74.727777777777789
10
3.8530000000000126
20
74.72777777777776
10
3.8530000000000171
20
76.11877777777778
10
8.3266726846886741e-15
20
76.118777777777751
10
6.106226635438361e-15
20
72.527777777777587
10
-3.9999999999999973
20
72.527777777777629
10
-4.0000000000028759
20
63.027777777777629
10
4.9960036108132044e-15
20
63.027777777777345
10
5.5511151231257827e-16
20
48.083333333333691
10
-4.0000000000533644
20
48.083333333333407
10
-3.9999999999999862
20
38.583333333333449
10
-5.5511151231257827e-16
20
38.583333333333449
10
-2.7755575615628914e-15
20
34.992333333333328
10
3.853000000000006
20
34.992333333333328
10
3.8530000000000109
20
36.383333333333319
10
5.8530000000000033
20
36.383333333333297
10
5.852999999999998
20
34.992333333333306
10
6.853000000000014
20
34.992333333333328
10
6.8530000000000078
20
31.674333333333351
10
5.8530000000000113
20
31.674333333333298
10
5.853000000000006
20
30.283333333333342
10
3.8530000000000135
20
30.283333333333324
10
3.8530000000000184
20
31.674333333333351
10
9.9920072216264089e-15
20
31.674333333333315
10
7.2164496600635175e-15
20
28.083333333333158
10
-3.9999999999999964
20
28.083333333333194
10
-4.000000000002875
20
18.583333333333201
10
6.106226635438361e-15
20
18.583333333332916
10
0
20
0
10
45.25000000001279
20
5.7553961596568115e-12
10
45.250000000013308
20
-3.9999999999942304
10
54.750000000013301
20
-3.9999999999284697
10
54.75000000001279
20
6.9633188104489818e-12
10
100
20
0
10
100
20
18.583333333332916
10
104.00000000000288
20
18.583333333333201
10
104
20
28.083333333333194
10
100
20
28.083333333333158
10
100
20
31.674333333333351
10
96.146999999999991
20
31.674333333333351
10
96.146999999999991
20
30.283333333333324
10
94.146999999999991
20
30.283333333333378
10
94.146999999999991
20
31.674333333333333
10
93.147000000000006
20
31.674333333333351
10
93.146999999999963
20
34.992333333333328
10
94.146999999999977
20
34.992333333333349
10
94.146999999999991
20
36.38333333333334
10
96.146999999999991
20
36.383333333333319
10
96.146999999999977
20
34.992333333333328
10
99.999999999999986
20
34.992333333333328
10
100
20
38.583333333333449
10
103.99999999999999
20
38.583333333333449
10
104.00000000005336
20
48.083333333333407
10
100
20
48.083333333333691
10
100
20
63.027777777777345
10
104.00000000000288
20
63.027777777777629
10
104
20
72.527777777777629
10
100
20
72.527777777777587
10
100
20
76.11877777777778
10
96.146999999999991
20
76.11877777777778
10
96.146999999999991
20
74.72777777777776
10
94.146999999999991
20
74.727777777777789
10
94.146999999999991
20
76.118777777777751
10
93.147000000000006
20
76.11877777777778
10
93.146999999999963
20
79.436777777777763
10
94.146999999999977
20
79.436777777777763
10
94.146999999999991
20
80.827777777777754
10
96.146999999999991
20
80.827777777777754
10
96.146999999999977
20
79.436777777777763
10
99.999999999999986
20
79.436777777777763
10
100
20
83.027777777777885
10
103.99999999999999
20
83.027777777777885
10
104.00000000005336
20
92.527777777777828
10
100
20
92.527777777778113
10
100
20
107.47222222222179
10
104.00000000000288
20
107.47222222222207
10
104
20
116.97222222222207
10
100
20
116.97222222222203
10
100
20
120.56322222222222
10
96.146999999999991
20
120.56322222222222
10
96.146999999999991
20
119.1722222222222
10
94.146999999999991
20
119.17222222222223
10
94.146999999999991
20
120.56322222222219
10
93.147000000000006
20
120.56322222222222
10
93.146999999999963
20
123.88122222222221
10
94.146999999999977
20
123.88122222222221
10
94.146999999999991
20
125.2722222222222
10
96.146999999999991
20
125.2722222222222
10
96.146999999999977
20
123.88122222222221
10
99.999999999999986
20
123.88122222222221
10
99.999999999999986
20
127.47222222222233
10
103.99999999999997
20
127.47222222222233
10
104.00000000005336
20
136.97222222222229
10
100
20
136.97222222222257
10
100
20
151.91666666666623
10
104.00000000000288
20
151.91666666666652
10
104
20
161.41666666666652
10
100
20
161.41666666666649
10
100
20
165.00766666666667
10
96.146999999999991
20
165.00766666666667
10
96.146999999999991
20
163.61666666666665
10
94.146999999999991
20
163.61666666666667
10
94.146999999999991
20
165.00766666666664
10
93.147000000000006
20
165.00766666666667
10
93.146999999999991
20
168.32566666666665
10
94.146999999999991
20
168.32566666666665
10
94.146999999999991
20
169.71666666666664
10
96.146999999999991
20
169.71666666666664
10
96.146999999999991
20
168.32566666666665
10
100
20
168.32566666666665
10
99.999999999999986
20
171.91666666666677
10
103.99999999999997
20
171.91666666666677
10
104.00000000005335
20
181.41666666666674
10
99.999999999999986
20
181.41666666666703
10
100
20
200
10
54.750000000003219
20
200
10
54.750000000003219
20
203.99999999993543
10
45.249999999996803
20
204
10
45.249999999996803
20
200
10
0
20
200
10
-3.3306690738754696e-15
20
181.41666666666703
10
-4.000000000053368
20
181.41666666666674
10
-3.9999999999999898
20
171.91666666666677
10
-4.4408920985006262e-15
20
171.91666666666677
10
1.1102230246251565e-14
20
168.32566666666665
10
3.8530000000000197
20
168.32566666666665
10
3.8530000000000069
20
169.71666666666664
10
5.8529999999999998
20
169.71666666666664
10
5.8530000000000122
20
168.32566666666665
10
6.8530000000000264
20
168.32566666666665
10
6.8530000000000051
20
165.00766666666667
10
5.8530000000000086
20
165.00766666666664
0
ENDSEC
0
SECTION
2
OBJECTS
0
DICTIONARY
5
C
100
AcDbDictionary
3
ACAD_GROUP
350
D
3
ACAD_MLINESTYLE
350
17
0
DICTIONARY
5
D
100
AcDbDictionary
0
DICTIONARY
5
1A
330
C
100
AcDbDictionary
0
DICTIONARY
5
17
100
AcDbDictionary
0
ENDSEC
0
EOF
