0
SECTION
2
HEADER
9
$INSUNITS
70
4
9
$ACADVER
1
AC1014
9
$HANDSEED
5
FFFF
0
ENDSEC
0
SECTION
2
TABLES
0
TABLE
2
VPORT
5
8
100
AcDbSymbolTable
0
ENDTAB
0
TABLE
2
LTYPE
5
5
100
AcDbSymbolTable
0
LTYPE
5
14
100
AcDbSymbolTableRecord
100
AcDbLinetypeTableRecord
2
BYBLOCK
70
0
0
LTYPE
5
15
100
AcDbSymbolTableRecord
100
AcDbLinetypeTableRecord
2
BYLAYER
70
0
0
LTYPE
5
16
100
AcDbSymbolTableRecord
100
AcDbLinetypeTableRecord
2
DASHED
70
0
3
Dashed __ __ __ __ __ __ __ __ __ __ __ __ __ _
72
65
73
2
40
0.75
49
0.5
74
0
49
-0.25
74
0
0
ENDTAB
0
TABLE
2
LAYER
5
2
100
AcDbSymbolTable
70
2
0
LAYER
5
50
100
AcDbSymbolTableRecord
100
AcDbLayerTableRecord
2
0
70
0
62
7
6
CONTINUOUS
0
ENDTAB
0
TABLE
2
STYLE
5
3
100
AcDbSymbolTable
70
1
0
STYLE
5
11
100
AcDbSymbolTableRecord
100
AcDbTextStyleTableRecord
2
STANDARD
70
0
0
ENDTAB
0
TABLE
2
VIEW
5
6
100
AcDbSymbolTable
70
0
0
ENDTAB
0
TABLE
2
UCS
5
7
100
AcDbSymbolTable
70
0
0
ENDTAB
0
TABLE
2
APPID
5
9
100
AcDbSymbolTable
70
2
0
APPID
5
12
100
AcDbSymbolTableRecord
100
AcDbRegAppTableRecord
2
ACAD
70
0
0
ENDTAB
0
TABLE
2
DIMSTYLE
5
A
100
AcDbSymbolTable
70
1
0
ENDTAB
0
TABLE
2
BLOCK_RECORD
5
1
100
AcDbSymbolTable
70
1
0
BLOCK_RECORD
5
1F
100
AcDbSymbolTableRecord
100
AcDbBlockTableRecord
2
*MODEL_SPACE
0
BLOCK_RECORD
5
1B
100
AcDbSymbolTableRecord
100
AcDbBlockTableRecord
2
*PAPER_SPACE
0
ENDTAB
0
ENDSEC
0
SECTION
2
BLOCKS
0
BLOCK
5
20
100
AcDbEntity
100
AcDbBlockBegin
2
*MODEL_SPACE
0
ENDBLK
5
21
100
AcDbEntity
100
AcDbBlockEnd
0
BLOCK
5
1C
100
AcDbEntity
100
AcDbBlockBegin
2
*PAPER_SPACE
0
ENDBLK
5
1D
100
AcDbEntity
100
AcDbBlockEnd
0
ENDSEC
0
SECTION
2
ENTITIES
0
LWPOLYLINE
5
100
100
AcDbEntity
8
OUTER_PROFILES
100
AcDbPolyline
90
8
70
1
43
0.0
10
3.2969642181818328e-11
20
213.99999999999903
42
0.41421356237309093
10
-2.4999999999669988
20
211.49999999999903
10
-2.4999999999670308
20
2.4999999999670308
42
0.41421356237309503
10
-1.5308084989872383e-16
20
1.7763568394002505e-14
10
409.00000000003359
20
0
42
0.41421356237309503
10
411.50000000003303
20
2.4999999999994311
10
411.50000000003303
20
211.49999999999341
42
0.41421356237309503
10
409.00000000003303
20
213.99999999999341
0
LWPOLYLINE
5
101
100
AcDbEntity
8
INTERIOR_PROFILES
100
AcDbPolyline
90
4
70
1
43
0.0
10
339.50000000003001
20
211.1999999999982
10
339.50000000003013
20
207.00000000000003
10
329.50000000003013
20
207.00000000000003
10
329.50000000003001
20
211.19999999999791
0
LWPOLYLINE
5
102
100
AcDbEntity
8
INTERIOR_PROFILES
100
AcDbPolyline
90
4
70
1
43
0.0
10
404.50000000003297
20
55.333333333333314
10
408.70000000003301
20
55.333333333333314
10
408.70000000003301
20
45.33333333333335
10
404.50000000003297
20
45.33333333333335
0
LWPOLYLINE
5
103
100
AcDbEntity
8
INTERIOR_PROFILES
100
AcDbPolyline
90
4
70
1
43
0.0
10
309.50000000003303
20
2.8000000000000114
10
309.50000000003297
20
7.0000000000000284
10
319.50000000003297
20
7.0000000000000284
10
319.50000000003297
20
2.8000000000000114
0
LWPOLYLINE
5
104
100
AcDbEntity
8
INTERIOR_PROFILES
100
AcDbPolyline
90
4
70
1
43
0.0
10
319.50000000003581
20
206.9999999999979
10
309.50000000003581
20
206.99999999999818
10
309.50000000003598
20
211.19999999999365
10
319.50000000003598
20
211.19999999999791
0
LWPOLYLINE
5
105
100
AcDbEntity
8
INTERIOR_PROFILES
100
AcDbPolyline
90
4
70
1
43
0.0
10
339.50000000003297
20
7.0000000000000284
10
339.50000000003297
20
2.8000000000000114
10
329.50000000003297
20
2.8000000000000114
10
329.50000000003297
20
7.0000000000000284
0
CIRCLE
5
106
100
AcDbEntity
8
INTERIOR_PROFILES
100
AcDbCircle
10
-1.6950000000329979
20
40.333333333333385
30
0
40
1.25
210
0
220
0
230
-1
0
CIRCLE
5
107
100
AcDbEntity
8
INTERIOR_PROFILES
100
AcDbCircle
10
-407.30500000003303
20
40.33333333333335
30
0
40
1.25
210
0
220
0
230
-1
0
CIRCLE
5
108
100
AcDbEntity
8
INTERIOR_PROFILES
100
AcDbCircle
10
-324.50000000003297
20
4.1950000000000287
30
0
40
1.25
210
0
220
0
230
-1
0
CIRCLE
5
109
100
AcDbEntity
8
INTERIOR_PROFILES
100
AcDbCircle
10
-324.50000000003007
20
209.80499999999776
30
0
40
1.25
210
0
220
0
230
-1
0
LWPOLYLINE
5
110
100
AcDbEntity
8
INTERIOR_PROFILES
100
AcDbPolyline
90
4
70
1
43
0.0
10
408.70000000003301
20
25.33333333333335
10
404.50000000003297
20
25.33333333333335
10
404.50000000003297
20
35.33333333333335
10
408.70000000003301
20
35.33333333333335
0
LWPOLYLINE
5
111
100
AcDbEntity
8
INTERIOR_PROFILES
100
AcDbPolyline
90
4
70
1
43
0.0
10
4.5000000000329976
20
35.333333333333385
10
4.5000000000329976
20
25.333333333333385
10
0.30000000003299832
20
25.333333333333385
10
0.30000000003299832
20
35.333333333333385
0
LWPOLYLINE
5
112
100
AcDbEntity
8
INTERIOR_PROFILES
100
AcDbPolyline
90
4
70
1
43
0.0
10
79.500000000035982
20
211.19999999999791
10
79.50000000003584
20
206.9999999999979
10
69.50000000003584
20
206.99999999999818
10
69.500000000035982
20
211.19999999999365
0
LWPOLYLINE
5
113
100
AcDbEntity
8
INTERIOR_PROFILES
100
AcDbPolyline
90
4
70
1
43
0.0
10
209.50000000003001
20
211.19999999999791
10
219.50000000003001
20
211.1999999999982
10
219.50000000003016
20
207.00000000000003
10
209.50000000003016
20
207.00000000000003
0
LWPOLYLINE
5
114
100
AcDbEntity
8
INTERIOR_PROFILES
100
AcDbPolyline
90
4
70
1
43
0.0
10
189.500000000033
20
7.0000000000000284
10
199.500000000033
20
7.0000000000000284
10
199.500000000033
20
2.8000000000000114
10
189.50000000003303
20
2.8000000000000114
0
CIRCLE
5
115
100
AcDbEntity
8
INTERIOR_PROFILES
100
AcDbCircle
10
-204.500000000033
20
4.1950000000000287
30
0
40
1.25
210
0
220
0
230
-1
0
LWPOLYLINE
5
116
100
AcDbEntity
8
INTERIOR_PROFILES
100
AcDbPolyline
90
4
70
1
43
0.0
10
219.50000000003297
20
2.8000000000000114
10
209.500000000033
20
2.8000000000000114
10
209.500000000033
20
7.0000000000000284
10
219.500000000033
20
7.0000000000000284
0
LWPOLYLINE
5
117
100
AcDbEntity
8
INTERIOR_PROFILES
100
AcDbPolyline
90
4
70
1
43
0.0
10
189.50000000003584
20
206.99999999999818
10
189.50000000003598
20
211.19999999999365
10
199.50000000003598
20
211.19999999999791
10
199.50000000003584
20
206.9999999999979
0
LWPOLYLINE
5
118
100
AcDbEntity
8
INTERIOR_PROFILES
100
AcDbPolyline
90
4
70
1
43
0.0
10
0.30000000003299832
20
45.333333333333385
10
0.30000000003299832
20
55.333333333333385
10
4.5000000000329976
20
55.333333333333385
10
4.5000000000329976
20
45.333333333333385
0
CIRCLE
5
119
100
AcDbEntity
8
INTERIOR_PROFILES
100
AcDbCircle
10
-204.50000000003007
20
209.80499999999776
30
0
40
1.25
210
0
220
0
230
-1
0
CIRCLE
5
120
100
AcDbEntity
8
INTERIOR_PROFILES
100
AcDbCircle
10
-84.500000000032998
20
4.1950000000000287
30
0
40
1.25
210
0
220
0
230
-1
0
LWPOLYLINE
5
121
100
AcDbEntity
8
INTERIOR_PROFILES
100
AcDbPolyline
90
4
70
1
43
0.0
10
69.500000000033026
20
2.8000000000000114
10
69.500000000032998
20
7.0000000000000284
10
79.500000000032998
20
7.0000000000000284
10
79.500000000032998
20
2.8000000000000114
0
LWPOLYLINE
5
122
100
AcDbEntity
8
INTERIOR_PROFILES
100
AcDbPolyline
90
4
70
1
43
0.0
10
4.5000000000329976
20
178.66666666666671
10
0.30000000003299832
20
178.66666666666671
10
0.30000000003299832
20
188.66666666666671
10
4.5000000000329976
20
188.66666666666671
0
LWPOLYLINE
5
123
100
AcDbEntity
8
INTERIOR_PROFILES
100
AcDbPolyline
90
4
70
1
43
0.0
10
4.5000000000329976
20
168.66666666666671
10
4.5000000000329976
20
158.66666666666671
10
0.30000000003299832
20
158.66666666666671
10
0.30000000003299832
20
168.66666666666671
0
CIRCLE
5
124
100
AcDbEntity
8
INTERIOR_PROFILES
100
AcDbCircle
10
-407.30500000003303
20
173.66666666666669
30
0
40
1.25
210
0
220
0
230
-1
0
LWPOLYLINE
5
125
100
AcDbEntity
8
INTERIOR_PROFILES
100
AcDbPolyline
90
4
70
1
43
0.0
10
408.70000000003301
20
158.66666666666669
10
404.50000000003297
20
158.66666666666669
10
404.50000000003297
20
168.66666666666669
10
408.70000000003301
20
168.66666666666669
0
LWPOLYLINE
5
126
100
AcDbEntity
8
INTERIOR_PROFILES
100
AcDbPolyline
90
4
70
1
43
0.0
10
404.50000000003297
20
188.66666666666663
10
408.70000000003301
20
188.66666666666663
10
408.70000000003301
20
178.66666666666669
10
404.50000000003297
20
178.66666666666669
0
LWPOLYLINE
5
127
100
AcDbEntity
8
INTERIOR_PROFILES
100
AcDbPolyline
90
4
70
1
43
0.0
10
0.30000000003299832
20
134.22222222222226
10
0.30000000003299832
20
144.22222222222226
10
4.5000000000329976
20
144.22222222222226
10
4.5000000000329976
20
134.22222222222226
0
LWPOLYLINE
5
128
100
AcDbEntity
8
INTERIOR_PROFILES
100
AcDbPolyline
90
4
70
1
43
0.0
10
404.50000000003297
20
114.22222222222223
10
404.50000000003297
20
124.22222222222223
10
408.70000000003301
20
124.22222222222223
10
408.70000000003301
20
114.22222222222223
0
CIRCLE
5
129
100
AcDbEntity
8
INTERIOR_PROFILES
100
AcDbCircle
10
-1.6950000000329979
20
173.66666666666671
30
0
40
1.25
210
0
220
0
230
-1
0
LWPOLYLINE
5
130
100
AcDbEntity
8
INTERIOR_PROFILES
100
AcDbPolyline
90
4
70
1
43
0.0
10
4.5000000000329976
20
89.777777777777814
10
0.30000000003299832
20
89.777777777777814
10
0.30000000003299832
20
99.777777777777814
10
4.5000000000329976
20
99.777777777777814
0
LWPOLYLINE
5
131
100
AcDbEntity
8
INTERIOR_PROFILES
100
AcDbPolyline
90
4
70
1
43
0.0
10
99.500000000030013
20
211.1999999999982
10
99.500000000030155
20
207.00000000000003
10
89.500000000030155
20
207.00000000000003
10
89.500000000030013
20
211.19999999999791
0
LWPOLYLINE
5
132
100
AcDbEntity
8
INTERIOR_PROFILES
100
AcDbPolyline
90
4
70
1
43
0.0
10
404.50000000003297
20
134.22222222222223
10
404.50000000003297
20
144.2222222222222
10
408.70000000003301
20
144.2222222222222
10
408.70000000003301
20
134.22222222222223
0
LWPOLYLINE
5
133
100
AcDbEntity
8
INTERIOR_PROFILES
100
AcDbPolyline
90
4
70
1
43
0.0
10
404.50000000003297
20
79.777777777777771
10
408.70000000003301
20
79.777777777777771
10
408.70000000003301
20
69.777777777777771
10
404.50000000003297
20
69.777777777777771
0
LWPOLYLINE
5
134
100
AcDbEntity
8
INTERIOR_PROFILES
100
AcDbPolyline
90
4
70
1
43
0.0
10
4.5000000000329976
20
114.22222222222226
10
0.30000000003299832
20
114.22222222222226
10
0.30000000003299832
20
124.22222222222226
10
4.5000000000329976
20
124.22222222222226
0
LWPOLYLINE
5
135
100
AcDbEntity
8
INTERIOR_PROFILES
100
AcDbPolyline
90
4
70
1
43
0.0
10
4.5000000000329976
20
79.777777777777814
10
4.5000000000329976
20
69.777777777777814
10
0.30000000003299832
20
69.777777777777814
10
0.30000000003299832
20
79.777777777777814
0
CIRCLE
5
136
100
AcDbEntity
8
INTERIOR_PROFILES
100
AcDbCircle
10
-407.30500000003303
20
84.777777777777771
30
0
40
1.25
210
0
220
0
230
-1
0
LWPOLYLINE
5
137
100
AcDbEntity
8
INTERIOR_PROFILES
100
AcDbPolyline
90
4
70
1
43
0.0
10
408.70000000003301
20
89.777777777777771
10
404.50000000003297
20
89.777777777777771
10
404.50000000003297
20
99.777777777777743
10
408.70000000003301
20
99.777777777777743
0
CIRCLE
5
138
100
AcDbEntity
8
INTERIOR_PROFILES
100
AcDbCircle
10
-407.30500000003303
20
129.22222222222223
30
0
40
1.25
210
0
220
0
230
-1
0
CIRCLE
5
139
100
AcDbEntity
8
INTERIOR_PROFILES
100
AcDbCircle
10
-1.6950000000329979
20
84.777777777777814
30
0
40
1.25
210
0
220
0
230
-1
0
CIRCLE
5
140
100
AcDbEntity
8
INTERIOR_PROFILES
100
AcDbCircle
10
-1.6950000000329979
20
129.22222222222226
30
0
40
1.25
210
0
220
0
230
-1
0
LWPOLYLINE
5
141
100
AcDbEntity
8
INTERIOR_PROFILES
100
AcDbPolyline
90
4
70
1
43
0.0
10
89.500000000032998
20
7.0000000000000284
10
99.500000000032998
20
7.0000000000000284
10
99.500000000032969
20
2.8000000000000114
10
89.500000000032998
20
2.8000000000000114
0
CIRCLE
5
142
100
AcDbEntity
8
INTERIOR_PROFILES
100
AcDbCircle
10
-84.500000000030084
20
209.80499999999776
30
0
40
1.25
210
0
220
0
230
-1
0
ENDSEC
0
SECTION
2
OBJECTS
0
DICTIONARY
5
C
100
AcDbDictionary
3
ACAD_GROUP
350
D
3
ACAD_MLINESTYLE
350
17
0
DICTIONARY
5
D
100
AcDbDictionary
0
DICTIONARY
5
1A
330
C
100
AcDbDictionary
0
DICTIONARY
5
17
100
AcDbDictionary
0
ENDSEC
0
EOF
