0
SECTION
2
HEADER
9
$INSUNITS
70
4
9
$ACADVER
1
AC1014
9
$HANDSEED
5
FFFF
0
ENDSEC
0
SECTION
2
TABLES
0
TABLE
2
VPORT
5
8
100
AcDbSymbolTable
0
ENDTAB
0
TABLE
2
LTYPE
5
5
100
AcDbSymbolTable
0
LTYPE
5
14
100
AcDbSymbolTableRecord
100
AcDbLinetypeTableRecord
2
BYBLOCK
70
0
0
LTYPE
5
15
100
AcDbSymbolTableRecord
100
AcDbLinetypeTableRecord
2
BYLAYER
70
0
0
LTYPE
5
16
100
AcDbSymbolTableRecord
100
AcDbLinetypeTableRecord
2
DASHED
70
0
3
Dashed __ __ __ __ __ __ __ __ __ __ __ __ __ _
72
65
73
2
40
0.75
49
0.5
74
0
49
-0.25
74
0
0
ENDTAB
0
TABLE
2
LAYER
5
2
100
AcDbSymbolTable
70
2
0
LAYER
5
50
100
AcDbSymbolTableRecord
100
AcDbLayerTableRecord
2
0
70
0
62
7
6
CONTINUOUS
0
ENDTAB
0
TABLE
2
STYLE
5
3
100
AcDbSymbolTable
70
1
0
STYLE
5
11
100
AcDbSymbolTableRecord
100
AcDbTextStyleTableRecord
2
STANDARD
70
0
0
ENDTAB
0
TABLE
2
VIEW
5
6
100
AcDbSymbolTable
70
0
0
ENDTAB
0
TABLE
2
UCS
5
7
100
AcDbSymbolTable
70
0
0
ENDTAB
0
TABLE
2
APPID
5
9
100
AcDbSymbolTable
70
2
0
APPID
5
12
100
AcDbSymbolTableRecord
100
AcDbRegAppTableRecord
2
ACAD
70
0
0
ENDTAB
0
TABLE
2
DIMSTYLE
5
A
100
AcDbSymbolTable
70
1
0
ENDTAB
0
TABLE
2
BLOCK_RECORD
5
1
100
AcDbSymbolTable
70
1
0
BLOCK_RECORD
5
1F
100
AcDbSymbolTableRecord
100
AcDbBlockTableRecord
2
*MODEL_SPACE
0
BLOCK_RECORD
5
1B
100
AcDbSymbolTableRecord
100
AcDbBlockTableRecord
2
*PAPER_SPACE
0
ENDTAB
0
ENDSEC
0
SECTION
2
BLOCKS
0
BLOCK
5
20
100
AcDbEntity
100
AcDbBlockBegin
2
*MODEL_SPACE
0
ENDBLK
5
21
100
AcDbEntity
100
AcDbBlockEnd
0
BLOCK
5
1C
100
AcDbEntity
100
AcDbBlockBegin
2
*PAPER_SPACE
0
ENDBLK
5
1D
100
AcDbEntity
100
AcDbBlockEnd
0
ENDSEC
0
SECTION
2
ENTITIES
0
LWPOLYLINE
5
100
100
AcDbEntity
8
OUTER_PROFILES
100
AcDbPolyline
90
8
70
1
43
0.0
10
-2.4999999999670308
20
2.4999999999670308
10
-2.4999999999669953
20
261.4999999999992
42
-0.41421356237309509
10
3.3005169318606333e-11
20
263.9999999999992
10
309.00000000003303
20
263.99999999999642
42
-0.41421356237309503
10
311.50000000003303
20
261.49999999999642
10
311.50000000003303
20
2.499999999999432
42
-0.41421356237309503
10
309.00000000003359
20
0
10
1.5308084989140039e-16
20
0
42
-0.41421356237309503
0
LWPOLYLINE
5
101
100
AcDbEntity
8
INTERIOR_PROFILES
100
AcDbPolyline
90
4
70
1
43
0.0
10
308.70000000003301
20
117.00000000000004
10
308.70000000003301
20
127.00000000000004
10
304.50000000003297
20
127.00000000000004
10
304.50000000003297
20
117.00000000000004
0
LWPOLYLINE
5
102
100
AcDbEntity
8
INTERIOR_PROFILES
100
AcDbPolyline
90
4
70
1
43
0.0
10
0.30000000003301608
20
137
10
4.5000000000330154
20
137
10
4.5000000000330154
20
147
10
0.30000000003301608
20
147
0
CIRCLE
5
103
100
AcDbEntity
8
INTERIOR_PROFILES
100
AcDbCircle
10
-1.6950000000330157
20
176.64285714285714
30
0
40
1.25
210
0
220
0
230
-1
0
LWPOLYLINE
5
104
100
AcDbEntity
8
INTERIOR_PROFILES
100
AcDbPolyline
90
4
70
1
43
0.0
10
304.50000000003303
20
191.64285714285717
10
304.50000000003303
20
181.64285714285717
10
308.70000000003307
20
181.64285714285717
10
308.70000000003307
20
191.64285714285717
0
LWPOLYLINE
5
105
100
AcDbEntity
8
INTERIOR_PROFILES
100
AcDbPolyline
90
4
70
1
43
0.0
10
304.50000000003297
20
72.357142857142918
10
308.70000000003301
20
72.357142857142918
10
308.70000000003301
20
82.357142857142918
10
304.50000000003297
20
82.357142857142918
0
LWPOLYLINE
5
106
100
AcDbEntity
8
INTERIOR_PROFILES
100
AcDbPolyline
90
4
70
1
43
0.0
10
304.50000000003297
20
102.35714285714292
10
304.50000000003297
20
92.357142857142918
10
308.70000000003301
20
92.357142857142918
10
308.70000000003301
20
102.35714285714292
0
LWPOLYLINE
5
107
100
AcDbEntity
8
INTERIOR_PROFILES
100
AcDbPolyline
90
4
70
1
43
0.0
10
0.30000000003301608
20
117.00000000000001
10
4.5000000000330154
20
117.00000000000001
10
4.5000000000330154
20
127.00000000000001
10
0.30000000003301608
20
127.00000000000001
0
LWPOLYLINE
5
108
100
AcDbEntity
8
INTERIOR_PROFILES
100
AcDbPolyline
90
4
70
1
43
0.0
10
4.5000000000329976
20
72.357142857142875
10
4.5000000000329976
20
82.357142857142875
10
0.30000000003299832
20
82.357142857142875
10
0.30000000003299832
20
72.357142857142875
0
CIRCLE
5
109
100
AcDbEntity
8
INTERIOR_PROFILES
100
AcDbCircle
10
-1.6950000000329979
20
87.357142857142875
30
0
40
1.25
210
0
220
0
230
-1
0
LWPOLYLINE
5
110
100
AcDbEntity
8
INTERIOR_PROFILES
100
AcDbPolyline
90
4
70
1
43
0.0
10
59.500000000029445
20
257
10
69.500000000029445
20
257
10
69.500000000029303
20
261.19999999999908
10
59.500000000029338
20
261.19999999999879
0
CIRCLE
5
111
100
AcDbEntity
8
INTERIOR_PROFILES
100
AcDbCircle
10
-307.30500000003303
20
87.357142857142918
30
0
40
1.25
210
0
220
0
230
-1
0
LWPOLYLINE
5
112
100
AcDbEntity
8
INTERIOR_PROFILES
100
AcDbPolyline
90
4
70
1
43
0.0
10
0.30000000003299832
20
92.357142857142875
10
4.5000000000329976
20
92.357142857142875
10
4.5000000000329976
20
102.35714285714288
10
0.30000000003299832
20
102.35714285714288
0
CIRCLE
5
113
100
AcDbEntity
8
INTERIOR_PROFILES
100
AcDbCircle
10
-307.30500000003303
20
132.00000000000006
30
0
40
1.25
210
0
220
0
230
-1
0
LWPOLYLINE
5
114
100
AcDbEntity
8
INTERIOR_PROFILES
100
AcDbPolyline
90
4
70
1
43
0.0
10
304.50000000003297
20
137.00000000000006
10
308.70000000003301
20
137.00000000000006
10
308.70000000003301
20
147.00000000000006
10
304.50000000003297
20
147.00000000000006
0
CIRCLE
5
115
100
AcDbEntity
8
INTERIOR_PROFILES
100
AcDbCircle
10
-1.6950000000330157
20
132
30
0
40
1.25
210
0
220
0
230
-1
0
LWPOLYLINE
5
116
100
AcDbEntity
8
INTERIOR_PROFILES
100
AcDbPolyline
90
4
70
1
43
0.0
10
0.30000000003301608
20
181.64285714285714
10
4.5000000000330154
20
181.64285714285714
10
4.5000000000330154
20
191.64285714285714
10
0.30000000003301608
20
191.64285714285714
0
CIRCLE
5
117
100
AcDbEntity
8
INTERIOR_PROFILES
100
AcDbCircle
10
-1.6950000000330157
20
221.28571428571431
30
0
40
1.25
210
0
220
0
230
-1
0
LWPOLYLINE
5
118
100
AcDbEntity
8
INTERIOR_PROFILES
100
AcDbPolyline
90
4
70
1
43
0.0
10
304.50000000003303
20
216.28571428571433
10
304.50000000003303
20
206.28571428571433
10
308.70000000003307
20
206.28571428571433
10
308.70000000003307
20
216.28571428571433
0
LWPOLYLINE
5
119
100
AcDbEntity
8
INTERIOR_PROFILES
100
AcDbPolyline
90
4
70
1
43
0.0
10
4.5000000000330154
20
171.64285714285714
10
0.30000000003301608
20
171.64285714285714
10
0.30000000003301608
20
161.64285714285714
10
4.5000000000330154
20
161.64285714285714
0
LWPOLYLINE
5
120
100
AcDbEntity
8
INTERIOR_PROFILES
100
AcDbPolyline
90
4
70
1
43
0.0
10
0.30000000003301608
20
216.28571428571431
10
0.30000000003301608
20
206.28571428571431
10
4.5000000000330154
20
206.28571428571431
10
4.5000000000330154
20
216.28571428571431
0
LWPOLYLINE
5
121
100
AcDbEntity
8
INTERIOR_PROFILES
100
AcDbPolyline
90
4
70
1
43
0.0
10
308.70000000003307
20
161.64285714285717
10
308.70000000003307
20
171.64285714285717
10
304.50000000003303
20
171.64285714285717
10
304.50000000003303
20
161.64285714285717
0
LWPOLYLINE
5
122
100
AcDbEntity
8
INTERIOR_PROFILES
100
AcDbPolyline
90
4
70
1
43
0.0
10
304.50000000003303
20
226.28571428571433
10
308.70000000003307
20
226.28571428571433
10
308.70000000003307
20
236.28571428571433
10
304.50000000003303
20
236.28571428571433
0
LWPOLYLINE
5
123
100
AcDbEntity
8
INTERIOR_PROFILES
100
AcDbPolyline
90
4
70
1
43
0.0
10
0.30000000003301608
20
236.28571428571431
10
0.30000000003301608
20
226.28571428571431
10
4.5000000000330154
20
226.28571428571431
10
4.5000000000330154
20
236.28571428571431
0
CIRCLE
5
124
100
AcDbEntity
8
INTERIOR_PROFILES
100
AcDbCircle
10
-307.30500000003309
20
221.28571428571433
30
0
40
1.25
210
0
220
0
230
-1
0
CIRCLE
5
125
100
AcDbEntity
8
INTERIOR_PROFILES
100
AcDbCircle
10
-307.30500000003309
20
176.64285714285717
30
0
40
1.25
210
0
220
0
230
-1
0
LWPOLYLINE
5
126
100
AcDbEntity
8
INTERIOR_PROFILES
100
AcDbPolyline
90
4
70
1
43
0.0
10
126.166666666696
20
261.19999999999879
10
126.1666666666961
20
257
10
136.1666666666961
20
257
10
136.16666666669596
20
261.19999999999908
0
CIRCLE
5
127
100
AcDbEntity
8
INTERIOR_PROFILES
100
AcDbCircle
10
-54.500000000029374
20
259.80499999999864
30
0
40
1.25
210
0
220
0
230
-1
0
LWPOLYLINE
5
128
100
AcDbEntity
8
INTERIOR_PROFILES
100
AcDbPolyline
90
4
70
1
43
0.0
10
39.500000000032998
20
7.0000000000000284
10
39.500000000032998
20
2.8000000000000114
10
49.500000000032998
20
2.8000000000000114
10
49.500000000032998
20
7.0000000000000284
0
LWPOLYLINE
5
129
100
AcDbEntity
8
INTERIOR_PROFILES
100
AcDbPolyline
90
4
70
1
43
0.0
10
69.500000000032998
20
7.0000000000000284
10
59.500000000032998
20
7.0000000000000284
10
59.500000000032998
20
2.8000000000000114
10
69.500000000032998
20
2.8000000000000114
0
CIRCLE
5
130
100
AcDbEntity
8
INTERIOR_PROFILES
100
AcDbCircle
10
-54.500000000032998
20
4.1950000000000287
30
0
40
1.25
210
0
220
0
230
-1
0
LWPOLYLINE
5
131
100
AcDbEntity
8
INTERIOR_PROFILES
100
AcDbPolyline
90
4
70
1
43
0.0
10
39.500000000036692
20
261.19999999999669
10
39.50000000003655
20
256.99999999999909
10
49.50000000003655
20
256.99999999999881
10
49.500000000036657
20
261.19999999999879
0
LWPOLYLINE
5
132
100
AcDbEntity
8
INTERIOR_PROFILES
100
AcDbPolyline
90
4
70
1
43
0.0
10
202.83333333336276
20
257
10
202.83333333336262
20
261.19999999999908
10
192.83333333336265
20
261.19999999999879
10
192.83333333336276
20
257
0
LWPOLYLINE
5
133
100
AcDbEntity
8
INTERIOR_PROFILES
100
AcDbPolyline
90
4
70
1
43
0.0
10
106.16666666670321
20
256.99999999999909
10
116.16666666670321
20
256.99999999999881
10
116.16666666670332
20
261.19999999999879
10
106.16666666670335
20
261.19999999999669
0
LWPOLYLINE
5
134
100
AcDbEntity
8
INTERIOR_PROFILES
100
AcDbPolyline
90
4
70
1
43
0.0
10
136.16666666669965
20
2.8000000000000114
10
136.16666666669965
20
7.0000000000000284
10
126.16666666669965
20
7.0000000000000284
10
126.16666666669965
20
2.8000000000000114
0
LWPOLYLINE
5
135
100
AcDbEntity
8
INTERIOR_PROFILES
100
AcDbPolyline
90
4
70
1
43
0.0
10
116.16666666669965
20
2.8000000000000114
10
116.16666666669965
20
7.0000000000000284
10
106.16666666669965
20
7.0000000000000284
10
106.16666666669965
20
2.8000000000000114
0
LWPOLYLINE
5
136
100
AcDbEntity
8
INTERIOR_PROFILES
100
AcDbPolyline
90
4
70
1
43
0.0
10
202.83333333336631
20
7.0000000000000284
10
192.83333333336631
20
7.0000000000000284
10
192.83333333336631
20
2.8000000000000114
10
202.83333333336631
20
2.8000000000000114
0
CIRCLE
5
137
100
AcDbEntity
8
INTERIOR_PROFILES
100
AcDbCircle
10
-121.16666666669603
20
259.80499999999864
30
0
40
1.25
210
0
220
0
230
-1
0
CIRCLE
5
138
100
AcDbEntity
8
INTERIOR_PROFILES
100
AcDbCircle
10
-121.16666666669965
20
4.1950000000000287
30
0
40
1.25
210
0
220
0
230
-1
0
LWPOLYLINE
5
139
100
AcDbEntity
8
INTERIOR_PROFILES
100
AcDbPolyline
90
4
70
1
43
0.0
10
182.83333333336998
20
261.19999999999879
10
172.83333333337001
20
261.19999999999669
10
172.83333333336986
20
256.99999999999909
10
182.83333333336986
20
256.99999999999881
0
CIRCLE
5
140
100
AcDbEntity
8
INTERIOR_PROFILES
100
AcDbCircle
10
-187.83333333336631
20
4.1950000000000287
30
0
40
1.25
210
0
220
0
230
-1
0
LWPOLYLINE
5
141
100
AcDbEntity
8
INTERIOR_PROFILES
100
AcDbPolyline
90
4
70
1
43
0.0
10
4.5000000000329976
20
47.714285714285722
10
4.5000000000329976
20
57.714285714285722
10
0.30000000003299832
20
57.714285714285722
10
0.30000000003299832
20
47.714285714285722
0
LWPOLYLINE
5
142
100
AcDbEntity
8
INTERIOR_PROFILES
100
AcDbPolyline
90
4
70
1
43
0.0
10
308.70000000003301
20
27.714285714285758
10
308.70000000003301
20
37.714285714285758
10
304.50000000003297
20
37.714285714285758
10
304.50000000003297
20
27.714285714285758
0
LWPOLYLINE
5
143
100
AcDbEntity
8
INTERIOR_PROFILES
100
AcDbPolyline
90
4
70
1
43
0.0
10
182.83333333336631
20
7.0000000000000284
10
172.83333333336631
20
7.0000000000000284
10
172.83333333336631
20
2.8000000000000114
10
182.83333333336631
20
2.8000000000000114
0
LWPOLYLINE
5
144
100
AcDbEntity
8
INTERIOR_PROFILES
100
AcDbPolyline
90
4
70
1
43
0.0
10
4.5000000000329976
20
27.714285714285722
10
4.5000000000329976
20
37.714285714285722
10
0.30000000003299832
20
37.714285714285722
10
0.30000000003299832
20
27.714285714285722
0
CIRCLE
5
145
100
AcDbEntity
8
INTERIOR_PROFILES
100
AcDbCircle
10
-187.8333333333627
20
259.80499999999864
30
0
40
1.25
210
0
220
0
230
-1
0
LWPOLYLINE
5
146
100
AcDbEntity
8
INTERIOR_PROFILES
100
AcDbPolyline
90
4
70
1
43
0.0
10
259.50000000002944
20
257
10
269.50000000002944
20
257
10
269.50000000002933
20
261.19999999999908
10
259.50000000002933
20
261.19999999999879
0
LWPOLYLINE
5
147
100
AcDbEntity
8
INTERIOR_PROFILES
100
AcDbPolyline
90
4
70
1
43
0.0
10
259.50000000003297
20
7.0000000000000284
10
259.50000000003297
20
2.8000000000000114
10
269.50000000003297
20
2.8000000000000114
10
269.50000000003297
20
7.0000000000000284
0
LWPOLYLINE
5
148
100
AcDbEntity
8
INTERIOR_PROFILES
100
AcDbPolyline
90
4
70
1
43
0.0
10
304.50000000003297
20
47.714285714285758
10
308.70000000003301
20
47.714285714285758
10
308.70000000003301
20
57.714285714285758
10
304.50000000003297
20
57.714285714285758
0
CIRCLE
5
149
100
AcDbEntity
8
INTERIOR_PROFILES
100
AcDbCircle
10
-307.30500000003303
20
42.714285714285758
30
0
40
1.25
210
0
220
0
230
-1
0
CIRCLE
5
150
100
AcDbEntity
8
INTERIOR_PROFILES
100
AcDbCircle
10
-1.6950000000329979
20
42.714285714285722
30
0
40
1.25
210
0
220
0
230
-1
0
LWPOLYLINE
5
151
100
AcDbEntity
8
INTERIOR_PROFILES
100
AcDbPolyline
90
4
70
1
43
0.0
10
249.500000000033
20
2.8000000000000114
10
249.500000000033
20
7.0000000000000284
10
239.500000000033
20
7.0000000000000284
10
239.500000000033
20
2.8000000000000114
0
LWPOLYLINE
5
152
100
AcDbEntity
8
INTERIOR_PROFILES
100
AcDbPolyline
90
4
70
1
43
0.0
10
249.50000000003666
20
261.19999999999879
10
239.50000000003669
20
261.19999999999669
10
239.50000000003655
20
256.99999999999909
10
249.50000000003655
20
256.99999999999881
0
CIRCLE
5
153
100
AcDbEntity
8
INTERIOR_PROFILES
100
AcDbCircle
10
-254.500000000033
20
4.1950000000000287
30
0
40
1.25
210
0
220
0
230
-1
0
CIRCLE
5
154
100
AcDbEntity
8
INTERIOR_PROFILES
100
AcDbCircle
10
-254.50000000002939
20
259.80499999999864
30
0
40
1.25
210
0
220
0
230
-1
0
ENDSEC
0
SECTION
2
OBJECTS
0
DICTIONARY
5
C
100
AcDbDictionary
3
ACAD_GROUP
350
D
3
ACAD_MLINESTYLE
350
17
0
DICTIONARY
5
D
100
AcDbDictionary
0
DICTIONARY
5
1A
330
C
100
AcDbDictionary
0
DICTIONARY
5
17
100
AcDbDictionary
0
ENDSEC
0
EOF
