0
SECTION
2
HEADER
9
$INSUNITS
70
4
9
$ACADVER
1
AC1014
9
$HANDSEED
5
FFFF
0
ENDSEC
0
SECTION
2
TABLES
0
TABLE
2
VPORT
5
8
100
AcDbSymbolTable
0
ENDTAB
0
TABLE
2
LTYPE
5
5
100
AcDbSymbolTable
0
LTYPE
5
14
100
AcDbSymbolTableRecord
100
AcDbLinetypeTableRecord
2
BYBLOCK
70
0
0
LTYPE
5
15
100
AcDbSymbolTableRecord
100
AcDbLinetypeTableRecord
2
BYLAYER
70
0
0
LTYPE
5
16
100
AcDbSymbolTableRecord
100
AcDbLinetypeTableRecord
2
DASHED
70
0
3
Dashed __ __ __ __ __ __ __ __ __ __ __ __ __ _
72
65
73
2
40
0.75
49
0.5
74
0
49
-0.25
74
0
0
ENDTAB
0
TABLE
2
LAYER
5
2
100
AcDbSymbolTable
70
2
0
LAYER
5
50
100
AcDbSymbolTableRecord
100
AcDbLayerTableRecord
2
0
70
0
62
7
6
CONTINUOUS
0
ENDTAB
0
TABLE
2
STYLE
5
3
100
AcDbSymbolTable
70
1
0
STYLE
5
11
100
AcDbSymbolTableRecord
100
AcDbTextStyleTableRecord
2
STANDARD
70
0
0
ENDTAB
0
TABLE
2
VIEW
5
6
100
AcDbSymbolTable
70
0
0
ENDTAB
0
TABLE
2
UCS
5
7
100
AcDbSymbolTable
70
0
0
ENDTAB
0
TABLE
2
APPID
5
9
100
AcDbSymbolTable
70
2
0
APPID
5
12
100
AcDbSymbolTableRecord
100
AcDbRegAppTableRecord
2
ACAD
70
0
0
ENDTAB
0
TABLE
2
DIMSTYLE
5
A
100
AcDbSymbolTable
70
1
0
ENDTAB
0
TABLE
2
BLOCK_RECORD
5
1
100
AcDbSymbolTable
70
1
0
BLOCK_RECORD
5
1F
100
AcDbSymbolTableRecord
100
AcDbBlockTableRecord
2
*MODEL_SPACE
0
BLOCK_RECORD
5
1B
100
AcDbSymbolTableRecord
100
AcDbBlockTableRecord
2
*PAPER_SPACE
0
ENDTAB
0
ENDSEC
0
SECTION
2
BLOCKS
0
BLOCK
5
20
100
AcDbEntity
100
AcDbBlockBegin
2
*MODEL_SPACE
0
ENDBLK
5
21
100
AcDbEntity
100
AcDbBlockEnd
0
BLOCK
5
1C
100
AcDbEntity
100
AcDbBlockBegin
2
*PAPER_SPACE
0
ENDBLK
5
1D
100
AcDbEntity
100
AcDbBlockEnd
0
ENDSEC
0
SECTION
2
ENTITIES
0
LWPOLYLINE
5
100
100
AcDbEntity
8
OUTER_PROFILES
100
AcDbPolyline
90
84
70
1
43
0.0
10
-7.0049521738724252e-12
20
71.750000000005585
10
-4.0000000000076836
20
71.750000000005159
10
-4.0000000000060938
20
62.250000000005159
10
-6.0895732900689836e-12
20
62.25000000000567
10
-5.7243099149673071e-12
20
58.659000000005662
10
3.8529999999942843
20
58.65900000000606
10
3.8529999999940627
20
60.050000000006051
10
5.8529999999940374
20
60.050000000006563
10
5.8529999999943305
20
58.659000000006252
10
6.852999999994327
20
58.659000000006351
10
6.8529999999973175
20
55.341000000006353
10
5.852999999997321
20
55.341000000004641
10
5.852999999999887
20
53.95000000000433
10
3.8529999999998941
20
53.950000000001239
10
3.8529999999976834
20
55.34100000000123
10
-2.3253621250773904e-12
20
55.340999999994679
10
3.4044989050130425e-12
20
51.749999999994657
10
-3.9999999999965992
20
51.749999999987949
10
-3.9999999999807274
20
42.249999999987949
10
2.0004553569208383e-11
20
42.249999999994756
10
0
20
0
10
100
20
-8.8817841970012523e-15
10
100.00000000005754
20
42.250000000111676
10
104.00000000005821
20
42.250000000114227
10
104.00000000005153
20
51.750000000114213
10
100.00000000005156
20
51.750000000111569
10
100.0000000000493
20
55.341000000111571
10
96.147000000049289
20
55.341000000109133
10
96.147000000050213
20
53.950000000109142
10
94.147000000050241
20
53.950000000107565
10
94.147000000049246
20
55.341000000107876
10
93.147000000049246
20
55.341000000107243
10
93.147000000046233
20
58.659000000061226
10
94.147000000046233
20
58.659000000062392
10
94.147000000044741
20
60.050000000062703
10
96.147000000044727
20
60.050000000064749
10
96.14700000004629
20
58.659000000064736
10
99.999999999994287
20
58.659000000069248
10
99.999999999993904
20
62.250000000069249
10
104.00000000004206
20
62.25000000007384
10
104.0000000000316
20
71.75000000007384
10
99.999999999993008
20
71.750000000069178
10
100.00000000004776
20
142.25000000011167
10
104.00000000004844
20
142.25000000011423
10
104.00000000004175
20
151.7500000001142
10
100.00000000004178
20
151.75000000011158
10
100.00000000003952
20
155.34100000011159
10
96.147000000039512
20
155.34100000010915
10
96.147000000040464
20
153.95000000010916
10
94.147000000040478
20
153.95000000010756
10
94.147000000039469
20
155.3410000001079
10
93.147000000039469
20
155.34100000010724
10
93.147000000036471
20
158.65900000006124
10
94.147000000036471
20
158.65900000006241
10
94.14700000003495
20
160.05000000006271
10
96.14700000003495
20
160.05000000006476
10
96.147000000036513
20
158.65900000006474
10
99.99999999998451
20
158.65900000006926
10
99.999999999984141
20
162.25000000006924
10
104.0000000000323
20
162.25000000007384
10
104.00000000002183
20
171.75000000007384
10
99.999999999983231
20
171.75000000006918
10
99.999999999979096
20
214.00000000000995
10
-2.0907719999740948e-11
20
213.99999999999991
10
-1.6772694344524552e-11
20
171.75000000000557
10
-4.0000000000174509
20
171.75000000000517
10
-4.0000000000158611
20
162.25000000000517
10
-1.5857870572233423e-11
20
162.25000000000566
10
-1.5492607197131747e-11
20
158.65900000000565
10
3.8529999999845161
20
158.65900000000605
10
3.8529999999842945
20
160.05000000000607
10
5.8529999999842701
20
160.05000000000655
10
5.8529999999845614
20
158.65900000000624
10
6.8529999999845597
20
158.65900000000636
10
6.8529999999875315
20
155.34100000000635
10
5.8529999999875351
20
155.34100000000464
10
5.8529999999901179
20
153.95000000000434
10
3.8529999999901259
20
153.95000000000124
10
3.8529999999878974
20
155.34100000000123
10
-1.2111422975635833e-11
20
155.34099999999466
10
-6.3637983771513973e-12
20
151.74999999999466
10
-4.0000000000063682
20
151.74999999998795
10
-3.9999999999904952
20
142.24999999998795
10
1.0236256287043943e-11
20
142.24999999999474
0
LWPOLYLINE
5
101
100
AcDbEntity
8
INTERIOR_PROFILES
100
AcDbPolyline
90
4
70
1
43
0.0
10
44.999999999999702
20
2.8000000000043901
10
44.999999999999318
20
7.000000000004567
10
54.999999999999318
20
7.0000000000055351
10
54.999999999999709
20
2.8000000000053582
0
LWPOLYLINE
5
102
100
AcDbEntity
8
INTERIOR_PROFILES
100
AcDbPolyline
90
4
70
1
43
0.0
10
54.999999999979693
20
211.20000000000556
10
54.999999999979778
20
207.00000000000554
10
44.999999999979778
20
207.00000000000458
10
44.999999999979714
20
211.20000000000456
0
ENDSEC
0
SECTION
2
OBJECTS
0
DICTIONARY
5
C
100
AcDbDictionary
3
ACAD_GROUP
350
D
3
ACAD_MLINESTYLE
350
17
0
DICTIONARY
5
D
100
AcDbDictionary
0
DICTIONARY
5
1A
330
C
100
AcDbDictionary
0
DICTIONARY
5
17
100
AcDbDictionary
0
ENDSEC
0
EOF
