0
SECTION
2
HEADER
9
$INSUNITS
70
4
9
$ACADVER
1
AC1014
9
$HANDSEED
5
FFFF
0
ENDSEC
0
SECTION
2
TABLES
0
TABLE
2
VPORT
5
8
100
AcDbSymbolTable
0
ENDTAB
0
TABLE
2
LTYPE
5
5
100
AcDbSymbolTable
0
LTYPE
5
14
100
AcDbSymbolTableRecord
100
AcDbLinetypeTableRecord
2
BYBLOCK
70
0
0
LTYPE
5
15
100
AcDbSymbolTableRecord
100
AcDbLinetypeTableRecord
2
BYLAYER
70
0
0
LTYPE
5
16
100
AcDbSymbolTableRecord
100
AcDbLinetypeTableRecord
2
DASHED
70
0
3
Dashed __ __ __ __ __ __ __ __ __ __ __ __ __ _
72
65
73
2
40
0.75
49
0.5
74
0
49
-0.25
74
0
0
ENDTAB
0
TABLE
2
LAYER
5
2
100
AcDbSymbolTable
70
2
0
LAYER
5
50
100
AcDbSymbolTableRecord
100
AcDbLayerTableRecord
2
0
70
0
62
7
6
CONTINUOUS
0
ENDTAB
0
TABLE
2
STYLE
5
3
100
AcDbSymbolTable
70
1
0
STYLE
5
11
100
AcDbSymbolTableRecord
100
AcDbTextStyleTableRecord
2
STANDARD
70
0
0
ENDTAB
0
TABLE
2
VIEW
5
6
100
AcDbSymbolTable
70
0
0
ENDTAB
0
TABLE
2
UCS
5
7
100
AcDbSymbolTable
70
0
0
ENDTAB
0
TABLE
2
APPID
5
9
100
AcDbSymbolTable
70
2
0
APPID
5
12
100
AcDbSymbolTableRecord
100
AcDbRegAppTableRecord
2
ACAD
70
0
0
ENDTAB
0
TABLE
2
DIMSTYLE
5
A
100
AcDbSymbolTable
70
1
0
ENDTAB
0
TABLE
2
BLOCK_RECORD
5
1
100
AcDbSymbolTable
70
1
0
BLOCK_RECORD
5
1F
100
AcDbSymbolTableRecord
100
AcDbBlockTableRecord
2
*MODEL_SPACE
0
BLOCK_RECORD
5
1B
100
AcDbSymbolTableRecord
100
AcDbBlockTableRecord
2
*PAPER_SPACE
0
ENDTAB
0
ENDSEC
0
SECTION
2
BLOCKS
0
BLOCK
5
20
100
AcDbEntity
100
AcDbBlockBegin
2
*MODEL_SPACE
0
ENDBLK
5
21
100
AcDbEntity
100
AcDbBlockEnd
0
BLOCK
5
1C
100
AcDbEntity
100
AcDbBlockBegin
2
*PAPER_SPACE
0
ENDBLK
5
1D
100
AcDbEntity
100
AcDbBlockEnd
0
ENDSEC
0
SECTION
2
ENTITIES
0
LWPOLYLINE
5
100
100
AcDbEntity
8
OUTER_PROFILES
100
AcDbPolyline
90
132
70
1
43
0.0
10
-16.409000000000233
20
100
10
-20.000000000000249
20
100
10
-20.000000000000249
20
104
10
-29.500000000000206
20
103.99999999999287
10
-29.50000000000049
20
100
10
-94.750000000000227
20
100
10
-94.750000000000227
20
54.750000000003212
10
-98.749999999935653
20
54.750000000003212
10
-98.750000000000227
20
45.249999999996795
10
-94.750000000000227
20
45.249999999996795
10
-94.750000000000227
20
0
10
-29.50000000000049
20
0
10
-29.500000000000206
20
-3.9999999999928626
10
-20.000000000000249
20
-4.0000000000000036
10
-20.000000000000249
20
0
10
-16.409000000000233
20
0
10
-16.409000000000233
20
3.8530000000000086
10
-17.800000000000225
20
3.8530000000000086
10
-17.800000000000225
20
5.8530000000000015
10
-16.409000000000233
20
5.8530000000000015
10
-16.409000000000233
20
6.852999999999998
10
-13.091000000000292
20
6.8530000000000157
10
-13.091000000000292
20
5.8530000000000193
10
-11.700000000000301
20
5.8530000000000193
10
-11.700000000000301
20
3.8530000000000264
10
-13.091000000000292
20
3.8530000000000264
10
-13.091000000000292
20
0
10
-9.5000000000002416
20
0
10
-9.5000000000001705
20
-3.9999999999999503
10
-2.1316282072803006e-13
20
-3.9999999999927027
10
0
20
0
10
90.499999999999517
20
0
10
90.499999999999801
20
-3.9999999999928626
10
99.999999999999744
20
-4.0000000000000036
10
99.999999999999744
20
0
10
103.59099999999977
20
0
10
103.59099999999977
20
3.8530000000000086
10
102.19999999999978
20
3.8530000000000086
10
102.19999999999978
20
5.8530000000000015
10
103.59099999999977
20
5.8530000000000015
10
103.59099999999977
20
6.852999999999998
10
106.90899999999971
20
6.8530000000000157
10
106.90899999999971
20
5.8530000000000193
10
108.2999999999997
20
5.8530000000000193
10
108.2999999999997
20
3.8530000000000264
10
106.90899999999971
20
3.8530000000000264
10
106.90899999999971
20
0
10
110.49999999999976
20
0
10
110.49999999999983
20
-3.9999999999999503
10
119.99999999999979
20
-3.9999999999927027
10
120
20
0
10
210.49999999999952
20
0
10
210.4999999999998
20
-3.9999999999928626
10
219.99999999999974
20
-4.0000000000000036
10
219.99999999999974
20
0
10
223.59099999999978
20
0
10
223.59099999999978
20
3.8530000000000086
10
222.19999999999976
20
3.8530000000000086
10
222.19999999999976
20
5.8530000000000015
10
223.59099999999978
20
5.8530000000000015
10
223.59099999999978
20
6.852999999999998
10
226.90899999999971
20
6.8530000000000157
10
226.90899999999971
20
5.8530000000000193
10
228.2999999999997
20
5.8530000000000193
10
228.2999999999997
20
3.8530000000000264
10
226.90899999999971
20
3.8530000000000264
10
226.90899999999971
20
0
10
230.49999999999977
20
0
10
230.49999999999983
20
-3.9999999999999503
10
239.99999999999977
20
-3.9999999999927027
10
240
20
0
10
305.24999999999977
20
0
10
305.24999999999397
20
45.25000000002558
10
309.24999999999397
20
45.250000000026098
10
309.24999999992821
20
54.750000000026091
10
305.24999999999284
20
54.75000000002558
10
305.24999999999977
20
100
10
240
20
99.999999999999844
10
239.99999999999977
20
103.99999999999341
10
230.49999999999983
20
104.00000000000031
10
230.49999999999977
20
99.999999999999943
10
226.90899999999971
20
99.999999999999986
10
226.90899999999971
20
96.146999999999977
10
228.2999999999997
20
96.146999999999977
10
228.2999999999997
20
94.146999999999977
10
226.90899999999971
20
94.146999999999977
10
226.90899999999971
20
93.146999999999991
10
223.59099999999978
20
93.147000000000006
10
223.59099999999978
20
94.146999999999991
10
222.19999999999976
20
94.146999999999991
10
222.19999999999976
20
96.146999999999991
10
223.59099999999978
20
96.146999999999991
10
223.59099999999978
20
100
10
219.99999999999974
20
100
10
219.99999999999974
20
104
10
210.4999999999998
20
103.99999999999287
10
210.49999999999952
20
100
10
120
20
99.999999999999844
10
119.99999999999979
20
103.99999999999341
10
110.49999999999983
20
104.00000000000031
10
110.49999999999976
20
99.999999999999943
10
106.90899999999971
20
99.999999999999986
10
106.90899999999971
20
96.146999999999977
10
108.2999999999997
20
96.146999999999977
10
108.2999999999997
20
94.146999999999977
10
106.90899999999971
20
94.146999999999977
10
106.90899999999971
20
93.146999999999991
10
103.59099999999977
20
93.147000000000006
10
103.59099999999977
20
94.146999999999991
10
102.19999999999978
20
94.146999999999991
10
102.19999999999978
20
96.146999999999991
10
103.59099999999977
20
96.146999999999991
10
103.59099999999977
20
100
10
99.999999999999744
20
100
10
99.999999999999744
20
104
10
90.499999999999801
20
103.99999999999287
10
90.499999999999517
20
100
10
0
20
99.999999999999844
10
-2.1316282072803006e-13
20
103.99999999999341
10
-9.5000000000001705
20
104.00000000000031
10
-9.5000000000002416
20
99.999999999999943
10
-13.091000000000292
20
99.999999999999986
10
-13.091000000000292
20
96.146999999999977
10
-11.700000000000301
20
96.146999999999977
10
-11.700000000000301
20
94.146999999999977
10
-13.091000000000292
20
94.146999999999977
10
-13.091000000000292
20
93.146999999999991
10
-16.409000000000233
20
93.147000000000006
10
-16.409000000000233
20
94.146999999999991
10
-17.800000000000225
20
94.146999999999991
10
-17.800000000000225
20
96.146999999999991
10
-16.409000000000233
20
96.146999999999991
0
ENDSEC
0
SECTION
2
OBJECTS
0
DICTIONARY
5
C
100
AcDbDictionary
3
ACAD_GROUP
350
D
3
ACAD_MLINESTYLE
350
17
0
DICTIONARY
5
D
100
AcDbDictionary
0
DICTIONARY
5
1A
330
C
100
AcDbDictionary
0
DICTIONARY
5
17
100
AcDbDictionary
0
ENDSEC
0
EOF
