0
SECTION
2
HEADER
9
$INSUNITS
70
4
9
$ACADVER
1
AC1014
9
$HANDSEED
5
FFFF
0
ENDSEC
0
SECTION
2
TABLES
0
TABLE
2
VPORT
5
8
100
AcDbSymbolTable
0
ENDTAB
0
TABLE
2
LTYPE
5
5
100
AcDbSymbolTable
0
LTYPE
5
14
100
AcDbSymbolTableRecord
100
AcDbLinetypeTableRecord
2
BYBLOCK
70
0
0
LTYPE
5
15
100
AcDbSymbolTableRecord
100
AcDbLinetypeTableRecord
2
BYLAYER
70
0
0
LTYPE
5
16
100
AcDbSymbolTableRecord
100
AcDbLinetypeTableRecord
2
DASHED
70
0
3
Dashed __ __ __ __ __ __ __ __ __ __ __ __ __ _
72
65
73
2
40
0.75
49
0.5
74
0
49
-0.25
74
0
0
ENDTAB
0
TABLE
2
LAYER
5
2
100
AcDbSymbolTable
70
2
0
LAYER
5
50
100
AcDbSymbolTableRecord
100
AcDbLayerTableRecord
2
0
70
0
62
7
6
CONTINUOUS
0
ENDTAB
0
TABLE
2
STYLE
5
3
100
AcDbSymbolTable
70
1
0
STYLE
5
11
100
AcDbSymbolTableRecord
100
AcDbTextStyleTableRecord
2
STANDARD
70
0
0
ENDTAB
0
TABLE
2
VIEW
5
6
100
AcDbSymbolTable
70
0
0
ENDTAB
0
TABLE
2
UCS
5
7
100
AcDbSymbolTable
70
0
0
ENDTAB
0
TABLE
2
APPID
5
9
100
AcDbSymbolTable
70
2
0
APPID
5
12
100
AcDbSymbolTableRecord
100
AcDbRegAppTableRecord
2
ACAD
70
0
0
ENDTAB
0
TABLE
2
DIMSTYLE
5
A
100
AcDbSymbolTable
70
1
0
ENDTAB
0
TABLE
2
BLOCK_RECORD
5
1
100
AcDbSymbolTable
70
1
0
BLOCK_RECORD
5
1F
100
AcDbSymbolTableRecord
100
AcDbBlockTableRecord
2
*MODEL_SPACE
0
BLOCK_RECORD
5
1B
100
AcDbSymbolTableRecord
100
AcDbBlockTableRecord
2
*PAPER_SPACE
0
ENDTAB
0
ENDSEC
0
SECTION
2
BLOCKS
0
BLOCK
5
20
100
AcDbEntity
100
AcDbBlockBegin
2
*MODEL_SPACE
0
ENDBLK
5
21
100
AcDbEntity
100
AcDbBlockEnd
0
BLOCK
5
1C
100
AcDbEntity
100
AcDbBlockBegin
2
*PAPER_SPACE
0
ENDBLK
5
1D
100
AcDbEntity
100
AcDbBlockEnd
0
ENDSEC
0
SECTION
2
ENTITIES
0
LWPOLYLINE
5
100
100
AcDbEntity
8
OUTER_PROFILES
100
AcDbPolyline
90
8
70
1
43
0.0
10
409.00000000013404
20
0
42
0.41421356237309293
10
411.49999999999875
20
2.4999999998646771
10
411.49999999999875
20
211.49999999989828
42
0.41421356237309503
10
408.99999999999932
20
213.99999999989771
10
4.5924254968025779e-16
20
213.99999999989771
42
0.41421356237309404
10
-2.4999999999999911
20
211.49999999989771
10
-2.4999999999999769
20
2.5000000000000004
42
0.41421356237309198
10
0
20
-3.3306690738754696e-15
0
LWPOLYLINE
5
101
100
AcDbEntity
8
INTERIOR_PROFILES
100
AcDbPolyline
90
4
70
1
43
0.0
10
404.49999999999875
20
171.99999999989768
10
404.49999999999875
20
161.99999999989768
10
408.69999999999879
20
161.99999999989768
10
408.69999999999879
20
171.99999999989768
0
LWPOLYLINE
5
102
100
AcDbEntity
8
INTERIOR_PROFILES
100
AcDbPolyline
90
4
70
1
43
0.0
10
0.29999999999972715
20
171.99999999989186
10
0.30000000000001137
20
161.99999999989188
10
4.4999999999987494
20
161.999999999892
10
4.4999999999987494
20
171.999999999892
0
LWPOLYLINE
5
103
100
AcDbEntity
8
INTERIOR_PROFILES
100
AcDbPolyline
90
4
70
1
43
0.0
10
408.69999999999879
20
151.99999999989768
10
404.49999999999875
20
151.99999999989768
10
404.49999999999875
20
141.99999999989768
10
408.69999999999879
20
141.99999999989768
0
CIRCLE
5
104
100
AcDbEntity
8
INTERIOR_PROFILES
100
AcDbCircle
10
-1.6950000000001353
20
156.99999999989191
30
0
40
1.25
210
0
220
0
230
-1
0
CIRCLE
5
105
100
AcDbEntity
8
INTERIOR_PROFILES
100
AcDbCircle
10
-407.30499999999881
20
156.99999999989768
30
0
40
1.25
210
0
220
0
230
-1
0
LWPOLYLINE
5
106
100
AcDbEntity
8
INTERIOR_PROFILES
100
AcDbPolyline
90
4
70
1
43
0.0
10
0.29999999999972715
20
141.99999999990348
10
4.4999999999997442
20
141.99999999990337
10
4.5000000000000284
20
151.99999999990337
10
0.30000000000001137
20
151.99999999990348
0
LWPOLYLINE
5
107
100
AcDbEntity
8
INTERIOR_PROFILES
100
AcDbPolyline
90
4
70
1
43
0.0
10
199.49999999999875
20
211.1999999998977
10
189.49999999999875
20
211.1999999998977
10
189.49999999999875
20
206.99999999989768
10
199.49999999999875
20
206.99999999989768
0
LWPOLYLINE
5
108
100
AcDbEntity
8
INTERIOR_PROFILES
100
AcDbPolyline
90
4
70
1
43
0.0
10
4.4999999999987494
20
61.99999999989199
10
4.4999999999987494
20
71.999999999891998
10
0.29999999999972715
20
71.99999999989187
10
0.30000000000001137
20
61.999999999891877
0
LWPOLYLINE
5
109
100
AcDbEntity
8
INTERIOR_PROFILES
100
AcDbPolyline
90
4
70
1
43
0.0
10
408.69999999999879
20
61.999999999897675
10
408.69999999999879
20
71.999999999897682
10
404.49999999999875
20
71.999999999897682
10
404.49999999999875
20
61.999999999897675
0
CIRCLE
5
110
100
AcDbEntity
8
INTERIOR_PROFILES
100
AcDbCircle
10
-204.49999999999875
20
4.1949999998976395
30
0
40
1.25
210
0
220
0
230
-1
0
CIRCLE
5
111
100
AcDbEntity
8
INTERIOR_PROFILES
100
AcDbCircle
10
-1.6950000000001353
20
56.999999999891919
30
0
40
1.25
210
0
220
0
230
-1
0
LWPOLYLINE
5
112
100
AcDbEntity
8
INTERIOR_PROFILES
100
AcDbPolyline
90
4
70
1
43
0.0
10
408.69999999999879
20
41.999999999897675
10
408.69999999999879
20
51.999999999897675
10
404.49999999999875
20
51.999999999897675
10
404.49999999999875
20
41.999999999897675
0
CIRCLE
5
113
100
AcDbEntity
8
INTERIOR_PROFILES
100
AcDbCircle
10
-407.30499999999881
20
56.999999999897675
30
0
40
1.25
210
0
220
0
230
-1
0
LWPOLYLINE
5
114
100
AcDbEntity
8
INTERIOR_PROFILES
100
AcDbPolyline
90
4
70
1
43
0.0
10
319.49999999999875
20
6.9999999998976747
10
309.49999999999875
20
6.9999999998976747
10
309.49999999999875
20
2.7999999998976399
10
319.49999999999875
20
2.7999999998976399
0
LWPOLYLINE
5
115
100
AcDbEntity
8
INTERIOR_PROFILES
100
AcDbPolyline
90
4
70
1
43
0.0
10
329.49999999999875
20
211.1999999998977
10
329.49999999999875
20
206.99999999989768
10
339.49999999999875
20
206.99999999989768
10
339.49999999999875
20
211.1999999998977
0
LWPOLYLINE
5
116
100
AcDbEntity
8
INTERIOR_PROFILES
100
AcDbPolyline
90
4
70
1
43
0.0
10
339.49999999999875
20
6.9999999998976747
10
329.49999999999875
20
6.9999999998976747
10
329.49999999999875
20
2.7999999999999936
10
339.49999999999875
20
2.7999999999999936
0
LWPOLYLINE
5
117
100
AcDbEntity
8
INTERIOR_PROFILES
100
AcDbPolyline
90
4
70
1
43
0.0
10
309.49999999999875
20
211.1999999998977
10
309.49999999999875
20
206.99999999989768
10
319.49999999999875
20
206.99999999989768
10
319.49999999999875
20
211.1999999998977
0
LWPOLYLINE
5
118
100
AcDbEntity
8
INTERIOR_PROFILES
100
AcDbPolyline
90
4
70
1
43
0.0
10
4.4999999999997442
20
41.999999999903359
10
4.5000000000000284
20
51.999999999903359
10
0.30000000000001137
20
51.999999999903473
10
0.29999999999972715
20
41.99999999990348
0
CIRCLE
5
119
100
AcDbEntity
8
INTERIOR_PROFILES
100
AcDbCircle
10
-324.49999999999875
20
209.80499999989772
30
0
40
1.25
210
0
220
0
230
-1
0
CIRCLE
5
120
100
AcDbEntity
8
INTERIOR_PROFILES
100
AcDbCircle
10
-324.49999999999875
20
4.1949999998976395
30
0
40
1.25
210
0
220
0
230
-1
0
LWPOLYLINE
5
121
100
AcDbEntity
8
INTERIOR_PROFILES
100
AcDbPolyline
90
4
70
1
43
0.0
10
209.49999999999875
20
211.1999999998977
10
209.49999999999875
20
206.99999999989768
10
219.49999999999875
20
206.99999999989768
10
219.49999999999875
20
211.1999999998977
0
LWPOLYLINE
5
122
100
AcDbEntity
8
INTERIOR_PROFILES
100
AcDbPolyline
90
4
70
1
43
0.0
10
69.499999999998749
20
6.9999999998976747
10
69.499999999998749
20
2.7999999998976399
10
79.499999999998749
20
2.7999999998976399
10
79.499999999998749
20
6.9999999998976747
0
LWPOLYLINE
5
123
100
AcDbEntity
8
INTERIOR_PROFILES
100
AcDbPolyline
90
4
70
1
43
0.0
10
209.49999999999875
20
6.9999999998976747
10
209.49999999999875
20
2.7999999999999936
10
219.49999999999875
20
2.7999999999999936
10
219.49999999999875
20
6.9999999998976747
0
LWPOLYLINE
5
124
100
AcDbEntity
8
INTERIOR_PROFILES
100
AcDbPolyline
90
4
70
1
43
0.0
10
189.49999999999875
20
6.9999999998976747
10
189.49999999999875
20
2.7999999998976399
10
199.49999999999875
20
2.7999999998976399
10
199.49999999999875
20
6.9999999998976747
0
LWPOLYLINE
5
125
100
AcDbEntity
8
INTERIOR_PROFILES
100
AcDbPolyline
90
4
70
1
43
0.0
10
99.499999999998749
20
206.99999999989768
10
99.499999999998749
20
211.1999999998977
10
89.499999999998749
20
211.1999999998977
10
89.499999999998749
20
206.99999999989768
0
LWPOLYLINE
5
126
100
AcDbEntity
8
INTERIOR_PROFILES
100
AcDbPolyline
90
4
70
1
43
0.0
10
79.499999999998749
20
206.99999999989768
10
79.499999999998749
20
211.1999999998977
10
69.499999999998749
20
211.1999999998977
10
69.499999999998749
20
206.99999999989768
0
LWPOLYLINE
5
127
100
AcDbEntity
8
INTERIOR_PROFILES
100
AcDbPolyline
90
4
70
1
43
0.0
10
99.499999999998749
20
6.9999999998976747
10
89.499999999998749
20
6.9999999998976747
10
89.499999999998749
20
2.7999999999999936
10
99.499999999998749
20
2.7999999999999936
0
CIRCLE
5
128
100
AcDbEntity
8
INTERIOR_PROFILES
100
AcDbCircle
10
-84.499999999998749
20
4.1949999998976395
30
0
40
1.25
210
0
220
0
230
-1
0
CIRCLE
5
129
100
AcDbEntity
8
INTERIOR_PROFILES
100
AcDbCircle
10
-84.499999999998749
20
209.80499999989772
30
0
40
1.25
210
0
220
0
230
-1
0
CIRCLE
5
130
100
AcDbEntity
8
INTERIOR_PROFILES
100
AcDbCircle
10
-204.49999999999875
20
209.80499999989772
30
0
40
1.25
210
0
220
0
230
-1
0
ENDSEC
0
SECTION
2
OBJECTS
0
DICTIONARY
5
C
100
AcDbDictionary
3
ACAD_GROUP
350
D
3
ACAD_MLINESTYLE
350
17
0
DICTIONARY
5
D
100
AcDbDictionary
0
DICTIONARY
5
1A
330
C
100
AcDbDictionary
0
DICTIONARY
5
17
100
AcDbDictionary
0
ENDSEC
0
EOF
