0
SECTION
2
HEADER
9
$INSUNITS
70
4
9
$ACADVER
1
AC1014
9
$HANDSEED
5
FFFF
0
ENDSEC
0
SECTION
2
TABLES
0
TABLE
2
VPORT
5
8
100
AcDbSymbolTable
0
ENDTAB
0
TABLE
2
LTYPE
5
5
100
AcDbSymbolTable
0
LTYPE
5
14
100
AcDbSymbolTableRecord
100
AcDbLinetypeTableRecord
2
BYBLOCK
70
0
0
LTYPE
5
15
100
AcDbSymbolTableRecord
100
AcDbLinetypeTableRecord
2
BYLAYER
70
0
0
LTYPE
5
16
100
AcDbSymbolTableRecord
100
AcDbLinetypeTableRecord
2
DASHED
70
0
3
Dashed __ __ __ __ __ __ __ __ __ __ __ __ __ _
72
65
73
2
40
0.75
49
0.5
74
0
49
-0.25
74
0
0
ENDTAB
0
TABLE
2
LAYER
5
2
100
AcDbSymbolTable
70
2
0
LAYER
5
50
100
AcDbSymbolTableRecord
100
AcDbLayerTableRecord
2
0
70
0
62
7
6
CONTINUOUS
0
ENDTAB
0
TABLE
2
STYLE
5
3
100
AcDbSymbolTable
70
1
0
STYLE
5
11
100
AcDbSymbolTableRecord
100
AcDbTextStyleTableRecord
2
STANDARD
70
0
0
ENDTAB
0
TABLE
2
VIEW
5
6
100
AcDbSymbolTable
70
0
0
ENDTAB
0
TABLE
2
UCS
5
7
100
AcDbSymbolTable
70
0
0
ENDTAB
0
TABLE
2
APPID
5
9
100
AcDbSymbolTable
70
2
0
APPID
5
12
100
AcDbSymbolTableRecord
100
AcDbRegAppTableRecord
2
ACAD
70
0
0
ENDTAB
0
TABLE
2
DIMSTYLE
5
A
100
AcDbSymbolTable
70
1
0
ENDTAB
0
TABLE
2
BLOCK_RECORD
5
1
100
AcDbSymbolTable
70
1
0
BLOCK_RECORD
5
1F
100
AcDbSymbolTableRecord
100
AcDbBlockTableRecord
2
*MODEL_SPACE
0
BLOCK_RECORD
5
1B
100
AcDbSymbolTableRecord
100
AcDbBlockTableRecord
2
*PAPER_SPACE
0
ENDTAB
0
ENDSEC
0
SECTION
2
BLOCKS
0
BLOCK
5
20
100
AcDbEntity
100
AcDbBlockBegin
2
*MODEL_SPACE
0
ENDBLK
5
21
100
AcDbEntity
100
AcDbBlockEnd
0
BLOCK
5
1C
100
AcDbEntity
100
AcDbBlockBegin
2
*PAPER_SPACE
0
ENDBLK
5
1D
100
AcDbEntity
100
AcDbBlockEnd
0
ENDSEC
0
SECTION
2
ENTITIES
0
LWPOLYLINE
5
100
100
AcDbEntity
8
0
100
AcDbPolyline
90
4
70
1
43
0.0
10
-280
20
55
10
-280
20
45
10
-284.20000000000005
20
44.999999999999673
10
-284.20000000000005
20
54.999999999983146
0
LWPOLYLINE
5
101
100
AcDbEntity
8
0
100
AcDbPolyline
90
4
70
1
43
0.0
10
120
20
55
10
124.20000000000017
20
55.000000000000028
10
124.20000000000017
20
45.000000000000014
10
120
20
45
0
LINE
5
102
100
AcDbEntity
8
0
100
AcDbLine
10
127.00000000000995
20
0
30
0
11
127.00000000000017
21
100
31
0
0
LINE
5
103
100
AcDbEntity
8
0
100
AcDbLine
10
-286.99999999999977
20
100
30
0
11
-287
21
0
31
0
0
LINE
5
104
100
AcDbEntity
8
0
100
AcDbLine
10
-185.24999999999463
20
99.999999999976254
30
0
11
-185.24999999998826
21
103.99999999997695
31
0
0
LINE
5
105
100
AcDbEntity
8
0
100
AcDbLine
10
-185.24999999998826
20
103.99999999997695
30
0
11
-194.74999999998826
21
103.99999999999156
31
0
0
LINE
5
106
100
AcDbEntity
8
0
100
AcDbLine
10
-194.74999999998826
20
103.99999999999156
30
0
11
-194.74999999999454
21
99.999999999991545
31
0
0
LINE
5
107
100
AcDbEntity
8
0
100
AcDbLine
10
38.340999999994523
20
100
30
0
11
34.749999999994543
21
100
31
0
0
LINE
5
108
100
AcDbEntity
8
0
100
AcDbLine
10
-198.34099999999452
20
100.00000000012608
30
0
11
-198.34100000000075
21
96.14700000012607
31
0
0
LINE
5
109
100
AcDbEntity
8
0
100
AcDbLine
10
-198.34100000000075
20
96.14700000012607
30
0
11
-196.95000000000078
21
96.147000000125459
31
0
0
LINE
5
110
100
AcDbEntity
8
0
100
AcDbLine
10
-196.95000000000078
20
96.147000000125459
30
0
11
-196.95000000000363
21
94.147000000125459
31
0
0
LINE
5
111
100
AcDbEntity
8
0
100
AcDbLine
10
-196.95000000000363
20
94.147000000125459
30
0
11
-198.34100000000393
21
94.147000000126084
31
0
0
LINE
5
112
100
AcDbEntity
8
0
100
AcDbLine
10
-198.34100000000393
20
94.147000000126084
30
0
11
-198.34100000000552
21
93.147000000126084
31
0
0
LINE
5
113
100
AcDbEntity
8
0
100
AcDbLine
10
-198.34100000000552
20
93.147000000126084
30
0
11
-201.65900000000556
21
93.147000000001427
31
0
0
LINE
5
114
100
AcDbEntity
8
0
100
AcDbLine
10
-201.65900000000556
20
93.147000000001427
30
0
11
-201.65900000000551
21
94.147000000001412
31
0
0
LINE
5
115
100
AcDbEntity
8
0
100
AcDbLine
10
-201.65900000000551
20
94.147000000001412
30
0
11
-203.05000000000581
21
94.14700000002648
31
0
0
LINE
5
116
100
AcDbEntity
8
0
100
AcDbLine
10
-203.05000000000581
20
94.14700000002648
30
0
11
-203.0500000000055
21
96.14700000002648
31
0
0
LINE
5
117
100
AcDbEntity
8
0
100
AcDbLine
10
-203.0500000000055
20
96.14700000002648
30
0
11
-201.65900000000551
21
96.14700000000073
31
0
0
LINE
5
118
100
AcDbEntity
8
0
100
AcDbLine
10
-201.65900000000551
20
96.14700000000073
30
0
11
-201.65900000000548
21
100
31
0
0
LINE
5
119
100
AcDbEntity
8
0
100
AcDbLine
10
-205.25000000000546
20
100
30
0
11
-205.25000000000534
21
104.00000000000003
31
0
0
LINE
5
120
100
AcDbEntity
8
0
100
AcDbLine
10
-205.25000000000534
20
104.00000000000003
30
0
11
-214.75000000000534
21
104.0000000000007
31
0
0
LINE
5
121
100
AcDbEntity
8
0
100
AcDbLine
10
-214.75000000000534
20
104.0000000000007
30
0
11
-214.75000000000537
21
100
31
0
0
LINE
5
122
100
AcDbEntity
8
0
100
AcDbLine
10
-214.75000000005923
20
0
30
0
11
-214.75000000006349
21
-4.0000000000709299
31
0
0
LINE
5
123
100
AcDbEntity
8
0
100
AcDbLine
10
-214.75000000006349
20
-4.0000000000709299
30
0
11
-205.25000000006349
21
-4.0000000000804743
31
0
0
LINE
5
124
100
AcDbEntity
8
0
100
AcDbLine
10
-205.25000000006349
20
-4.0000000000804743
30
0
11
-205.25000000005929
21
0
31
0
0
LINE
5
125
100
AcDbEntity
8
0
100
AcDbLine
10
-201.65900000005931
20
0
30
0
11
-201.65900000005522
21
3.8529999999149398
31
0
0
LINE
5
126
100
AcDbEntity
8
0
100
AcDbLine
10
-201.65900000005522
20
3.8529999999149398
30
0
11
-203.05000000005521
21
3.8529999998906956
31
0
0
LINE
5
127
100
AcDbEntity
8
0
100
AcDbLine
10
-203.05000000005521
20
3.8529999998906956
30
0
11
-203.05000000005333
21
5.8529999998906881
31
0
0
LINE
5
128
100
AcDbEntity
8
0
100
AcDbLine
10
-203.05000000005333
20
5.8529999998906881
30
0
11
-201.65900000005303
21
5.8529999999142577
31
0
0
LINE
5
129
100
AcDbEntity
8
0
100
AcDbLine
10
-201.65900000005303
20
5.8529999999142577
30
0
11
-201.65900000005195
21
6.8529999999142541
31
0
0
LINE
5
130
100
AcDbEntity
8
0
100
AcDbLine
10
-201.65900000005195
20
6.8529999999142541
30
0
11
-198.34100000009806
21
6.8529999999115843
31
0
0
LINE
5
131
100
AcDbEntity
8
0
100
AcDbLine
10
-198.34100000009806
20
6.8529999999115843
30
0
11
-198.34100000009855
21
5.8529999999115878
31
0
0
LINE
5
132
100
AcDbEntity
8
0
100
AcDbLine
10
-198.34100000009855
20
5.8529999999115878
30
0
11
-196.95000000009827
21
5.8529999998857782
31
0
0
LINE
5
133
100
AcDbEntity
8
0
100
AcDbLine
10
-196.95000000009827
20
5.8529999998857782
30
0
11
-196.95000000009964
21
3.8529999998857862
31
0
0
LINE
5
134
100
AcDbEntity
8
0
100
AcDbLine
10
-196.95000000009964
20
3.8529999998857862
30
0
11
-198.3410000000996
21
3.8529999999122695
31
0
0
LINE
5
135
100
AcDbEntity
8
0
100
AcDbLine
10
-198.3410000000996
20
3.8529999999122695
30
0
11
-198.3410000001017
21
-8.6992635317528766e-11
31
0
0
LINE
5
136
100
AcDbEntity
8
0
100
AcDbLine
10
-194.75000000010172
20
-8.8904404968170427e-11
30
0
11
-194.75000000010397
21
-4.0000000000889262
31
0
0
LINE
5
137
100
AcDbEntity
8
0
100
AcDbLine
10
-194.75000000010397
20
-4.0000000000889262
30
0
11
-185.25000000010397
21
-4.0000000000946727
31
0
0
LINE
5
138
100
AcDbEntity
8
0
100
AcDbLine
10
-185.25000000010397
20
-4.0000000000946727
30
0
11
-185.25000000010181
21
-9.3976493253933313e-11
31
0
0
LINE
5
139
100
AcDbEntity
8
0
100
AcDbLine
10
127.00000000000017
20
100
30
0
11
54.750000000005379
21
99.999999999976254
31
0
0
LINE
5
140
100
AcDbEntity
8
0
100
AcDbLine
10
-287
20
0
30
0
11
-214.75000000005923
21
0
31
0
0
LINE
5
141
100
AcDbEntity
8
0
100
AcDbLine
10
-78.340999999994523
20
100.00000000012608
30
0
11
-78.341000000000747
21
96.14700000012607
31
0
0
LINE
5
142
100
AcDbEntity
8
0
100
AcDbLine
10
-78.341000000000747
20
96.14700000012607
30
0
11
-76.950000000000784
21
96.147000000125459
31
0
0
LINE
5
143
100
AcDbEntity
8
0
100
AcDbLine
10
-76.950000000000784
20
96.147000000125459
30
0
11
-76.950000000003627
21
94.147000000125459
31
0
0
LINE
5
144
100
AcDbEntity
8
0
100
AcDbLine
10
-76.950000000003627
20
94.147000000125459
30
0
11
-78.34100000000393
21
94.147000000126084
31
0
0
LINE
5
145
100
AcDbEntity
8
0
100
AcDbLine
10
-78.34100000000393
20
94.147000000126084
30
0
11
-78.341000000005536
21
93.147000000126084
31
0
0
LINE
5
146
100
AcDbEntity
8
0
100
AcDbLine
10
-78.341000000005536
20
93.147000000126084
30
0
11
-81.659000000005548
21
93.147000000001427
31
0
0
LINE
5
147
100
AcDbEntity
8
0
100
AcDbLine
10
-81.659000000005548
20
93.147000000001427
30
0
11
-81.659000000005506
21
94.147000000001412
31
0
0
LINE
5
148
100
AcDbEntity
8
0
100
AcDbLine
10
-81.659000000005506
20
94.147000000001412
30
0
11
-83.050000000005824
21
94.14700000002648
31
0
0
LINE
5
149
100
AcDbEntity
8
0
100
AcDbLine
10
-83.050000000005824
20
94.14700000002648
30
0
11
-83.050000000005497
21
96.14700000002648
31
0
0
LINE
5
150
100
AcDbEntity
8
0
100
AcDbLine
10
-83.050000000005497
20
96.14700000002648
30
0
11
-81.659000000005506
21
96.14700000000073
31
0
0
LINE
5
151
100
AcDbEntity
8
0
100
AcDbLine
10
-81.659000000005506
20
96.14700000000073
30
0
11
-81.659000000005477
21
100
31
0
0
LINE
5
152
100
AcDbEntity
8
0
100
AcDbLine
10
-85.250000000005457
20
100
30
0
11
-85.250000000005343
21
104.00000000000003
31
0
0
LINE
5
153
100
AcDbEntity
8
0
100
AcDbLine
10
-85.250000000005343
20
104.00000000000003
30
0
11
-94.750000000005343
21
104.0000000000007
31
0
0
LINE
5
154
100
AcDbEntity
8
0
100
AcDbLine
10
-94.750000000005343
20
104.0000000000007
30
0
11
-94.750000000005372
21
100
31
0
0
LINE
5
155
100
AcDbEntity
8
0
100
AcDbLine
10
-94.750000000005372
20
100
30
0
11
-185.24999999999463
21
99.999999999976254
31
0
0
LINE
5
156
100
AcDbEntity
8
0
100
AcDbLine
10
-201.65900000000548
20
100
30
0
11
-205.25000000000546
21
100
31
0
0
LINE
5
157
100
AcDbEntity
8
0
100
AcDbLine
10
-214.75000000000537
20
100
30
0
11
-286.99999999999977
21
100
31
0
0
LINE
5
158
100
AcDbEntity
8
0
100
AcDbLine
10
-205.25000000005929
20
0
30
0
11
-201.65900000005931
21
0
31
0
0
LINE
5
159
100
AcDbEntity
8
0
100
AcDbLine
10
-198.3410000001017
20
-8.6992635317528766e-11
30
0
11
-194.75000000010172
21
-8.8904404968170427e-11
31
0
0
LINE
5
160
100
AcDbEntity
8
0
100
AcDbLine
10
-185.25000000010181
20
-9.3976493253933313e-11
30
0
11
-94.750000000059231
21
0
31
0
0
LINE
5
161
100
AcDbEntity
8
0
100
AcDbLine
10
-94.750000000059231
20
0
30
0
11
-94.750000000063494
21
-4.0000000000709299
31
0
0
LINE
5
162
100
AcDbEntity
8
0
100
AcDbLine
10
-94.750000000063494
20
-4.0000000000709299
30
0
11
-85.250000000063508
21
-4.0000000000804743
31
0
0
LINE
5
163
100
AcDbEntity
8
0
100
AcDbLine
10
-85.250000000063508
20
-4.0000000000804743
30
0
11
-85.250000000059288
21
0
31
0
0
LINE
5
164
100
AcDbEntity
8
0
100
AcDbLine
10
-85.250000000059288
20
0
30
0
11
-81.659000000059308
21
0
31
0
0
LINE
5
165
100
AcDbEntity
8
0
100
AcDbLine
10
-81.659000000059308
20
0
30
0
11
-81.659000000055215
21
3.8529999999149398
31
0
0
LINE
5
166
100
AcDbEntity
8
0
100
AcDbLine
10
-81.659000000055215
20
3.8529999999149398
30
0
11
-83.050000000055206
21
3.8529999998906956
31
0
0
LINE
5
167
100
AcDbEntity
8
0
100
AcDbLine
10
-83.050000000055206
20
3.8529999998906956
30
0
11
-83.05000000005333
21
5.8529999998906881
31
0
0
LINE
5
168
100
AcDbEntity
8
0
100
AcDbLine
10
-83.05000000005333
20
5.8529999998906881
30
0
11
-81.659000000053013
21
5.8529999999142577
31
0
0
LINE
5
169
100
AcDbEntity
8
0
100
AcDbLine
10
-81.659000000053013
20
5.8529999999142577
30
0
11
-81.659000000051947
21
6.8529999999142541
31
0
0
LINE
5
170
100
AcDbEntity
8
0
100
AcDbLine
10
-81.659000000051947
20
6.8529999999142541
30
0
11
-78.341000000098049
21
6.8529999999115843
31
0
0
LINE
5
171
100
AcDbEntity
8
0
100
AcDbLine
10
-78.341000000098049
20
6.8529999999115843
30
0
11
-78.341000000098546
21
5.8529999999115878
31
0
0
LINE
5
172
100
AcDbEntity
8
0
100
AcDbLine
10
-78.341000000098546
20
5.8529999999115878
30
0
11
-76.950000000098271
21
5.8529999998857782
31
0
0
LINE
5
173
100
AcDbEntity
8
0
100
AcDbLine
10
-76.950000000098271
20
5.8529999998857782
30
0
11
-76.950000000099621
21
3.8529999998857862
31
0
0
LINE
5
174
100
AcDbEntity
8
0
100
AcDbLine
10
-76.950000000099621
20
3.8529999998857862
30
0
11
-78.341000000099612
21
3.8529999999122695
31
0
0
LINE
5
175
100
AcDbEntity
8
0
100
AcDbLine
10
-78.341000000099612
20
3.8529999999122695
30
0
11
-78.341000000101701
21
-8.6992635317528766e-11
31
0
0
LINE
5
176
100
AcDbEntity
8
0
100
AcDbLine
10
-78.341000000101701
20
-8.6992635317528766e-11
30
0
11
-74.750000000101721
21
-8.8904404968170427e-11
31
0
0
LINE
5
177
100
AcDbEntity
8
0
100
AcDbLine
10
-74.750000000101721
20
-8.8904404968170427e-11
30
0
11
-74.750000000103967
21
-4.0000000000889262
31
0
0
LINE
5
178
100
AcDbEntity
8
0
100
AcDbLine
10
-74.750000000103967
20
-4.0000000000889262
30
0
11
-65.250000000103967
21
-4.0000000000946727
31
0
0
LINE
5
179
100
AcDbEntity
8
0
100
AcDbLine
10
-65.250000000103967
20
-4.0000000000946727
30
0
11
-65.250000000101807
21
-9.3976493253933313e-11
31
0
0
LINE
5
180
100
AcDbEntity
8
0
100
AcDbLine
10
-65.250000000101807
20
-9.3976493253933313e-11
30
0
11
25.249999999940762
21
0
31
0
0
LINE
5
181
100
AcDbEntity
8
0
100
AcDbLine
10
-65.249999999994628
20
99.999999999976254
30
0
11
-65.249999999988262
21
103.99999999997695
31
0
0
LINE
5
182
100
AcDbEntity
8
0
100
AcDbLine
10
-65.249999999988262
20
103.99999999997695
30
0
11
-74.749999999988262
21
103.99999999999156
31
0
0
LINE
5
183
100
AcDbEntity
8
0
100
AcDbLine
10
-74.749999999988262
20
103.99999999999156
30
0
11
-74.749999999994543
21
99.999999999991545
31
0
0
LINE
5
184
100
AcDbEntity
8
0
100
AcDbLine
10
-74.749999999994543
20
99.999999999991545
30
0
11
-78.340999999994523
21
100.00000000012608
31
0
0
LINE
5
185
100
AcDbEntity
8
0
100
AcDbLine
10
41.659000000005477
20
100.00000000012608
30
0
11
41.65899999999926
21
96.14700000012607
31
0
0
LINE
5
186
100
AcDbEntity
8
0
100
AcDbLine
10
41.65899999999926
20
96.14700000012607
30
0
11
43.049999999999216
21
96.147000000125459
31
0
0
LINE
5
187
100
AcDbEntity
8
0
100
AcDbLine
10
43.049999999999216
20
96.147000000125459
30
0
11
43.049999999996373
21
94.147000000125459
31
0
0
LINE
5
188
100
AcDbEntity
8
0
100
AcDbLine
10
43.049999999996373
20
94.147000000125459
30
0
11
41.658999999996063
21
94.147000000126084
31
0
0
LINE
5
189
100
AcDbEntity
8
0
100
AcDbLine
10
41.658999999996063
20
94.147000000126084
30
0
11
41.658999999994464
21
93.147000000126084
31
0
0
LINE
5
190
100
AcDbEntity
8
0
100
AcDbLine
10
41.658999999994464
20
93.147000000126084
30
0
11
38.340999999994452
21
93.147000000001427
31
0
0
LINE
5
191
100
AcDbEntity
8
0
100
AcDbLine
10
38.340999999994452
20
93.147000000001427
30
0
11
38.340999999994487
21
94.147000000001412
31
0
0
LINE
5
192
100
AcDbEntity
8
0
100
AcDbLine
10
38.340999999994487
20
94.147000000001412
30
0
11
36.949999999994176
21
94.14700000002648
31
0
0
LINE
5
193
100
AcDbEntity
8
0
100
AcDbLine
10
36.949999999994176
20
94.14700000002648
30
0
11
36.949999999994496
21
96.14700000002648
31
0
0
LINE
5
194
100
AcDbEntity
8
0
100
AcDbLine
10
36.949999999994496
20
96.14700000002648
30
0
11
38.340999999994487
21
96.14700000000073
31
0
0
LINE
5
195
100
AcDbEntity
8
0
100
AcDbLine
10
38.340999999994487
20
96.14700000000073
30
0
11
38.340999999994523
21
100
31
0
0
LINE
5
196
100
AcDbEntity
8
0
100
AcDbLine
10
34.749999999994543
20
100
30
0
11
34.74999999999465
21
104.00000000000003
31
0
0
LINE
5
197
100
AcDbEntity
8
0
100
AcDbLine
10
34.74999999999465
20
104.00000000000003
30
0
11
25.249999999994657
21
104.0000000000007
31
0
0
LINE
5
198
100
AcDbEntity
8
0
100
AcDbLine
10
25.249999999994657
20
104.0000000000007
30
0
11
25.249999999994621
21
100
31
0
0
LINE
5
199
100
AcDbEntity
8
0
100
AcDbLine
10
25.249999999994621
20
100
30
0
11
-65.249999999994628
21
99.999999999976254
31
0
0
LINE
5
200
100
AcDbEntity
8
0
100
AcDbLine
10
-81.659000000005477
20
100
30
0
11
-85.250000000005457
21
100
31
0
0
LINE
5
201
100
AcDbEntity
8
0
100
AcDbLine
10
25.249999999940762
20
0
30
0
11
25.249999999936499
21
-4.0000000000709299
31
0
0
LINE
5
202
100
AcDbEntity
8
0
100
AcDbLine
10
25.249999999936499
20
-4.0000000000709299
30
0
11
34.749999999936492
21
-4.0000000000804743
31
0
0
LINE
5
203
100
AcDbEntity
8
0
100
AcDbLine
10
34.749999999936492
20
-4.0000000000804743
30
0
11
34.749999999940719
21
0
31
0
0
LINE
5
204
100
AcDbEntity
8
0
100
AcDbLine
10
34.749999999940719
20
0
30
0
11
38.340999999940699
21
0
31
0
0
LINE
5
205
100
AcDbEntity
8
0
100
AcDbLine
10
38.340999999940699
20
0
30
0
11
38.340999999944785
21
3.8529999999149398
31
0
0
LINE
5
206
100
AcDbEntity
8
0
100
AcDbLine
10
38.340999999944785
20
3.8529999999149398
30
0
11
36.949999999944794
21
3.8529999998906956
31
0
0
LINE
5
207
100
AcDbEntity
8
0
100
AcDbLine
10
36.949999999944794
20
3.8529999998906956
30
0
11
36.949999999946677
21
5.8529999998906881
31
0
0
LINE
5
208
100
AcDbEntity
8
0
100
AcDbLine
10
36.949999999946677
20
5.8529999998906881
30
0
11
38.340999999946987
21
5.8529999999142577
31
0
0
LINE
5
209
100
AcDbEntity
8
0
100
AcDbLine
10
38.340999999946987
20
5.8529999999142577
30
0
11
38.340999999948053
21
6.8529999999142541
31
0
0
LINE
5
210
100
AcDbEntity
8
0
100
AcDbLine
10
38.340999999948053
20
6.8529999999142541
30
0
11
41.658999999901951
21
6.8529999999115843
31
0
0
LINE
5
211
100
AcDbEntity
8
0
100
AcDbLine
10
41.658999999901951
20
6.8529999999115843
30
0
11
41.658999999901454
21
5.8529999999115878
31
0
0
LINE
5
212
100
AcDbEntity
8
0
100
AcDbLine
10
41.658999999901454
20
5.8529999999115878
30
0
11
43.049999999901729
21
5.8529999998857782
31
0
0
LINE
5
213
100
AcDbEntity
8
0
100
AcDbLine
10
43.049999999901729
20
5.8529999998857782
30
0
11
43.049999999900379
21
3.8529999998857862
31
0
0
LINE
5
214
100
AcDbEntity
8
0
100
AcDbLine
10
43.049999999900379
20
3.8529999998857862
30
0
11
41.658999999900388
21
3.8529999999122695
31
0
0
LINE
5
215
100
AcDbEntity
8
0
100
AcDbLine
10
41.658999999900388
20
3.8529999999122695
30
0
11
41.658999999898292
21
-8.6992635317528766e-11
31
0
0
LINE
5
216
100
AcDbEntity
8
0
100
AcDbLine
10
41.658999999898292
20
-8.6992635317528766e-11
30
0
11
45.249999999898272
21
-8.8904404968170427e-11
31
0
0
LINE
5
217
100
AcDbEntity
8
0
100
AcDbLine
10
45.249999999898272
20
-8.8904404968170427e-11
30
0
11
45.249999999896033
21
-4.0000000000889262
31
0
0
LINE
5
218
100
AcDbEntity
8
0
100
AcDbLine
10
45.249999999896033
20
-4.0000000000889262
30
0
11
54.749999999896026
21
-4.0000000000946727
31
0
0
LINE
5
219
100
AcDbEntity
8
0
100
AcDbLine
10
54.749999999896026
20
-4.0000000000946727
30
0
11
54.749999999898193
21
-9.3976493253933313e-11
31
0
0
LINE
5
220
100
AcDbEntity
8
0
100
AcDbLine
10
54.749999999898193
20
-9.3976493253933313e-11
30
0
11
127.00000000000995
21
0
31
0
0
LINE
5
221
100
AcDbEntity
8
0
100
AcDbLine
10
54.750000000005379
20
99.999999999976254
30
0
11
54.750000000011738
21
103.99999999997695
31
0
0
LINE
5
222
100
AcDbEntity
8
0
100
AcDbLine
10
54.750000000011738
20
103.99999999997695
30
0
11
45.250000000011745
21
103.99999999999156
31
0
0
LINE
5
223
100
AcDbEntity
8
0
100
AcDbLine
10
45.250000000011745
20
103.99999999999156
30
0
11
45.250000000005457
21
99.999999999991545
31
0
0
LINE
5
224
100
AcDbEntity
8
0
100
AcDbLine
10
45.250000000005457
20
99.999999999991545
30
0
11
41.659000000005477
21
100.00000000012608
31
0
0
LINE
5
225
100
AcDbEntity
8
0
100
AcDbLine
10
-194.74999999999454
20
99.999999999991545
30
0
11
-198.34099999999452
21
100.00000000012608
31
0
0
ENDSEC
0
SECTION
2
OBJECTS
0
DICTIONARY
5
C
100
AcDbDictionary
3
ACAD_GROUP
350
D
3
ACAD_MLINESTYLE
350
17
0
DICTIONARY
5
D
100
AcDbDictionary
0
DICTIONARY
5
1A
330
C
100
AcDbDictionary
0
DICTIONARY
5
17
100
AcDbDictionary
0
ENDSEC
0
EOF
