<?xml version="1.0" encoding="utf-8" ?>
<svg baseProfile="tiny" height="100%" version="1.2" width="100%" xmlns="http://www.w3.org/2000/svg" xmlns:ev="http://www.w3.org/2001/xml-events" xmlns:xlink="http://www.w3.org/1999/xlink"><defs /><polyline fill="none" points="-280.0,-55.0 -280.0,-45.0 -284.2,-45.0 -284.2,-55.0" stroke="rgb(255, 0, 0)" stroke-width="1" /><polyline fill="none" points="120.0,-55.0 124.2,-55.0 124.2,-45.0 120.0,-45.0" stroke="rgb(255, 0, 0)" stroke-width="1" /><line stroke="rgb(255, 0, 0)" stroke-width="1" x1="127.0" x2="127.0" y1="-0.0" y2="-100.0" /><line stroke="rgb(255, 0, 0)" stroke-width="1" x1="-287.0" x2="-287.0" y1="-100.0" y2="-0.0" /><line stroke="rgb(255, 0, 0)" stroke-width="1" x1="-185.25" x2="-185.25" y1="-100.0" y2="-104.0" /><line stroke="rgb(255, 0, 0)" stroke-width="1" x1="-185.25" x2="-194.75" y1="-104.0" y2="-104.0" /><line stroke="rgb(255, 0, 0)" stroke-width="1" x1="-194.75" x2="-194.75" y1="-104.0" y2="-100.0" /><line stroke="rgb(255, 0, 0)" stroke-width="1" x1="38.341" x2="34.75" y1="-100.0" y2="-100.0" /><line stroke="rgb(255, 0, 0)" stroke-width="1" x1="-198.341" x2="-198.341" y1="-100.0" y2="-96.147" /><line stroke="rgb(255, 0, 0)" stroke-width="1" x1="-198.341" x2="-196.95" y1="-96.147" y2="-96.147" /><line stroke="rgb(255, 0, 0)" stroke-width="1" x1="-196.95" x2="-196.95" y1="-96.147" y2="-94.147" /><line stroke="rgb(255, 0, 0)" stroke-width="1" x1="-196.95" x2="-198.341" y1="-94.147" y2="-94.147" /><line stroke="rgb(255, 0, 0)" stroke-width="1" x1="-198.341" x2="-198.341" y1="-94.147" y2="-93.147" /><line stroke="rgb(255, 0, 0)" stroke-width="1" x1="-198.341" x2="-201.659" y1="-93.147" y2="-93.147" /><line stroke="rgb(255, 0, 0)" stroke-width="1" x1="-201.659" x2="-201.659" y1="-93.147" y2="-94.147" /><line stroke="rgb(255, 0, 0)" stroke-width="1" x1="-201.659" x2="-203.05" y1="-94.147" y2="-94.147" /><line stroke="rgb(255, 0, 0)" stroke-width="1" x1="-203.05" x2="-203.05" y1="-94.147" y2="-96.147" /><line stroke="rgb(255, 0, 0)" stroke-width="1" x1="-203.05" x2="-201.659" y1="-96.147" y2="-96.147" /><line stroke="rgb(255, 0, 0)" stroke-width="1" x1="-201.659" x2="-201.659" y1="-96.147" y2="-100.0" /><line stroke="rgb(255, 0, 0)" stroke-width="1" x1="-205.25" x2="-205.25" y1="-100.0" y2="-104.0" /><line stroke="rgb(255, 0, 0)" stroke-width="1" x1="-205.25" x2="-214.75" y1="-104.0" y2="-104.0" /><line stroke="rgb(255, 0, 0)" stroke-width="1" x1="-214.75" x2="-214.75" y1="-104.0" y2="-100.0" /><line stroke="rgb(255, 0, 0)" stroke-width="1" x1="-214.75" x2="-214.75" y1="-0.0" y2="4.0" /><line stroke="rgb(255, 0, 0)" stroke-width="1" x1="-214.75" x2="-205.25" y1="4.0" y2="4.0" /><line stroke="rgb(255, 0, 0)" stroke-width="1" x1="-205.25" x2="-205.25" y1="4.0" y2="-0.0" /><line stroke="rgb(255, 0, 0)" stroke-width="1" x1="-201.659" x2="-201.659" y1="-0.0" y2="-3.853" /><line stroke="rgb(255, 0, 0)" stroke-width="1" x1="-201.659" x2="-203.05" y1="-3.853" y2="-3.853" /><line stroke="rgb(255, 0, 0)" stroke-width="1" x1="-203.05" x2="-203.05" y1="-3.853" y2="-5.853" /><line stroke="rgb(255, 0, 0)" stroke-width="1" x1="-203.05" x2="-201.659" y1="-5.853" y2="-5.853" /><line stroke="rgb(255, 0, 0)" stroke-width="1" x1="-201.659" x2="-201.659" y1="-5.853" y2="-6.853" /><line stroke="rgb(255, 0, 0)" stroke-width="1" x1="-201.659" x2="-198.341" y1="-6.853" y2="-6.853" /><line stroke="rgb(255, 0, 0)" stroke-width="1" x1="-198.341" x2="-198.341" y1="-6.853" y2="-5.853" /><line stroke="rgb(255, 0, 0)" stroke-width="1" x1="-198.341" x2="-196.95" y1="-5.853" y2="-5.853" /><line stroke="rgb(255, 0, 0)" stroke-width="1" x1="-196.95" x2="-196.95" y1="-5.853" y2="-3.853" /><line stroke="rgb(255, 0, 0)" stroke-width="1" x1="-196.95" x2="-198.341" y1="-3.853" y2="-3.853" /><line stroke="rgb(255, 0, 0)" stroke-width="1" x1="-198.341" x2="-198.341" y1="-3.853" y2="0.0" /><line stroke="rgb(255, 0, 0)" stroke-width="1" x1="-194.75" x2="-194.75" y1="0.0" y2="4.0" /><line stroke="rgb(255, 0, 0)" stroke-width="1" x1="-194.75" x2="-185.25" y1="4.0" y2="4.0" /><line stroke="rgb(255, 0, 0)" stroke-width="1" x1="-185.25" x2="-185.25" y1="4.0" y2="0.0" /><line stroke="rgb(255, 0, 0)" stroke-width="1" x1="127.0" x2="54.75" y1="-100.0" y2="-100.0" /><line stroke="rgb(255, 0, 0)" stroke-width="1" x1="-287.0" x2="-214.75" y1="-0.0" y2="-0.0" /><line stroke="rgb(255, 0, 0)" stroke-width="1" x1="-78.341" x2="-78.341" y1="-100.0" y2="-96.147" /><line stroke="rgb(255, 0, 0)" stroke-width="1" x1="-78.341" x2="-76.95" y1="-96.147" y2="-96.147" /><line stroke="rgb(255, 0, 0)" stroke-width="1" x1="-76.95" x2="-76.95" y1="-96.147" y2="-94.147" /><line stroke="rgb(255, 0, 0)" stroke-width="1" x1="-76.95" x2="-78.341" y1="-94.147" y2="-94.147" /><line stroke="rgb(255, 0, 0)" stroke-width="1" x1="-78.341" x2="-78.341" y1="-94.147" y2="-93.147" /><line stroke="rgb(255, 0, 0)" stroke-width="1" x1="-78.341" x2="-81.659" y1="-93.147" y2="-93.147" /><line stroke="rgb(255, 0, 0)" stroke-width="1" x1="-81.659" x2="-81.659" y1="-93.147" y2="-94.147" /><line stroke="rgb(255, 0, 0)" stroke-width="1" x1="-81.659" x2="-83.05" y1="-94.147" y2="-94.147" /><line stroke="rgb(255, 0, 0)" stroke-width="1" x1="-83.05" x2="-83.05" y1="-94.147" y2="-96.147" /><line stroke="rgb(255, 0, 0)" stroke-width="1" x1="-83.05" x2="-81.659" y1="-96.147" y2="-96.147" /><line stroke="rgb(255, 0, 0)" stroke-width="1" x1="-81.659" x2="-81.659" y1="-96.147" y2="-100.0" /><line stroke="rgb(255, 0, 0)" stroke-width="1" x1="-85.25" x2="-85.25" y1="-100.0" y2="-104.0" /><line stroke="rgb(255, 0, 0)" stroke-width="1" x1="-85.25" x2="-94.75" y1="-104.0" y2="-104.0" /><line stroke="rgb(255, 0, 0)" stroke-width="1" x1="-94.75" x2="-94.75" y1="-104.0" y2="-100.0" /><line stroke="rgb(255, 0, 0)" stroke-width="1" x1="-94.75" x2="-185.25" y1="-100.0" y2="-100.0" /><line stroke="rgb(255, 0, 0)" stroke-width="1" x1="-201.659" x2="-205.25" y1="-100.0" y2="-100.0" /><line stroke="rgb(255, 0, 0)" stroke-width="1" x1="-214.75" x2="-287.0" y1="-100.0" y2="-100.0" /><line stroke="rgb(255, 0, 0)" stroke-width="1" x1="-205.25" x2="-201.659" y1="-0.0" y2="-0.0" /><line stroke="rgb(255, 0, 0)" stroke-width="1" x1="-198.341" x2="-194.75" y1="0.0" y2="0.0" /><line stroke="rgb(255, 0, 0)" stroke-width="1" x1="-185.25" x2="-94.75" y1="0.0" y2="-0.0" /><line stroke="rgb(255, 0, 0)" stroke-width="1" x1="-94.75" x2="-94.75" y1="-0.0" y2="4.0" /><line stroke="rgb(255, 0, 0)" stroke-width="1" x1="-94.75" x2="-85.25" y1="4.0" y2="4.0" /><line stroke="rgb(255, 0, 0)" stroke-width="1" x1="-85.25" x2="-85.25" y1="4.0" y2="-0.0" /><line stroke="rgb(255, 0, 0)" stroke-width="1" x1="-85.25" x2="-81.659" y1="-0.0" y2="-0.0" /><line stroke="rgb(255, 0, 0)" stroke-width="1" x1="-81.659" x2="-81.659" y1="-0.0" y2="-3.853" /><line stroke="rgb(255, 0, 0)" stroke-width="1" x1="-81.659" x2="-83.05" y1="-3.853" y2="-3.853" /><line stroke="rgb(255, 0, 0)" stroke-width="1" x1="-83.05" x2="-83.05" y1="-3.853" y2="-5.853" /><line stroke="rgb(255, 0, 0)" stroke-width="1" x1="-83.05" x2="-81.659" y1="-5.853" y2="-5.853" /><line stroke="rgb(255, 0, 0)" stroke-width="1" x1="-81.659" x2="-81.659" y1="-5.853" y2="-6.853" /><line stroke="rgb(255, 0, 0)" stroke-width="1" x1="-81.659" x2="-78.341" y1="-6.853" y2="-6.853" /><line stroke="rgb(255, 0, 0)" stroke-width="1" x1="-78.341" x2="-78.341" y1="-6.853" y2="-5.853" /><line stroke="rgb(255, 0, 0)" stroke-width="1" x1="-78.341" x2="-76.95" y1="-5.853" y2="-5.853" /><line stroke="rgb(255, 0, 0)" stroke-width="1" x1="-76.95" x2="-76.95" y1="-5.853" y2="-3.853" /><line stroke="rgb(255, 0, 0)" stroke-width="1" x1="-76.95" x2="-78.341" y1="-3.853" y2="-3.853" /><line stroke="rgb(255, 0, 0)" stroke-width="1" x1="-78.341" x2="-78.341" y1="-3.853" y2="0.0" /><line stroke="rgb(255, 0, 0)" stroke-width="1" x1="-78.341" x2="-74.75" y1="0.0" y2="0.0" /><line stroke="rgb(255, 0, 0)" stroke-width="1" x1="-74.75" x2="-74.75" y1="0.0" y2="4.0" /><line stroke="rgb(255, 0, 0)" stroke-width="1" x1="-74.75" x2="-65.25" y1="4.0" y2="4.0" /><line stroke="rgb(255, 0, 0)" stroke-width="1" x1="-65.25" x2="-65.25" y1="4.0" y2="0.0" /><line stroke="rgb(255, 0, 0)" stroke-width="1" x1="-65.25" x2="25.25" y1="0.0" y2="-0.0" /><line stroke="rgb(255, 0, 0)" stroke-width="1" x1="-65.25" x2="-65.25" y1="-100.0" y2="-104.0" /><line stroke="rgb(255, 0, 0)" stroke-width="1" x1="-65.25" x2="-74.75" y1="-104.0" y2="-104.0" /><line stroke="rgb(255, 0, 0)" stroke-width="1" x1="-74.75" x2="-74.75" y1="-104.0" y2="-100.0" /><line stroke="rgb(255, 0, 0)" stroke-width="1" x1="-74.75" x2="-78.341" y1="-100.0" y2="-100.0" /><line stroke="rgb(255, 0, 0)" stroke-width="1" x1="41.659" x2="41.659" y1="-100.0" y2="-96.147" /><line stroke="rgb(255, 0, 0)" stroke-width="1" x1="41.659" x2="43.05" y1="-96.147" y2="-96.147" /><line stroke="rgb(255, 0, 0)" stroke-width="1" x1="43.05" x2="43.05" y1="-96.147" y2="-94.147" /><line stroke="rgb(255, 0, 0)" stroke-width="1" x1="43.05" x2="41.659" y1="-94.147" y2="-94.147" /><line stroke="rgb(255, 0, 0)" stroke-width="1" x1="41.659" x2="41.659" y1="-94.147" y2="-93.147" /><line stroke="rgb(255, 0, 0)" stroke-width="1" x1="41.659" x2="38.341" y1="-93.147" y2="-93.147" /><line stroke="rgb(255, 0, 0)" stroke-width="1" x1="38.341" x2="38.341" y1="-93.147" y2="-94.147" /><line stroke="rgb(255, 0, 0)" stroke-width="1" x1="38.341" x2="36.95" y1="-94.147" y2="-94.147" /><line stroke="rgb(255, 0, 0)" stroke-width="1" x1="36.95" x2="36.95" y1="-94.147" y2="-96.147" /><line stroke="rgb(255, 0, 0)" stroke-width="1" x1="36.95" x2="38.341" y1="-96.147" y2="-96.147" /><line stroke="rgb(255, 0, 0)" stroke-width="1" x1="38.341" x2="38.341" y1="-96.147" y2="-100.0" /><line stroke="rgb(255, 0, 0)" stroke-width="1" x1="34.75" x2="34.75" y1="-100.0" y2="-104.0" /><line stroke="rgb(255, 0, 0)" stroke-width="1" x1="34.75" x2="25.25" y1="-104.0" y2="-104.0" /><line stroke="rgb(255, 0, 0)" stroke-width="1" x1="25.25" x2="25.25" y1="-104.0" y2="-100.0" /><line stroke="rgb(255, 0, 0)" stroke-width="1" x1="25.25" x2="-65.25" y1="-100.0" y2="-100.0" /><line stroke="rgb(255, 0, 0)" stroke-width="1" x1="-81.659" x2="-85.25" y1="-100.0" y2="-100.0" /><line stroke="rgb(255, 0, 0)" stroke-width="1" x1="25.25" x2="25.25" y1="-0.0" y2="4.0" /><line stroke="rgb(255, 0, 0)" stroke-width="1" x1="25.25" x2="34.75" y1="4.0" y2="4.0" /><line stroke="rgb(255, 0, 0)" stroke-width="1" x1="34.75" x2="34.75" y1="4.0" y2="-0.0" /><line stroke="rgb(255, 0, 0)" stroke-width="1" x1="34.75" x2="38.341" y1="-0.0" y2="-0.0" /><line stroke="rgb(255, 0, 0)" stroke-width="1" x1="38.341" x2="38.341" y1="-0.0" y2="-3.853" /><line stroke="rgb(255, 0, 0)" stroke-width="1" x1="38.341" x2="36.95" y1="-3.853" y2="-3.853" /><line stroke="rgb(255, 0, 0)" stroke-width="1" x1="36.95" x2="36.95" y1="-3.853" y2="-5.853" /><line stroke="rgb(255, 0, 0)" stroke-width="1" x1="36.95" x2="38.341" y1="-5.853" y2="-5.853" /><line stroke="rgb(255, 0, 0)" stroke-width="1" x1="38.341" x2="38.341" y1="-5.853" y2="-6.853" /><line stroke="rgb(255, 0, 0)" stroke-width="1" x1="38.341" x2="41.659" y1="-6.853" y2="-6.853" /><line stroke="rgb(255, 0, 0)" stroke-width="1" x1="41.659" x2="41.659" y1="-6.853" y2="-5.853" /><line stroke="rgb(255, 0, 0)" stroke-width="1" x1="41.659" x2="43.05" y1="-5.853" y2="-5.853" /><line stroke="rgb(255, 0, 0)" stroke-width="1" x1="43.05" x2="43.05" y1="-5.853" y2="-3.853" /><line stroke="rgb(255, 0, 0)" stroke-width="1" x1="43.05" x2="41.659" y1="-3.853" y2="-3.853" /><line stroke="rgb(255, 0, 0)" stroke-width="1" x1="41.659" x2="41.659" y1="-3.853" y2="0.0" /><line stroke="rgb(255, 0, 0)" stroke-width="1" x1="41.659" x2="45.25" y1="0.0" y2="0.0" /><line stroke="rgb(255, 0, 0)" stroke-width="1" x1="45.25" x2="45.25" y1="0.0" y2="4.0" /><line stroke="rgb(255, 0, 0)" stroke-width="1" x1="45.25" x2="54.75" y1="4.0" y2="4.0" /><line stroke="rgb(255, 0, 0)" stroke-width="1" x1="54.75" x2="54.75" y1="4.0" y2="0.0" /><line stroke="rgb(255, 0, 0)" stroke-width="1" x1="54.75" x2="127.0" y1="0.0" y2="-0.0" /><line stroke="rgb(255, 0, 0)" stroke-width="1" x1="54.75" x2="54.75" y1="-100.0" y2="-104.0" /><line stroke="rgb(255, 0, 0)" stroke-width="1" x1="54.75" x2="45.25" y1="-104.0" y2="-104.0" /><line stroke="rgb(255, 0, 0)" stroke-width="1" x1="45.25" x2="45.25" y1="-104.0" y2="-100.0" /><line stroke="rgb(255, 0, 0)" stroke-width="1" x1="45.25" x2="41.659" y1="-100.0" y2="-100.0" /><line stroke="rgb(255, 0, 0)" stroke-width="1" x1="-194.75" x2="-198.341" y1="-100.0" y2="-100.0" /></svg>