<?xml version="1.0" encoding="utf-8" ?>
<svg baseProfile="tiny" height="100%" version="1.2" width="100%" xmlns="http://www.w3.org/2000/svg" xmlns:ev="http://www.w3.org/2001/xml-events" xmlns:xlink="http://www.w3.org/1999/xlink"><defs /><line stroke="rgb(255, 0, 0)" stroke-width="1" x1="200.0" x2="200.0" y1="-0.0" y2="-45.25" /><line stroke="rgb(255, 0, 0)" stroke-width="1" x1="200.0" x2="204.0" y1="-45.25" y2="-45.25" /><line stroke="rgb(255, 0, 0)" stroke-width="1" x1="204.0" x2="204.0" y1="-45.25" y2="-54.75" /><line stroke="rgb(255, 0, 0)" stroke-width="1" x1="204.0" x2="200.0" y1="-54.75" y2="-54.75" /><line stroke="rgb(255, 0, 0)" stroke-width="1" x1="200.0" x2="200.0" y1="-54.75" y2="-100.0" /><line stroke="rgb(255, 0, 0)" stroke-width="1" x1="0.0" x2="0.0" y1="-100.0" y2="-54.75" /><line stroke="rgb(255, 0, 0)" stroke-width="1" x1="0.0" x2="-4.0" y1="-54.75" y2="-54.75" /><line stroke="rgb(255, 0, 0)" stroke-width="1" x1="-4.0" x2="-4.0" y1="-54.75" y2="-45.25" /><line stroke="rgb(255, 0, 0)" stroke-width="1" x1="-4.0" x2="0.0" y1="-45.25" y2="-45.25" /><line stroke="rgb(255, 0, 0)" stroke-width="1" x1="0.0" x2="0.0" y1="-45.25" y2="-0.0" /><line stroke="rgb(255, 0, 0)" stroke-width="1" x1="151.9167" x2="161.4167" y1="4.0" y2="4.0" /><line stroke="rgb(255, 0, 0)" stroke-width="1" x1="161.4167" x2="161.4167" y1="4.0" y2="-0.0" /><line stroke="rgb(255, 0, 0)" stroke-width="1" x1="28.0833" x2="31.6743" y1="-0.0" y2="-0.0" /><line stroke="rgb(255, 0, 0)" stroke-width="1" x1="165.0077" x2="165.0077" y1="-0.0" y2="-3.853" /><line stroke="rgb(255, 0, 0)" stroke-width="1" x1="165.0077" x2="163.6167" y1="-3.853" y2="-3.853" /><line stroke="rgb(255, 0, 0)" stroke-width="1" x1="163.6167" x2="163.6167" y1="-3.853" y2="-5.853" /><line stroke="rgb(255, 0, 0)" stroke-width="1" x1="163.6167" x2="165.0077" y1="-5.853" y2="-5.853" /><line stroke="rgb(255, 0, 0)" stroke-width="1" x1="165.0077" x2="165.0077" y1="-5.853" y2="-6.853" /><line stroke="rgb(255, 0, 0)" stroke-width="1" x1="165.0077" x2="168.3257" y1="-6.853" y2="-6.853" /><line stroke="rgb(255, 0, 0)" stroke-width="1" x1="168.3257" x2="168.3257" y1="-6.853" y2="-5.853" /><line stroke="rgb(255, 0, 0)" stroke-width="1" x1="168.3257" x2="169.7167" y1="-5.853" y2="-5.853" /><line stroke="rgb(255, 0, 0)" stroke-width="1" x1="169.7167" x2="169.7167" y1="-5.853" y2="-3.853" /><line stroke="rgb(255, 0, 0)" stroke-width="1" x1="169.7167" x2="168.3257" y1="-3.853" y2="-3.853" /><line stroke="rgb(255, 0, 0)" stroke-width="1" x1="168.3257" x2="168.3257" y1="-3.853" y2="-0.0" /><line stroke="rgb(255, 0, 0)" stroke-width="1" x1="168.3257" x2="171.9167" y1="-0.0" y2="-0.0" /><line stroke="rgb(255, 0, 0)" stroke-width="1" x1="171.9167" x2="171.9167" y1="-0.0" y2="4.0" /><line stroke="rgb(255, 0, 0)" stroke-width="1" x1="171.9167" x2="181.4167" y1="4.0" y2="4.0" /><line stroke="rgb(255, 0, 0)" stroke-width="1" x1="181.4167" x2="181.4167" y1="4.0" y2="-0.0" /><line stroke="rgb(255, 0, 0)" stroke-width="1" x1="181.4167" x2="200.0" y1="-0.0" y2="-0.0" /><line stroke="rgb(255, 0, 0)" stroke-width="1" x1="31.6743" x2="28.0833" y1="-100.0" y2="-100.0" /><line stroke="rgb(255, 0, 0)" stroke-width="1" x1="181.4167" x2="181.4167" y1="-100.0" y2="-104.0" /><line stroke="rgb(255, 0, 0)" stroke-width="1" x1="181.4167" x2="171.9167" y1="-104.0" y2="-104.0" /><line stroke="rgb(255, 0, 0)" stroke-width="1" x1="171.9167" x2="171.9167" y1="-104.0" y2="-100.0" /><line stroke="rgb(255, 0, 0)" stroke-width="1" x1="171.9167" x2="168.3257" y1="-100.0" y2="-100.0" /><line stroke="rgb(255, 0, 0)" stroke-width="1" x1="168.3257" x2="168.3257" y1="-100.0" y2="-96.147" /><line stroke="rgb(255, 0, 0)" stroke-width="1" x1="168.3257" x2="169.7167" y1="-96.147" y2="-96.147" /><line stroke="rgb(255, 0, 0)" stroke-width="1" x1="169.7167" x2="169.7167" y1="-96.147" y2="-94.147" /><line stroke="rgb(255, 0, 0)" stroke-width="1" x1="169.7167" x2="168.3257" y1="-94.147" y2="-94.147" /><line stroke="rgb(255, 0, 0)" stroke-width="1" x1="168.3257" x2="168.3257" y1="-94.147" y2="-93.147" /><line stroke="rgb(255, 0, 0)" stroke-width="1" x1="168.3257" x2="165.0077" y1="-93.147" y2="-93.147" /><line stroke="rgb(255, 0, 0)" stroke-width="1" x1="165.0077" x2="165.0077" y1="-93.147" y2="-94.147" /><line stroke="rgb(255, 0, 0)" stroke-width="1" x1="165.0077" x2="163.6167" y1="-94.147" y2="-94.147" /><line stroke="rgb(255, 0, 0)" stroke-width="1" x1="163.6167" x2="163.6167" y1="-94.147" y2="-96.147" /><line stroke="rgb(255, 0, 0)" stroke-width="1" x1="163.6167" x2="165.0077" y1="-96.147" y2="-96.147" /><line stroke="rgb(255, 0, 0)" stroke-width="1" x1="165.0077" x2="165.0077" y1="-96.147" y2="-100.0" /><line stroke="rgb(255, 0, 0)" stroke-width="1" x1="165.0077" x2="161.4167" y1="-100.0" y2="-100.0" /><line stroke="rgb(255, 0, 0)" stroke-width="1" x1="161.4167" x2="161.4167" y1="-100.0" y2="-104.0" /><line stroke="rgb(255, 0, 0)" stroke-width="1" x1="0.0" x2="18.5833" y1="-0.0" y2="-0.0" /><line stroke="rgb(255, 0, 0)" stroke-width="1" x1="151.9167" x2="151.9167" y1="-0.0" y2="4.0" /><line stroke="rgb(255, 0, 0)" stroke-width="1" x1="161.4167" x2="151.9167" y1="-104.0" y2="-104.0" /><line stroke="rgb(255, 0, 0)" stroke-width="1" x1="151.9167" x2="151.9167" y1="-104.0" y2="-100.0" /><line stroke="rgb(255, 0, 0)" stroke-width="1" x1="151.9167" x2="136.9722" y1="-100.0" y2="-100.0" /><line stroke="rgb(255, 0, 0)" stroke-width="1" x1="79.4368" x2="79.4368" y1="-100.0" y2="-96.147" /><line stroke="rgb(255, 0, 0)" stroke-width="1" x1="79.4368" x2="80.8278" y1="-96.147" y2="-96.147" /><line stroke="rgb(255, 0, 0)" stroke-width="1" x1="80.8278" x2="80.8278" y1="-96.147" y2="-94.147" /><line stroke="rgb(255, 0, 0)" stroke-width="1" x1="80.8278" x2="79.4368" y1="-94.147" y2="-94.147" /><line stroke="rgb(255, 0, 0)" stroke-width="1" x1="79.4368" x2="79.4368" y1="-94.147" y2="-93.147" /><line stroke="rgb(255, 0, 0)" stroke-width="1" x1="79.4368" x2="76.1188" y1="-93.147" y2="-93.147" /><line stroke="rgb(255, 0, 0)" stroke-width="1" x1="76.1188" x2="76.1188" y1="-93.147" y2="-94.147" /><line stroke="rgb(255, 0, 0)" stroke-width="1" x1="76.1188" x2="74.7278" y1="-94.147" y2="-94.147" /><line stroke="rgb(255, 0, 0)" stroke-width="1" x1="74.7278" x2="74.7278" y1="-94.147" y2="-96.147" /><line stroke="rgb(255, 0, 0)" stroke-width="1" x1="74.7278" x2="76.1188" y1="-96.147" y2="-96.147" /><line stroke="rgb(255, 0, 0)" stroke-width="1" x1="76.1188" x2="76.1188" y1="-96.147" y2="-100.0" /><line stroke="rgb(255, 0, 0)" stroke-width="1" x1="72.5278" x2="72.5278" y1="-100.0" y2="-104.0" /><line stroke="rgb(255, 0, 0)" stroke-width="1" x1="72.5278" x2="63.0278" y1="-104.0" y2="-104.0" /><line stroke="rgb(255, 0, 0)" stroke-width="1" x1="63.0278" x2="63.0278" y1="-104.0" y2="-100.0" /><line stroke="rgb(255, 0, 0)" stroke-width="1" x1="63.0278" x2="48.0833" y1="-100.0" y2="-100.0" /><line stroke="rgb(255, 0, 0)" stroke-width="1" x1="63.0278" x2="63.0278" y1="-0.0" y2="4.0" /><line stroke="rgb(255, 0, 0)" stroke-width="1" x1="63.0278" x2="72.5278" y1="4.0" y2="4.0" /><line stroke="rgb(255, 0, 0)" stroke-width="1" x1="72.5278" x2="72.5278" y1="4.0" y2="-0.0" /><line stroke="rgb(255, 0, 0)" stroke-width="1" x1="76.1188" x2="76.1188" y1="-0.0" y2="-3.853" /><line stroke="rgb(255, 0, 0)" stroke-width="1" x1="76.1188" x2="74.7278" y1="-3.853" y2="-3.853" /><line stroke="rgb(255, 0, 0)" stroke-width="1" x1="74.7278" x2="74.7278" y1="-3.853" y2="-5.853" /><line stroke="rgb(255, 0, 0)" stroke-width="1" x1="74.7278" x2="76.1188" y1="-5.853" y2="-5.853" /><line stroke="rgb(255, 0, 0)" stroke-width="1" x1="76.1188" x2="76.1188" y1="-5.853" y2="-6.853" /><line stroke="rgb(255, 0, 0)" stroke-width="1" x1="76.1188" x2="79.4368" y1="-6.853" y2="-6.853" /><line stroke="rgb(255, 0, 0)" stroke-width="1" x1="79.4368" x2="79.4368" y1="-6.853" y2="-5.853" /><line stroke="rgb(255, 0, 0)" stroke-width="1" x1="79.4368" x2="80.8278" y1="-5.853" y2="-5.853" /><line stroke="rgb(255, 0, 0)" stroke-width="1" x1="80.8278" x2="80.8278" y1="-5.853" y2="-3.853" /><line stroke="rgb(255, 0, 0)" stroke-width="1" x1="80.8278" x2="79.4368" y1="-3.853" y2="-3.853" /><line stroke="rgb(255, 0, 0)" stroke-width="1" x1="79.4368" x2="79.4368" y1="-3.853" y2="-0.0" /><line stroke="rgb(255, 0, 0)" stroke-width="1" x1="79.4368" x2="83.0278" y1="-0.0" y2="-0.0" /><line stroke="rgb(255, 0, 0)" stroke-width="1" x1="83.0278" x2="83.0278" y1="-0.0" y2="4.0" /><line stroke="rgb(255, 0, 0)" stroke-width="1" x1="83.0278" x2="92.5278" y1="4.0" y2="4.0" /><line stroke="rgb(255, 0, 0)" stroke-width="1" x1="92.5278" x2="92.5278" y1="4.0" y2="-0.0" /><line stroke="rgb(255, 0, 0)" stroke-width="1" x1="92.5278" x2="107.4722" y1="-0.0" y2="-0.0" /><line stroke="rgb(255, 0, 0)" stroke-width="1" x1="107.4722" x2="107.4722" y1="-0.0" y2="4.0" /><line stroke="rgb(255, 0, 0)" stroke-width="1" x1="107.4722" x2="116.9722" y1="4.0" y2="4.0" /><line stroke="rgb(255, 0, 0)" stroke-width="1" x1="116.9722" x2="116.9722" y1="4.0" y2="-0.0" /><line stroke="rgb(255, 0, 0)" stroke-width="1" x1="116.9722" x2="120.5632" y1="-0.0" y2="-0.0" /><line stroke="rgb(255, 0, 0)" stroke-width="1" x1="120.5632" x2="120.5632" y1="-0.0" y2="-3.853" /><line stroke="rgb(255, 0, 0)" stroke-width="1" x1="120.5632" x2="119.1722" y1="-3.853" y2="-3.853" /><line stroke="rgb(255, 0, 0)" stroke-width="1" x1="119.1722" x2="119.1722" y1="-3.853" y2="-5.853" /><line stroke="rgb(255, 0, 0)" stroke-width="1" x1="119.1722" x2="120.5632" y1="-5.853" y2="-5.853" /><line stroke="rgb(255, 0, 0)" stroke-width="1" x1="120.5632" x2="120.5632" y1="-5.853" y2="-6.853" /><line stroke="rgb(255, 0, 0)" stroke-width="1" x1="120.5632" x2="123.8812" y1="-6.853" y2="-6.853" /><line stroke="rgb(255, 0, 0)" stroke-width="1" x1="123.8812" x2="123.8812" y1="-6.853" y2="-5.853" /><line stroke="rgb(255, 0, 0)" stroke-width="1" x1="123.8812" x2="125.2722" y1="-5.853" y2="-5.853" /><line stroke="rgb(255, 0, 0)" stroke-width="1" x1="125.2722" x2="125.2722" y1="-5.853" y2="-3.853" /><line stroke="rgb(255, 0, 0)" stroke-width="1" x1="125.2722" x2="123.8812" y1="-3.853" y2="-3.853" /><line stroke="rgb(255, 0, 0)" stroke-width="1" x1="123.8812" x2="123.8812" y1="-3.853" y2="-0.0" /><line stroke="rgb(255, 0, 0)" stroke-width="1" x1="123.8812" x2="127.4722" y1="-0.0" y2="-0.0" /><line stroke="rgb(255, 0, 0)" stroke-width="1" x1="127.4722" x2="127.4722" y1="-0.0" y2="4.0" /><line stroke="rgb(255, 0, 0)" stroke-width="1" x1="127.4722" x2="136.9722" y1="4.0" y2="4.0" /><line stroke="rgb(255, 0, 0)" stroke-width="1" x1="136.9722" x2="136.9722" y1="4.0" y2="-0.0" /><line stroke="rgb(255, 0, 0)" stroke-width="1" x1="136.9722" x2="151.9167" y1="-0.0" y2="-0.0" /><line stroke="rgb(255, 0, 0)" stroke-width="1" x1="136.9722" x2="136.9722" y1="-100.0" y2="-104.0" /><line stroke="rgb(255, 0, 0)" stroke-width="1" x1="136.9722" x2="127.4722" y1="-104.0" y2="-104.0" /><line stroke="rgb(255, 0, 0)" stroke-width="1" x1="127.4722" x2="127.4722" y1="-104.0" y2="-100.0" /><line stroke="rgb(255, 0, 0)" stroke-width="1" x1="127.4722" x2="123.8812" y1="-100.0" y2="-100.0" /><line stroke="rgb(255, 0, 0)" stroke-width="1" x1="123.8812" x2="123.8812" y1="-100.0" y2="-96.147" /><line stroke="rgb(255, 0, 0)" stroke-width="1" x1="123.8812" x2="125.2722" y1="-96.147" y2="-96.147" /><line stroke="rgb(255, 0, 0)" stroke-width="1" x1="125.2722" x2="125.2722" y1="-96.147" y2="-94.147" /><line stroke="rgb(255, 0, 0)" stroke-width="1" x1="125.2722" x2="123.8812" y1="-94.147" y2="-94.147" /><line stroke="rgb(255, 0, 0)" stroke-width="1" x1="123.8812" x2="123.8812" y1="-94.147" y2="-93.147" /><line stroke="rgb(255, 0, 0)" stroke-width="1" x1="123.8812" x2="120.5632" y1="-93.147" y2="-93.147" /><line stroke="rgb(255, 0, 0)" stroke-width="1" x1="120.5632" x2="120.5632" y1="-93.147" y2="-94.147" /><line stroke="rgb(255, 0, 0)" stroke-width="1" x1="120.5632" x2="119.1722" y1="-94.147" y2="-94.147" /><line stroke="rgb(255, 0, 0)" stroke-width="1" x1="119.1722" x2="119.1722" y1="-94.147" y2="-96.147" /><line stroke="rgb(255, 0, 0)" stroke-width="1" x1="119.1722" x2="120.5632" y1="-96.147" y2="-96.147" /><line stroke="rgb(255, 0, 0)" stroke-width="1" x1="120.5632" x2="120.5632" y1="-96.147" y2="-100.0" /><line stroke="rgb(255, 0, 0)" stroke-width="1" x1="120.5632" x2="116.9722" y1="-100.0" y2="-100.0" /><line stroke="rgb(255, 0, 0)" stroke-width="1" x1="116.9722" x2="116.9722" y1="-100.0" y2="-104.0" /><line stroke="rgb(255, 0, 0)" stroke-width="1" x1="116.9722" x2="107.4722" y1="-104.0" y2="-104.0" /><line stroke="rgb(255, 0, 0)" stroke-width="1" x1="107.4722" x2="107.4722" y1="-104.0" y2="-100.0" /><line stroke="rgb(255, 0, 0)" stroke-width="1" x1="107.4722" x2="92.5278" y1="-100.0" y2="-100.0" /><line stroke="rgb(255, 0, 0)" stroke-width="1" x1="92.5278" x2="92.5278" y1="-100.0" y2="-104.0" /><line stroke="rgb(255, 0, 0)" stroke-width="1" x1="92.5278" x2="83.0278" y1="-104.0" y2="-104.0" /><line stroke="rgb(255, 0, 0)" stroke-width="1" x1="83.0278" x2="83.0278" y1="-104.0" y2="-100.0" /><line stroke="rgb(255, 0, 0)" stroke-width="1" x1="83.0278" x2="79.4368" y1="-100.0" y2="-100.0" /><line stroke="rgb(255, 0, 0)" stroke-width="1" x1="72.5278" x2="76.1188" y1="-0.0" y2="-0.0" /><line stroke="rgb(255, 0, 0)" stroke-width="1" x1="76.1188" x2="72.5278" y1="-100.0" y2="-100.0" /><line stroke="rgb(255, 0, 0)" stroke-width="1" x1="34.9923" x2="34.9923" y1="-100.0" y2="-96.147" /><line stroke="rgb(255, 0, 0)" stroke-width="1" x1="34.9923" x2="36.3833" y1="-96.147" y2="-96.147" /><line stroke="rgb(255, 0, 0)" stroke-width="1" x1="36.3833" x2="36.3833" y1="-96.147" y2="-94.147" /><line stroke="rgb(255, 0, 0)" stroke-width="1" x1="36.3833" x2="34.9923" y1="-94.147" y2="-94.147" /><line stroke="rgb(255, 0, 0)" stroke-width="1" x1="34.9923" x2="34.9923" y1="-94.147" y2="-93.147" /><line stroke="rgb(255, 0, 0)" stroke-width="1" x1="34.9923" x2="31.6743" y1="-93.147" y2="-93.147" /><line stroke="rgb(255, 0, 0)" stroke-width="1" x1="31.6743" x2="31.6743" y1="-93.147" y2="-94.147" /><line stroke="rgb(255, 0, 0)" stroke-width="1" x1="31.6743" x2="30.2833" y1="-94.147" y2="-94.147" /><line stroke="rgb(255, 0, 0)" stroke-width="1" x1="30.2833" x2="30.2833" y1="-94.147" y2="-96.147" /><line stroke="rgb(255, 0, 0)" stroke-width="1" x1="30.2833" x2="31.6743" y1="-96.147" y2="-96.147" /><line stroke="rgb(255, 0, 0)" stroke-width="1" x1="31.6743" x2="31.6743" y1="-96.147" y2="-100.0" /><line stroke="rgb(255, 0, 0)" stroke-width="1" x1="28.0833" x2="28.0833" y1="-100.0" y2="-104.0" /><line stroke="rgb(255, 0, 0)" stroke-width="1" x1="28.0833" x2="18.5833" y1="-104.0" y2="-104.0" /><line stroke="rgb(255, 0, 0)" stroke-width="1" x1="18.5833" x2="18.5833" y1="-104.0" y2="-100.0" /><line stroke="rgb(255, 0, 0)" stroke-width="1" x1="18.5833" x2="0.0" y1="-100.0" y2="-100.0" /><line stroke="rgb(255, 0, 0)" stroke-width="1" x1="18.5833" x2="18.5833" y1="-0.0" y2="4.0" /><line stroke="rgb(255, 0, 0)" stroke-width="1" x1="18.5833" x2="28.0833" y1="4.0" y2="4.0" /><line stroke="rgb(255, 0, 0)" stroke-width="1" x1="28.0833" x2="28.0833" y1="4.0" y2="-0.0" /><line stroke="rgb(255, 0, 0)" stroke-width="1" x1="31.6743" x2="31.6743" y1="-0.0" y2="-3.853" /><line stroke="rgb(255, 0, 0)" stroke-width="1" x1="31.6743" x2="30.2833" y1="-3.853" y2="-3.853" /><line stroke="rgb(255, 0, 0)" stroke-width="1" x1="30.2833" x2="30.2833" y1="-3.853" y2="-5.853" /><line stroke="rgb(255, 0, 0)" stroke-width="1" x1="30.2833" x2="31.6743" y1="-5.853" y2="-5.853" /><line stroke="rgb(255, 0, 0)" stroke-width="1" x1="31.6743" x2="31.6743" y1="-5.853" y2="-6.853" /><line stroke="rgb(255, 0, 0)" stroke-width="1" x1="31.6743" x2="34.9923" y1="-6.853" y2="-6.853" /><line stroke="rgb(255, 0, 0)" stroke-width="1" x1="34.9923" x2="34.9923" y1="-6.853" y2="-5.853" /><line stroke="rgb(255, 0, 0)" stroke-width="1" x1="34.9923" x2="36.3833" y1="-5.853" y2="-5.853" /><line stroke="rgb(255, 0, 0)" stroke-width="1" x1="36.3833" x2="36.3833" y1="-5.853" y2="-3.853" /><line stroke="rgb(255, 0, 0)" stroke-width="1" x1="36.3833" x2="34.9923" y1="-3.853" y2="-3.853" /><line stroke="rgb(255, 0, 0)" stroke-width="1" x1="34.9923" x2="34.9923" y1="-3.853" y2="-0.0" /><line stroke="rgb(255, 0, 0)" stroke-width="1" x1="34.9923" x2="38.5833" y1="-0.0" y2="-0.0" /><line stroke="rgb(255, 0, 0)" stroke-width="1" x1="38.5833" x2="38.5833" y1="-0.0" y2="4.0" /><line stroke="rgb(255, 0, 0)" stroke-width="1" x1="38.5833" x2="48.0833" y1="4.0" y2="4.0" /><line stroke="rgb(255, 0, 0)" stroke-width="1" x1="48.0833" x2="48.0833" y1="4.0" y2="-0.0" /><line stroke="rgb(255, 0, 0)" stroke-width="1" x1="48.0833" x2="63.0278" y1="-0.0" y2="-0.0" /><line stroke="rgb(255, 0, 0)" stroke-width="1" x1="48.0833" x2="48.0833" y1="-100.0" y2="-104.0" /><line stroke="rgb(255, 0, 0)" stroke-width="1" x1="48.0833" x2="38.5833" y1="-104.0" y2="-104.0" /><line stroke="rgb(255, 0, 0)" stroke-width="1" x1="38.5833" x2="38.5833" y1="-104.0" y2="-100.0" /><line stroke="rgb(255, 0, 0)" stroke-width="1" x1="38.5833" x2="34.9923" y1="-100.0" y2="-100.0" /><line stroke="rgb(255, 0, 0)" stroke-width="1" x1="161.4167" x2="165.0077" y1="-0.0" y2="-0.0" /><line stroke="rgb(255, 0, 0)" stroke-width="1" x1="200.0" x2="181.4167" y1="-100.0" y2="-100.0" /></svg>