0
SECTION
2
HEADER
9
$INSUNITS
70
4
9
$ACADVER
1
AC1014
9
$HANDSEED
5
FFFF
0
ENDSEC
0
SECTION
2
TABLES
0
TABLE
2
VPORT
5
8
100
AcDbSymbolTable
0
ENDTAB
0
TABLE
2
LTYPE
5
5
100
AcDbSymbolTable
0
LTYPE
5
14
100
AcDbSymbolTableRecord
100
AcDbLinetypeTableRecord
2
BYBLOCK
70
0
0
LTYPE
5
15
100
AcDbSymbolTableRecord
100
AcDbLinetypeTableRecord
2
BYLAYER
70
0
0
LTYPE
5
16
100
AcDbSymbolTableRecord
100
AcDbLinetypeTableRecord
2
DASHED
70
0
3
Dashed __ __ __ __ __ __ __ __ __ __ __ __ __ _
72
65
73
2
40
0.75
49
0.5
74
0
49
-0.25
74
0
0
ENDTAB
0
TABLE
2
LAYER
5
2
100
AcDbSymbolTable
70
2
0
LAYER
5
50
100
AcDbSymbolTableRecord
100
AcDbLayerTableRecord
2
0
70
0
62
7
6
CONTINUOUS
0
ENDTAB
0
TABLE
2
STYLE
5
3
100
AcDbSymbolTable
70
1
0
STYLE
5
11
100
AcDbSymbolTableRecord
100
AcDbTextStyleTableRecord
2
STANDARD
70
0
0
ENDTAB
0
TABLE
2
VIEW
5
6
100
AcDbSymbolTable
70
0
0
ENDTAB
0
TABLE
2
UCS
5
7
100
AcDbSymbolTable
70
0
0
ENDTAB
0
TABLE
2
APPID
5
9
100
AcDbSymbolTable
70
2
0
APPID
5
12
100
AcDbSymbolTableRecord
100
AcDbRegAppTableRecord
2
ACAD
70
0
0
ENDTAB
0
TABLE
2
DIMSTYLE
5
A
100
AcDbSymbolTable
70
1
0
ENDTAB
0
TABLE
2
BLOCK_RECORD
5
1
100
AcDbSymbolTable
70
1
0
BLOCK_RECORD
5
1F
100
AcDbSymbolTableRecord
100
AcDbBlockTableRecord
2
*MODEL_SPACE
0
BLOCK_RECORD
5
1B
100
AcDbSymbolTableRecord
100
AcDbBlockTableRecord
2
*PAPER_SPACE
0
ENDTAB
0
ENDSEC
0
SECTION
2
BLOCKS
0
BLOCK
5
20
100
AcDbEntity
100
AcDbBlockBegin
2
*MODEL_SPACE
0
ENDBLK
5
21
100
AcDbEntity
100
AcDbBlockEnd
0
BLOCK
5
1C
100
AcDbEntity
100
AcDbBlockBegin
2
*PAPER_SPACE
0
ENDBLK
5
1D
100
AcDbEntity
100
AcDbBlockEnd
0
ENDSEC
0
SECTION
2
ENTITIES
0
LINE
5
100
100
AcDbEntity
8
0
100
AcDbLine
10
200
20
0
30
0
11
199.99999999999304
21
45.24999999998721
31
0
0
LINE
5
101
100
AcDbEntity
8
0
100
AcDbLine
10
199.99999999999304
20
45.24999999998721
30
0
11
203.99999999992846
21
45.249999999986699
31
0
0
LINE
5
102
100
AcDbEntity
8
0
100
AcDbLine
10
203.99999999992846
20
45.249999999986699
30
0
11
203.99999999999423
21
54.749999999986692
31
0
0
LINE
5
103
100
AcDbEntity
8
0
100
AcDbLine
10
203.99999999999423
20
54.749999999986692
30
0
11
199.99999999999426
21
54.74999999998721
31
0
0
LINE
5
104
100
AcDbEntity
8
0
100
AcDbLine
10
199.99999999999426
20
54.74999999998721
30
0
11
200
21
100
31
0
0
LINE
5
105
100
AcDbEntity
8
0
100
AcDbLine
10
0
20
100
30
0
11
0
21
54.750000000003205
31
0
0
LINE
5
106
100
AcDbEntity
8
0
100
AcDbLine
10
0
20
54.750000000003205
30
0
11
-4
21
54.750000000003205
31
0
0
LINE
5
107
100
AcDbEntity
8
0
100
AcDbLine
10
-4
20
54.750000000003205
30
0
11
-3.9999999999354303
21
45.249999999980808
31
0
0
LINE
5
108
100
AcDbEntity
8
0
100
AcDbLine
10
-3.9999999999354303
20
45.249999999980808
30
0
11
0
21
45.249999999980808
31
0
0
LINE
5
109
100
AcDbEntity
8
0
100
AcDbLine
10
0
20
45.249999999980808
30
0
11
0
21
0
31
0
0
LINE
5
110
100
AcDbEntity
8
0
100
AcDbLine
10
151.9166666666666
20
-4.0000000000533653
30
0
11
161.41666666666654
21
-3.9999999999999858
31
0
0
LINE
5
111
100
AcDbEntity
8
0
100
AcDbLine
10
161.41666666666654
20
-3.9999999999999858
30
0
11
161.41666666666654
21
0
31
0
0
LINE
5
112
100
AcDbEntity
8
0
100
AcDbLine
10
28.083333333333229
20
0
30
0
11
31.674333333333351
21
0
31
0
0
LINE
5
113
100
AcDbEntity
8
0
100
AcDbLine
10
165.00766666666667
20
0
30
0
11
165.00766666666667
21
3.8530000000000086
31
0
0
LINE
5
114
100
AcDbEntity
8
0
100
AcDbLine
10
165.00766666666667
20
3.8530000000000086
30
0
11
163.61666666666667
21
3.8530000000000086
31
0
0
LINE
5
115
100
AcDbEntity
8
0
100
AcDbLine
10
163.61666666666667
20
3.8530000000000086
30
0
11
163.61666666666667
21
5.8530000000000015
31
0
0
LINE
5
116
100
AcDbEntity
8
0
100
AcDbLine
10
163.61666666666667
20
5.8530000000000015
30
0
11
165.00766666666667
21
5.8530000000000015
31
0
0
LINE
5
117
100
AcDbEntity
8
0
100
AcDbLine
10
165.00766666666667
20
5.8530000000000015
30
0
11
165.00766666666667
21
6.8530000000000157
31
0
0
LINE
5
118
100
AcDbEntity
8
0
100
AcDbLine
10
165.00766666666667
20
6.8530000000000157
30
0
11
168.32566666666665
21
6.852999999999998
31
0
0
LINE
5
119
100
AcDbEntity
8
0
100
AcDbLine
10
168.32566666666665
20
6.852999999999998
30
0
11
168.32566666666668
21
5.8530000000000015
31
0
0
LINE
5
120
100
AcDbEntity
8
0
100
AcDbLine
10
168.32566666666668
20
5.8530000000000015
30
0
11
169.71666666666664
21
5.8530000000000015
31
0
0
LINE
5
121
100
AcDbEntity
8
0
100
AcDbLine
10
169.71666666666664
20
5.8530000000000015
30
0
11
169.71666666666667
21
3.8530000000000086
31
0
0
LINE
5
122
100
AcDbEntity
8
0
100
AcDbLine
10
169.71666666666667
20
3.8530000000000086
30
0
11
168.32566666666665
21
3.8530000000000086
31
0
0
LINE
5
123
100
AcDbEntity
8
0
100
AcDbLine
10
168.32566666666665
20
3.8530000000000086
30
0
11
168.32566666666665
21
0
31
0
0
LINE
5
124
100
AcDbEntity
8
0
100
AcDbLine
10
168.32566666666665
20
0
30
0
11
171.91666666666686
21
0
31
0
0
LINE
5
125
100
AcDbEntity
8
0
100
AcDbLine
10
171.91666666666686
20
0
30
0
11
171.9166666666668
21
-4.0000000000000018
31
0
0
LINE
5
126
100
AcDbEntity
8
0
100
AcDbLine
10
171.9166666666668
20
-4.0000000000000018
30
0
11
181.4166666666668
21
-4.0000000000028795
31
0
0
LINE
5
127
100
AcDbEntity
8
0
100
AcDbLine
10
181.4166666666668
20
-4.0000000000028795
30
0
11
181.41666666666708
21
0
31
0
0
LINE
5
128
100
AcDbEntity
8
0
100
AcDbLine
10
181.41666666666708
20
0
30
0
11
200
21
0
31
0
0
LINE
5
129
100
AcDbEntity
8
0
100
AcDbLine
10
31.674333333333351
20
100
30
0
11
28.083333333333229
21
100
31
0
0
LINE
5
130
100
AcDbEntity
8
0
100
AcDbLine
10
181.41666666666708
20
100
30
0
11
181.4166666666668
21
104.00000000000288
31
0
0
LINE
5
131
100
AcDbEntity
8
0
100
AcDbLine
10
181.4166666666668
20
104.00000000000288
30
0
11
171.9166666666668
21
104
31
0
0
LINE
5
132
100
AcDbEntity
8
0
100
AcDbLine
10
171.9166666666668
20
104
30
0
11
171.91666666666686
21
100
31
0
0
LINE
5
133
100
AcDbEntity
8
0
100
AcDbLine
10
171.91666666666686
20
100
30
0
11
168.32566666666668
21
100
31
0
0
LINE
5
134
100
AcDbEntity
8
0
100
AcDbLine
10
168.32566666666668
20
100
30
0
11
168.32566666666665
21
96.146999999999991
31
0
0
LINE
5
135
100
AcDbEntity
8
0
100
AcDbLine
10
168.32566666666665
20
96.146999999999991
30
0
11
169.71666666666667
21
96.146999999999991
31
0
0
LINE
5
136
100
AcDbEntity
8
0
100
AcDbLine
10
169.71666666666667
20
96.146999999999991
30
0
11
169.71666666666664
21
94.146999999999991
31
0
0
LINE
5
137
100
AcDbEntity
8
0
100
AcDbLine
10
169.71666666666664
20
94.146999999999991
30
0
11
168.32566666666668
21
94.146999999999991
31
0
0
LINE
5
138
100
AcDbEntity
8
0
100
AcDbLine
10
168.32566666666668
20
94.146999999999991
30
0
11
168.32566666666665
21
93.147000000000006
31
0
0
LINE
5
139
100
AcDbEntity
8
0
100
AcDbLine
10
168.32566666666665
20
93.147000000000006
30
0
11
165.00766666666667
21
93.146999999999991
31
0
0
LINE
5
140
100
AcDbEntity
8
0
100
AcDbLine
10
165.00766666666667
20
93.146999999999991
30
0
11
165.00766666666667
21
94.146999999999991
31
0
0
LINE
5
141
100
AcDbEntity
8
0
100
AcDbLine
10
165.00766666666667
20
94.146999999999991
30
0
11
163.61666666666667
21
94.146999999999991
31
0
0
LINE
5
142
100
AcDbEntity
8
0
100
AcDbLine
10
163.61666666666667
20
94.146999999999991
30
0
11
163.61666666666667
21
96.146999999999991
31
0
0
LINE
5
143
100
AcDbEntity
8
0
100
AcDbLine
10
163.61666666666667
20
96.146999999999991
30
0
11
165.00766666666667
21
96.146999999999991
31
0
0
LINE
5
144
100
AcDbEntity
8
0
100
AcDbLine
10
165.00766666666667
20
96.146999999999991
30
0
11
165.00766666666667
21
100
31
0
0
LINE
5
145
100
AcDbEntity
8
0
100
AcDbLine
10
165.00766666666667
20
100
30
0
11
161.41666666666654
21
100
31
0
0
LINE
5
146
100
AcDbEntity
8
0
100
AcDbLine
10
161.41666666666654
20
100
30
0
11
161.41666666666654
21
103.99999999999999
31
0
0
LINE
5
147
100
AcDbEntity
8
0
100
AcDbLine
10
0
20
0
30
0
11
18.583333333332988
21
0
31
0
0
LINE
5
148
100
AcDbEntity
8
0
100
AcDbLine
10
151.91666666666632
20
0
30
0
11
151.9166666666666
21
-4.0000000000533653
31
0
0
LINE
5
149
100
AcDbEntity
8
0
100
AcDbLine
10
161.41666666666654
20
103.99999999999999
30
0
11
151.9166666666666
21
104.00000000005336
31
0
0
LINE
5
150
100
AcDbEntity
8
0
100
AcDbLine
10
151.9166666666666
20
104.00000000005336
30
0
11
151.91666666666632
21
100
31
0
0
LINE
5
151
100
AcDbEntity
8
0
100
AcDbLine
10
151.91666666666632
20
100
30
0
11
136.97222222222265
21
100
31
0
0
LINE
5
152
100
AcDbEntity
8
0
100
AcDbLine
10
79.436777777777806
20
100
30
0
11
79.436777777777777
21
96.146999999999991
31
0
0
LINE
5
153
100
AcDbEntity
8
0
100
AcDbLine
10
79.436777777777777
20
96.146999999999991
30
0
11
80.827777777777797
21
96.146999999999991
31
0
0
LINE
5
154
100
AcDbEntity
8
0
100
AcDbLine
10
80.827777777777797
20
96.146999999999991
30
0
11
80.827777777777769
21
94.146999999999991
31
0
0
LINE
5
155
100
AcDbEntity
8
0
100
AcDbLine
10
80.827777777777769
20
94.146999999999991
30
0
11
79.436777777777806
21
94.146999999999991
31
0
0
LINE
5
156
100
AcDbEntity
8
0
100
AcDbLine
10
79.436777777777806
20
94.146999999999991
30
0
11
79.436777777777777
21
93.147000000000006
31
0
0
LINE
5
157
100
AcDbEntity
8
0
100
AcDbLine
10
79.436777777777777
20
93.147000000000006
30
0
11
76.118777777777794
21
93.146999999999991
31
0
0
LINE
5
158
100
AcDbEntity
8
0
100
AcDbLine
10
76.118777777777794
20
93.146999999999991
30
0
11
76.118777777777794
21
94.146999999999991
31
0
0
LINE
5
159
100
AcDbEntity
8
0
100
AcDbLine
10
76.118777777777794
20
94.146999999999991
30
0
11
74.727777777777803
21
94.146999999999991
31
0
0
LINE
5
160
100
AcDbEntity
8
0
100
AcDbLine
10
74.727777777777803
20
94.146999999999991
30
0
11
74.727777777777803
21
96.146999999999991
31
0
0
LINE
5
161
100
AcDbEntity
8
0
100
AcDbLine
10
74.727777777777803
20
96.146999999999991
30
0
11
76.118777777777794
21
96.146999999999991
31
0
0
LINE
5
162
100
AcDbEntity
8
0
100
AcDbLine
10
76.118777777777794
20
96.146999999999991
30
0
11
76.118777777777794
21
100
31
0
0
LINE
5
163
100
AcDbEntity
8
0
100
AcDbLine
10
72.527777777777672
20
100
30
0
11
72.527777777777672
21
103.99999999999999
31
0
0
LINE
5
164
100
AcDbEntity
8
0
100
AcDbLine
10
72.527777777777672
20
103.99999999999999
30
0
11
63.027777777777715
21
104.00000000005336
31
0
0
LINE
5
165
100
AcDbEntity
8
0
100
AcDbLine
10
63.027777777777715
20
104.00000000005336
30
0
11
63.02777777777743
21
100
31
0
0
LINE
5
166
100
AcDbEntity
8
0
100
AcDbLine
10
63.02777777777743
20
100
30
0
11
48.083333333333762
21
100
31
0
0
LINE
5
167
100
AcDbEntity
8
0
100
AcDbLine
10
63.02777777777743
20
0
30
0
11
63.027777777777715
21
-4.0000000000533653
31
0
0
LINE
5
168
100
AcDbEntity
8
0
100
AcDbLine
10
63.027777777777715
20
-4.0000000000533653
30
0
11
72.527777777777672
21
-3.9999999999999858
31
0
0
LINE
5
169
100
AcDbEntity
8
0
100
AcDbLine
10
72.527777777777672
20
-3.9999999999999858
30
0
11
72.527777777777672
21
0
31
0
0
LINE
5
170
100
AcDbEntity
8
0
100
AcDbLine
10
76.118777777777794
20
0
30
0
11
76.118777777777794
21
3.8530000000000086
31
0
0
LINE
5
171
100
AcDbEntity
8
0
100
AcDbLine
10
76.118777777777794
20
3.8530000000000086
30
0
11
74.727777777777803
21
3.8530000000000086
31
0
0
LINE
5
172
100
AcDbEntity
8
0
100
AcDbLine
10
74.727777777777803
20
3.8530000000000086
30
0
11
74.727777777777803
21
5.8530000000000015
31
0
0
LINE
5
173
100
AcDbEntity
8
0
100
AcDbLine
10
74.727777777777803
20
5.8530000000000015
30
0
11
76.118777777777794
21
5.8530000000000015
31
0
0
LINE
5
174
100
AcDbEntity
8
0
100
AcDbLine
10
76.118777777777794
20
5.8530000000000015
30
0
11
76.118777777777794
21
6.8530000000000157
31
0
0
LINE
5
175
100
AcDbEntity
8
0
100
AcDbLine
10
76.118777777777794
20
6.8530000000000157
30
0
11
79.436777777777777
21
6.852999999999998
31
0
0
LINE
5
176
100
AcDbEntity
8
0
100
AcDbLine
10
79.436777777777777
20
6.852999999999998
30
0
11
79.436777777777806
21
5.8530000000000015
31
0
0
LINE
5
177
100
AcDbEntity
8
0
100
AcDbLine
10
79.436777777777806
20
5.8530000000000015
30
0
11
80.827777777777769
21
5.8530000000000015
31
0
0
LINE
5
178
100
AcDbEntity
8
0
100
AcDbLine
10
80.827777777777769
20
5.8530000000000015
30
0
11
80.827777777777797
21
3.8530000000000086
31
0
0
LINE
5
179
100
AcDbEntity
8
0
100
AcDbLine
10
80.827777777777797
20
3.8530000000000086
30
0
11
79.436777777777777
21
3.8530000000000086
31
0
0
LINE
5
180
100
AcDbEntity
8
0
100
AcDbLine
10
79.436777777777777
20
3.8530000000000086
30
0
11
79.436777777777777
21
0
31
0
0
LINE
5
181
100
AcDbEntity
8
0
100
AcDbLine
10
79.436777777777777
20
0
30
0
11
83.02777777777797
21
0
31
0
0
LINE
5
182
100
AcDbEntity
8
0
100
AcDbLine
10
83.02777777777797
20
0
30
0
11
83.027777777777928
21
-4.0000000000000018
31
0
0
LINE
5
183
100
AcDbEntity
8
0
100
AcDbLine
10
83.027777777777928
20
-4.0000000000000018
30
0
11
92.527777777777928
21
-4.0000000000028795
31
0
0
LINE
5
184
100
AcDbEntity
8
0
100
AcDbLine
10
92.527777777777928
20
-4.0000000000028795
30
0
11
92.527777777778212
21
0
31
0
0
LINE
5
185
100
AcDbEntity
8
0
100
AcDbLine
10
92.527777777778212
20
0
30
0
11
107.47222222222189
21
0
31
0
0
LINE
5
186
100
AcDbEntity
8
0
100
AcDbLine
10
107.47222222222189
20
0
30
0
11
107.47222222222217
21
-4.0000000000533653
31
0
0
LINE
5
187
100
AcDbEntity
8
0
100
AcDbLine
10
107.47222222222217
20
-4.0000000000533653
30
0
11
116.97222222222211
21
-3.9999999999999858
31
0
0
LINE
5
188
100
AcDbEntity
8
0
100
AcDbLine
10
116.97222222222211
20
-3.9999999999999858
30
0
11
116.97222222222211
21
0
31
0
0
LINE
5
189
100
AcDbEntity
8
0
100
AcDbLine
10
116.97222222222211
20
0
30
0
11
120.56322222222224
21
0
31
0
0
LINE
5
190
100
AcDbEntity
8
0
100
AcDbLine
10
120.56322222222224
20
0
30
0
11
120.56322222222224
21
3.8530000000000086
31
0
0
LINE
5
191
100
AcDbEntity
8
0
100
AcDbLine
10
120.56322222222224
20
3.8530000000000086
30
0
11
119.17222222222225
21
3.8530000000000086
31
0
0
LINE
5
192
100
AcDbEntity
8
0
100
AcDbLine
10
119.17222222222225
20
3.8530000000000086
30
0
11
119.17222222222225
21
5.8530000000000015
31
0
0
LINE
5
193
100
AcDbEntity
8
0
100
AcDbLine
10
119.17222222222225
20
5.8530000000000015
30
0
11
120.56322222222224
21
5.8530000000000015
31
0
0
LINE
5
194
100
AcDbEntity
8
0
100
AcDbLine
10
120.56322222222224
20
5.8530000000000015
30
0
11
120.56322222222224
21
6.8530000000000157
31
0
0
LINE
5
195
100
AcDbEntity
8
0
100
AcDbLine
10
120.56322222222224
20
6.8530000000000157
30
0
11
123.88122222222222
21
6.852999999999998
31
0
0
LINE
5
196
100
AcDbEntity
8
0
100
AcDbLine
10
123.88122222222222
20
6.852999999999998
30
0
11
123.88122222222225
21
5.8530000000000015
31
0
0
LINE
5
197
100
AcDbEntity
8
0
100
AcDbLine
10
123.88122222222225
20
5.8530000000000015
30
0
11
125.27222222222221
21
5.8530000000000015
31
0
0
LINE
5
198
100
AcDbEntity
8
0
100
AcDbLine
10
125.27222222222221
20
5.8530000000000015
30
0
11
125.27222222222224
21
3.8530000000000086
31
0
0
LINE
5
199
100
AcDbEntity
8
0
100
AcDbLine
10
125.27222222222224
20
3.8530000000000086
30
0
11
123.88122222222222
21
3.8530000000000086
31
0
0
LINE
5
200
100
AcDbEntity
8
0
100
AcDbLine
10
123.88122222222222
20
3.8530000000000086
30
0
11
123.88122222222222
21
0
31
0
0
LINE
5
201
100
AcDbEntity
8
0
100
AcDbLine
10
123.88122222222222
20
0
30
0
11
127.47222222222241
21
0
31
0
0
LINE
5
202
100
AcDbEntity
8
0
100
AcDbLine
10
127.47222222222241
20
0
30
0
11
127.47222222222237
21
-4.0000000000000018
31
0
0
LINE
5
203
100
AcDbEntity
8
0
100
AcDbLine
10
127.47222222222237
20
-4.0000000000000018
30
0
11
136.97222222222237
21
-4.0000000000028795
31
0
0
LINE
5
204
100
AcDbEntity
8
0
100
AcDbLine
10
136.97222222222237
20
-4.0000000000028795
30
0
11
136.97222222222265
21
0
31
0
0
LINE
5
205
100
AcDbEntity
8
0
100
AcDbLine
10
136.97222222222265
20
0
30
0
11
151.91666666666632
21
0
31
0
0
LINE
5
206
100
AcDbEntity
8
0
100
AcDbLine
10
136.97222222222265
20
100
30
0
11
136.97222222222237
21
104.00000000000288
31
0
0
LINE
5
207
100
AcDbEntity
8
0
100
AcDbLine
10
136.97222222222237
20
104.00000000000288
30
0
11
127.47222222222237
21
104
31
0
0
LINE
5
208
100
AcDbEntity
8
0
100
AcDbLine
10
127.47222222222237
20
104
30
0
11
127.47222222222241
21
100
31
0
0
LINE
5
209
100
AcDbEntity
8
0
100
AcDbLine
10
127.47222222222241
20
100
30
0
11
123.88122222222225
21
100
31
0
0
LINE
5
210
100
AcDbEntity
8
0
100
AcDbLine
10
123.88122222222225
20
100
30
0
11
123.88122222222222
21
96.146999999999991
31
0
0
LINE
5
211
100
AcDbEntity
8
0
100
AcDbLine
10
123.88122222222222
20
96.146999999999991
30
0
11
125.27222222222224
21
96.146999999999991
31
0
0
LINE
5
212
100
AcDbEntity
8
0
100
AcDbLine
10
125.27222222222224
20
96.146999999999991
30
0
11
125.27222222222221
21
94.146999999999991
31
0
0
LINE
5
213
100
AcDbEntity
8
0
100
AcDbLine
10
125.27222222222221
20
94.146999999999991
30
0
11
123.88122222222225
21
94.146999999999991
31
0
0
LINE
5
214
100
AcDbEntity
8
0
100
AcDbLine
10
123.88122222222225
20
94.146999999999991
30
0
11
123.88122222222222
21
93.147000000000006
31
0
0
LINE
5
215
100
AcDbEntity
8
0
100
AcDbLine
10
123.88122222222222
20
93.147000000000006
30
0
11
120.56322222222224
21
93.146999999999991
31
0
0
LINE
5
216
100
AcDbEntity
8
0
100
AcDbLine
10
120.56322222222224
20
93.146999999999991
30
0
11
120.56322222222224
21
94.146999999999991
31
0
0
LINE
5
217
100
AcDbEntity
8
0
100
AcDbLine
10
120.56322222222224
20
94.146999999999991
30
0
11
119.17222222222225
21
94.146999999999991
31
0
0
LINE
5
218
100
AcDbEntity
8
0
100
AcDbLine
10
119.17222222222225
20
94.146999999999991
30
0
11
119.17222222222225
21
96.146999999999991
31
0
0
LINE
5
219
100
AcDbEntity
8
0
100
AcDbLine
10
119.17222222222225
20
96.146999999999991
30
0
11
120.56322222222224
21
96.146999999999991
31
0
0
LINE
5
220
100
AcDbEntity
8
0
100
AcDbLine
10
120.56322222222224
20
96.146999999999991
30
0
11
120.56322222222224
21
100
31
0
0
LINE
5
221
100
AcDbEntity
8
0
100
AcDbLine
10
120.56322222222224
20
100
30
0
11
116.97222222222211
21
100
31
0
0
LINE
5
222
100
AcDbEntity
8
0
100
AcDbLine
10
116.97222222222211
20
100
30
0
11
116.97222222222211
21
103.99999999999999
31
0
0
LINE
5
223
100
AcDbEntity
8
0
100
AcDbLine
10
116.97222222222211
20
103.99999999999999
30
0
11
107.47222222222217
21
104.00000000005336
31
0
0
LINE
5
224
100
AcDbEntity
8
0
100
AcDbLine
10
107.47222222222217
20
104.00000000005336
30
0
11
107.47222222222189
21
100
31
0
0
LINE
5
225
100
AcDbEntity
8
0
100
AcDbLine
10
107.47222222222189
20
100
30
0
11
92.527777777778212
21
100
31
0
0
LINE
5
226
100
AcDbEntity
8
0
100
AcDbLine
10
92.527777777778212
20
100
30
0
11
92.527777777777928
21
104.00000000000288
31
0
0
LINE
5
227
100
AcDbEntity
8
0
100
AcDbLine
10
92.527777777777928
20
104.00000000000288
30
0
11
83.027777777777928
21
104
31
0
0
LINE
5
228
100
AcDbEntity
8
0
100
AcDbLine
10
83.027777777777928
20
104
30
0
11
83.02777777777797
21
100
31
0
0
LINE
5
229
100
AcDbEntity
8
0
100
AcDbLine
10
83.02777777777797
20
100
30
0
11
79.436777777777806
21
100
31
0
0
LINE
5
230
100
AcDbEntity
8
0
100
AcDbLine
10
72.527777777777672
20
0
30
0
11
76.118777777777794
21
0
31
0
0
LINE
5
231
100
AcDbEntity
8
0
100
AcDbLine
10
76.118777777777794
20
100
30
0
11
72.527777777777672
21
100
31
0
0
LINE
5
232
100
AcDbEntity
8
0
100
AcDbLine
10
34.992333333333363
20
100
30
0
11
34.992333333333328
21
96.146999999999991
31
0
0
LINE
5
233
100
AcDbEntity
8
0
100
AcDbLine
10
34.992333333333328
20
96.146999999999991
30
0
11
36.383333333333354
21
96.146999999999991
31
0
0
LINE
5
234
100
AcDbEntity
8
0
100
AcDbLine
10
36.383333333333354
20
96.146999999999991
30
0
11
36.383333333333319
21
94.146999999999991
31
0
0
LINE
5
235
100
AcDbEntity
8
0
100
AcDbLine
10
36.383333333333319
20
94.146999999999991
30
0
11
34.992333333333363
21
94.146999999999991
31
0
0
LINE
5
236
100
AcDbEntity
8
0
100
AcDbLine
10
34.992333333333363
20
94.146999999999991
30
0
11
34.992333333333328
21
93.147000000000006
31
0
0
LINE
5
237
100
AcDbEntity
8
0
100
AcDbLine
10
34.992333333333328
20
93.147000000000006
30
0
11
31.674333333333351
21
93.146999999999991
31
0
0
LINE
5
238
100
AcDbEntity
8
0
100
AcDbLine
10
31.674333333333351
20
93.146999999999991
30
0
11
31.674333333333351
21
94.146999999999991
31
0
0
LINE
5
239
100
AcDbEntity
8
0
100
AcDbLine
10
31.674333333333351
20
94.146999999999991
30
0
11
30.28333333333336
21
94.146999999999991
31
0
0
LINE
5
240
100
AcDbEntity
8
0
100
AcDbLine
10
30.28333333333336
20
94.146999999999991
30
0
11
30.28333333333336
21
96.146999999999991
31
0
0
LINE
5
241
100
AcDbEntity
8
0
100
AcDbLine
10
30.28333333333336
20
96.146999999999991
30
0
11
31.674333333333351
21
96.146999999999991
31
0
0
LINE
5
242
100
AcDbEntity
8
0
100
AcDbLine
10
31.674333333333351
20
96.146999999999991
30
0
11
31.674333333333351
21
100
31
0
0
LINE
5
243
100
AcDbEntity
8
0
100
AcDbLine
10
28.083333333333229
20
100
30
0
11
28.083333333333229
21
103.99999999999999
31
0
0
LINE
5
244
100
AcDbEntity
8
0
100
AcDbLine
10
28.083333333333229
20
103.99999999999999
30
0
11
18.583333333333272
21
104.00000000005336
31
0
0
LINE
5
245
100
AcDbEntity
8
0
100
AcDbLine
10
18.583333333333272
20
104.00000000005336
30
0
11
18.583333333332988
21
100
31
0
0
LINE
5
246
100
AcDbEntity
8
0
100
AcDbLine
10
18.583333333332988
20
100
30
0
11
0
21
100
31
0
0
LINE
5
247
100
AcDbEntity
8
0
100
AcDbLine
10
18.583333333332988
20
0
30
0
11
18.583333333333272
21
-4.0000000000533653
31
0
0
LINE
5
248
100
AcDbEntity
8
0
100
AcDbLine
10
18.583333333333272
20
-4.0000000000533653
30
0
11
28.083333333333229
21
-3.9999999999999858
31
0
0
LINE
5
249
100
AcDbEntity
8
0
100
AcDbLine
10
28.083333333333229
20
-3.9999999999999858
30
0
11
28.083333333333229
21
0
31
0
0
LINE
5
250
100
AcDbEntity
8
0
100
AcDbLine
10
31.674333333333351
20
0
30
0
11
31.674333333333351
21
3.8530000000000086
31
0
0
LINE
5
251
100
AcDbEntity
8
0
100
AcDbLine
10
31.674333333333351
20
3.8530000000000086
30
0
11
30.28333333333336
21
3.8530000000000086
31
0
0
LINE
5
252
100
AcDbEntity
8
0
100
AcDbLine
10
30.28333333333336
20
3.8530000000000086
30
0
11
30.28333333333336
21
5.8530000000000015
31
0
0
LINE
5
253
100
AcDbEntity
8
0
100
AcDbLine
10
30.28333333333336
20
5.8530000000000015
30
0
11
31.674333333333351
21
5.8530000000000015
31
0
0
LINE
5
254
100
AcDbEntity
8
0
100
AcDbLine
10
31.674333333333351
20
5.8530000000000015
30
0
11
31.674333333333351
21
6.8530000000000157
31
0
0
LINE
5
255
100
AcDbEntity
8
0
100
AcDbLine
10
31.674333333333351
20
6.8530000000000157
30
0
11
34.992333333333328
21
6.852999999999998
31
0
0
LINE
5
256
100
AcDbEntity
8
0
100
AcDbLine
10
34.992333333333328
20
6.852999999999998
30
0
11
34.992333333333363
21
5.8530000000000015
31
0
0
LINE
5
257
100
AcDbEntity
8
0
100
AcDbLine
10
34.992333333333363
20
5.8530000000000015
30
0
11
36.383333333333319
21
5.8530000000000015
31
0
0
LINE
5
258
100
AcDbEntity
8
0
100
AcDbLine
10
36.383333333333319
20
5.8530000000000015
30
0
11
36.383333333333354
21
3.8530000000000086
31
0
0
LINE
5
259
100
AcDbEntity
8
0
100
AcDbLine
10
36.383333333333354
20
3.8530000000000086
30
0
11
34.992333333333328
21
3.8530000000000086
31
0
0
LINE
5
260
100
AcDbEntity
8
0
100
AcDbLine
10
34.992333333333328
20
3.8530000000000086
30
0
11
34.992333333333328
21
0
31
0
0
LINE
5
261
100
AcDbEntity
8
0
100
AcDbLine
10
34.992333333333328
20
0
30
0
11
38.58333333333352
21
0
31
0
0
LINE
5
262
100
AcDbEntity
8
0
100
AcDbLine
10
38.58333333333352
20
0
30
0
11
38.583333333333485
21
-4.0000000000000018
31
0
0
LINE
5
263
100
AcDbEntity
8
0
100
AcDbLine
10
38.583333333333485
20
-4.0000000000000018
30
0
11
48.083333333333478
21
-4.0000000000028795
31
0
0
LINE
5
264
100
AcDbEntity
8
0
100
AcDbLine
10
48.083333333333478
20
-4.0000000000028795
30
0
11
48.083333333333762
21
0
31
0
0
LINE
5
265
100
AcDbEntity
8
0
100
AcDbLine
10
48.083333333333762
20
0
30
0
11
63.02777777777743
21
0
31
0
0
LINE
5
266
100
AcDbEntity
8
0
100
AcDbLine
10
48.083333333333762
20
100
30
0
11
48.083333333333478
21
104.00000000000288
31
0
0
LINE
5
267
100
AcDbEntity
8
0
100
AcDbLine
10
48.083333333333478
20
104.00000000000288
30
0
11
38.583333333333485
21
104
31
0
0
LINE
5
268
100
AcDbEntity
8
0
100
AcDbLine
10
38.583333333333485
20
104
30
0
11
38.58333333333352
21
100
31
0
0
LINE
5
269
100
AcDbEntity
8
0
100
AcDbLine
10
38.58333333333352
20
100
30
0
11
34.992333333333363
21
100
31
0
0
LINE
5
270
100
AcDbEntity
8
0
100
AcDbLine
10
161.41666666666654
20
0
30
0
11
165.00766666666667
21
0
31
0
0
LINE
5
271
100
AcDbEntity
8
0
100
AcDbLine
10
200
20
100
30
0
11
181.41666666666708
21
100
31
0
0
ENDSEC
0
SECTION
2
OBJECTS
0
DICTIONARY
5
C
100
AcDbDictionary
3
ACAD_GROUP
350
D
3
ACAD_MLINESTYLE
350
17
0
DICTIONARY
5
D
100
AcDbDictionary
0
DICTIONARY
5
1A
330
C
100
AcDbDictionary
0
DICTIONARY
5
17
100
AcDbDictionary
0
ENDSEC
0
EOF
