0
SECTION
2
HEADER
9
$INSUNITS
70
4
9
$ACADVER
1
AC1014
9
$HANDSEED
5
FFFF
0
ENDSEC
0
SECTION
2
TABLES
0
TABLE
2
VPORT
5
8
100
AcDbSymbolTable
0
ENDTAB
0
TABLE
2
LTYPE
5
5
100
AcDbSymbolTable
0
LTYPE
5
14
100
AcDbSymbolTableRecord
100
AcDbLinetypeTableRecord
2
BYBLOCK
70
0
0
LTYPE
5
15
100
AcDbSymbolTableRecord
100
AcDbLinetypeTableRecord
2
BYLAYER
70
0
0
LTYPE
5
16
100
AcDbSymbolTableRecord
100
AcDbLinetypeTableRecord
2
DASHED
70
0
3
Dashed __ __ __ __ __ __ __ __ __ __ __ __ __ _
72
65
73
2
40
0.75
49
0.5
74
0
49
-0.25
74
0
0
ENDTAB
0
TABLE
2
LAYER
5
2
100
AcDbSymbolTable
70
2
0
LAYER
5
50
100
AcDbSymbolTableRecord
100
AcDbLayerTableRecord
2
0
70
0
62
7
6
CONTINUOUS
0
ENDTAB
0
TABLE
2
STYLE
5
3
100
AcDbSymbolTable
70
1
0
STYLE
5
11
100
AcDbSymbolTableRecord
100
AcDbTextStyleTableRecord
2
STANDARD
70
0
0
ENDTAB
0
TABLE
2
VIEW
5
6
100
AcDbSymbolTable
70
0
0
ENDTAB
0
TABLE
2
UCS
5
7
100
AcDbSymbolTable
70
0
0
ENDTAB
0
TABLE
2
APPID
5
9
100
AcDbSymbolTable
70
2
0
APPID
5
12
100
AcDbSymbolTableRecord
100
AcDbRegAppTableRecord
2
ACAD
70
0
0
ENDTAB
0
TABLE
2
DIMSTYLE
5
A
100
AcDbSymbolTable
70
1
0
ENDTAB
0
TABLE
2
BLOCK_RECORD
5
1
100
AcDbSymbolTable
70
1
0
BLOCK_RECORD
5
1F
100
AcDbSymbolTableRecord
100
AcDbBlockTableRecord
2
*MODEL_SPACE
0
BLOCK_RECORD
5
1B
100
AcDbSymbolTableRecord
100
AcDbBlockTableRecord
2
*PAPER_SPACE
0
ENDTAB
0
ENDSEC
0
SECTION
2
BLOCKS
0
BLOCK
5
20
100
AcDbEntity
100
AcDbBlockBegin
2
*MODEL_SPACE
0
ENDBLK
5
21
100
AcDbEntity
100
AcDbBlockEnd
0
BLOCK
5
1C
100
AcDbEntity
100
AcDbBlockBegin
2
*PAPER_SPACE
0
ENDBLK
5
1D
100
AcDbEntity
100
AcDbBlockEnd
0
ENDSEC
0
SECTION
2
ENTITIES
0
LWPOLYLINE
5
100
100
AcDbEntity
8
0
100
AcDbPolyline
90
8
70
1
43
0.0
10
-124.49999999989768
20
6.9999999999987299
42
0.41421356237309503
10
-126.99999999989768
20
4.4999999999987264
10
-127
20
-204.50000000013532
42
0.41421356237309503
10
-124.50000000003298
20
-207.00000000010235
10
284.50000000000057
20
-207.00000000000003
42
0.41421356237309503
10
287
20
-204.5000000000006
10
287.00000000000006
20
4.4999999999933848
42
0.41421356237309342
10
284.5
20
6.9999999999933715
0
LWPOLYLINE
5
101
100
AcDbEntity
8
0
100
AcDbPolyline
90
4
70
1
43
0.0
10
-120
20
-151.66666666666663
10
-120
20
-161.66666666666663
10
-124.2
20
-161.66666666666663
10
-124.2
20
-151.66666666666663
0
LWPOLYLINE
5
102
100
AcDbEntity
8
0
100
AcDbPolyline
90
4
70
1
43
0.0
10
284.20000000000005
20
-161.66666666666669
10
280
20
-161.66666666666669
10
280
20
-151.66666666666671
10
284.20000000000005
20
-151.66666666666671
0
CIRCLE
5
103
100
AcDbEntity
8
0
100
AcDbCircle
10
-122.80500000000001
20
-166.66666666666663
30
0
40
1.25
210
0
220
0
230
1
0
LWPOLYLINE
5
104
100
AcDbEntity
8
0
100
AcDbPolyline
90
4
70
1
43
0.0
10
280
20
-181.66666666666669
10
280
20
-171.66666666666669
10
284.20000000000005
20
-171.66666666666669
10
284.20000000000005
20
-181.66666666666669
0
CIRCLE
5
105
100
AcDbEntity
8
0
100
AcDbCircle
10
282.80500000000006
20
-166.66666666666669
30
0
40
1.25
210
0
220
0
230
1
0
LWPOLYLINE
5
106
100
AcDbEntity
8
0
100
AcDbPolyline
90
4
70
1
43
0.0
10
-124.2
20
-171.66666666666663
10
-120
20
-171.66666666666663
10
-120
20
-181.66666666666663
10
-124.2
20
-181.66666666666663
0
LWPOLYLINE
5
107
100
AcDbEntity
8
0
100
AcDbPolyline
90
4
70
1
43
0.0
10
214.99999999999702
20
4.1999999999981741
10
214.99999999999716
20
0
10
204.99999999999716
20
0
10
204.99999999999702
20
4.1999999999978908
0
LWPOLYLINE
5
108
100
AcDbEntity
8
0
100
AcDbPolyline
90
4
70
1
43
0.0
10
205
20
-200
10
215
20
-200
10
214.99999999999997
20
-204.20000000000002
10
205
20
-204.20000000000002
0
CIRCLE
5
109
100
AcDbEntity
8
0
100
AcDbCircle
10
199.9999999999971
20
2.8049999999977313
30
0
40
1.25
210
0
220
0
230
1
0
LWPOLYLINE
5
110
100
AcDbEntity
8
0
100
AcDbPolyline
90
4
70
1
43
0.0
10
185
20
-200
10
195
20
-200
10
195
20
-204.20000000000002
10
185.00000000000003
20
-204.20000000000002
0
CIRCLE
5
111
100
AcDbEntity
8
0
100
AcDbCircle
10
200
20
-202.80500000000001
30
0
40
1.25
210
0
220
0
230
1
0
LWPOLYLINE
5
112
100
AcDbEntity
8
0
100
AcDbPolyline
90
4
70
1
43
0.0
10
185.00000000000298
20
4.1999999999936355
10
195.00000000000298
20
4.1999999999978908
10
195.00000000000284
20
-2.1266322036694874e-12
10
185.00000000000284
20
-1.8428124976731314e-12
0
LWPOLYLINE
5
113
100
AcDbEntity
8
0
100
AcDbPolyline
90
4
70
1
43
0.0
10
94.999999999997016
20
4.1999999999981741
10
94.999999999997158
20
0
10
84.999999999997158
20
0
10
84.999999999997016
20
4.1999999999978908
0
LWPOLYLINE
5
114
100
AcDbEntity
8
0
100
AcDbPolyline
90
4
70
1
43
0.0
10
85
20
-200
10
95
20
-200
10
94.999999999999972
20
-204.20000000000002
10
85
20
-204.20000000000002
0
CIRCLE
5
115
100
AcDbEntity
8
0
100
AcDbCircle
10
79.999999999997087
20
2.8049999999977313
30
0
40
1.2499999999999956
210
0
220
0
230
1
0
LWPOLYLINE
5
116
100
AcDbEntity
8
0
100
AcDbPolyline
90
4
70
1
43
0.0
10
65
20
-200
10
75
20
-200
10
75
20
-204.20000000000002
10
65.000000000000028
20
-204.20000000000002
0
CIRCLE
5
117
100
AcDbEntity
8
0
100
AcDbCircle
10
80
20
-202.80500000000001
30
0
40
1.2499999999999956
210
0
220
0
230
1
0
LWPOLYLINE
5
118
100
AcDbEntity
8
0
100
AcDbPolyline
90
4
70
1
43
0.0
10
65.000000000002984
20
4.1999999999936355
10
75.000000000002984
20
4.1999999999978908
10
75.000000000002842
20
-2.1266322036694874e-12
10
65.000000000002842
20
-1.8428124976731314e-12
0
LWPOLYLINE
5
119
100
AcDbEntity
8
0
100
AcDbPolyline
90
4
70
1
43
0.0
10
-25.000000000002984
20
4.1999999999981741
10
-25.000000000002842
20
0
10
-35.000000000002842
20
0
10
-35.000000000002984
20
4.1999999999978908
0
LWPOLYLINE
5
120
100
AcDbEntity
8
0
100
AcDbPolyline
90
4
70
1
43
0.0
10
-35
20
-200
10
-25
20
-200
10
-25.000000000000036
20
-204.20000000000002
10
-35
20
-204.20000000000002
0
CIRCLE
5
121
100
AcDbEntity
8
0
100
AcDbCircle
10
-40.000000000002913
20
2.8049999999977313
30
0
40
1.25
210
0
220
0
230
1
0
LWPOLYLINE
5
122
100
AcDbEntity
8
0
100
AcDbPolyline
90
4
70
1
43
0.0
10
-55
20
-200
10
-45
20
-200
10
-45
20
-204.20000000000002
10
-54.999999999999964
20
-204.20000000000002
0
CIRCLE
5
123
100
AcDbEntity
8
0
100
AcDbCircle
10
-40
20
-202.80500000000001
30
0
40
1.25
210
0
220
0
230
1
0
LWPOLYLINE
5
124
100
AcDbEntity
8
0
100
AcDbPolyline
90
4
70
1
43
0.0
10
-54.999999999997016
20
4.1999999999936355
10
-44.999999999997016
20
4.1999999999978908
10
-44.999999999997158
20
-2.1266322036694874e-12
10
-54.999999999997158
20
-1.8428124976731314e-12
0
LWPOLYLINE
5
125
100
AcDbEntity
8
0
100
AcDbPolyline
90
4
70
1
43
0.0
10
-119.99999999999999
20
-18.333333333333321
10
-119.99999999999999
20
-28.333333333333321
10
-124.19999999999999
20
-28.333333333333321
10
-124.19999999999999
20
-18.333333333333321
0
LWPOLYLINE
5
126
100
AcDbEntity
8
0
100
AcDbPolyline
90
4
70
1
43
0.0
10
284.20000000000005
20
-28.333333333333357
10
280
20
-28.333333333333357
10
280
20
-18.333333333333393
10
284.20000000000005
20
-18.333333333333393
0
CIRCLE
5
127
100
AcDbEntity
8
0
100
AcDbCircle
10
-122.80499999999998
20
-33.333333333333321
30
0
40
1.25
210
0
220
0
230
1
0
LWPOLYLINE
5
128
100
AcDbEntity
8
0
100
AcDbPolyline
90
4
70
1
43
0.0
10
280
20
-48.333333333333357
10
280
20
-38.333333333333357
10
284.20000000000005
20
-38.333333333333357
10
284.20000000000005
20
-48.333333333333357
0
CIRCLE
5
129
100
AcDbEntity
8
0
100
AcDbCircle
10
282.80500000000006
20
-33.333333333333357
30
0
40
1.25
210
0
220
0
230
1
0
LWPOLYLINE
5
130
100
AcDbEntity
8
0
100
AcDbPolyline
90
4
70
1
43
0.0
10
-124.19999999999999
20
-38.333333333333321
10
-119.99999999999999
20
-38.333333333333321
10
-119.99999999999999
20
-48.333333333333321
10
-124.19999999999999
20
-48.333333333333321
0
LWPOLYLINE
5
131
100
AcDbEntity
8
0
100
AcDbPolyline
90
4
70
1
43
0.0
10
-120
20
-62.777777777777771
10
-120
20
-72.777777777777771
10
-124.2
20
-72.777777777777771
10
-124.2
20
-62.777777777777771
0
LWPOLYLINE
5
132
100
AcDbEntity
8
0
100
AcDbPolyline
90
4
70
1
43
0.0
10
284.20000000000005
20
-72.7777777777778
10
280
20
-72.7777777777778
10
280
20
-62.777777777777843
10
284.20000000000005
20
-62.777777777777843
0
CIRCLE
5
133
100
AcDbEntity
8
0
100
AcDbCircle
10
-122.80500000000001
20
-77.777777777777771
30
0
40
1.25
210
0
220
0
230
1
0
LWPOLYLINE
5
134
100
AcDbEntity
8
0
100
AcDbPolyline
90
4
70
1
43
0.0
10
280
20
-92.7777777777778
10
280
20
-82.7777777777778
10
284.20000000000005
20
-82.7777777777778
10
284.20000000000005
20
-92.7777777777778
0
CIRCLE
5
135
100
AcDbEntity
8
0
100
AcDbCircle
10
282.80500000000006
20
-77.7777777777778
30
0
40
1.25
210
0
220
0
230
1
0
LWPOLYLINE
5
136
100
AcDbEntity
8
0
100
AcDbPolyline
90
4
70
1
43
0.0
10
-124.2
20
-82.777777777777771
10
-120
20
-82.777777777777771
10
-120
20
-92.777777777777771
10
-124.2
20
-92.777777777777771
0
LWPOLYLINE
5
137
100
AcDbEntity
8
0
100
AcDbPolyline
90
4
70
1
43
0.0
10
-120
20
-107.22222222222221
10
-120
20
-117.22222222222221
10
-124.2
20
-117.22222222222221
10
-124.2
20
-107.22222222222221
0
LWPOLYLINE
5
138
100
AcDbEntity
8
0
100
AcDbPolyline
90
4
70
1
43
0.0
10
284.20000000000005
20
-117.22222222222226
10
280
20
-117.22222222222226
10
280
20
-107.22222222222229
10
284.20000000000005
20
-107.22222222222229
0
CIRCLE
5
139
100
AcDbEntity
8
0
100
AcDbCircle
10
-122.80500000000001
20
-122.22222222222221
30
0
40
1.25
210
0
220
0
230
1
0
LWPOLYLINE
5
140
100
AcDbEntity
8
0
100
AcDbPolyline
90
4
70
1
43
0.0
10
280
20
-137.22222222222226
10
280
20
-127.22222222222226
10
284.20000000000005
20
-127.22222222222226
10
284.20000000000005
20
-137.22222222222226
0
CIRCLE
5
141
100
AcDbEntity
8
0
100
AcDbCircle
10
282.80500000000006
20
-122.22222222222226
30
0
40
1.25
210
0
220
0
230
1
0
LWPOLYLINE
5
142
100
AcDbEntity
8
0
100
AcDbPolyline
90
4
70
1
43
0.0
10
-124.2
20
-127.22222222222221
10
-120
20
-127.22222222222221
10
-120
20
-137.22222222222223
10
-124.2
20
-137.22222222222223
0
ENDSEC
0
SECTION
2
OBJECTS
0
DICTIONARY
5
C
100
AcDbDictionary
3
ACAD_GROUP
350
D
3
ACAD_MLINESTYLE
350
17
0
DICTIONARY
5
D
100
AcDbDictionary
0
DICTIONARY
5
1A
330
C
100
AcDbDictionary
0
DICTIONARY
5
17
100
AcDbDictionary
0
ENDSEC
0
EOF
