<?xml version="1.0" encoding="utf-8" ?>
<svg baseProfile="tiny" height="100%" version="1.2" width="100%" xmlns="http://www.w3.org/2000/svg" xmlns:ev="http://www.w3.org/2001/xml-events" xmlns:xlink="http://www.w3.org/1999/xlink"><defs /><polyline fill="none" points="-124.5,-7.0 -127.0,-4.5 -127.0,204.5 -124.5,207.0 284.5,207.0 287.0,204.5 287.0,-4.5 284.5,-7.0" stroke="rgb(255, 0, 0)" stroke-width="1" /><polyline fill="none" points="-120.0,151.6667 -120.0,161.6667 -124.2,161.6667 -124.2,151.6667" stroke="rgb(255, 0, 0)" stroke-width="1" /><polyline fill="none" points="284.2,161.6667 280.0,161.6667 280.0,151.6667 284.2,151.6667" stroke="rgb(255, 0, 0)" stroke-width="1" /><circle cx="-122.805" cy="166.6667" fill="none" r="1.25" stroke="rgb(51, 103, 152)" stroke-width="1" /><polyline fill="none" points="280.0,181.6667 280.0,171.6667 284.2,171.6667 284.2,181.6667" stroke="rgb(255, 0, 0)" stroke-width="1" /><circle cx="282.805" cy="166.6667" fill="none" r="1.25" stroke="rgb(51, 103, 152)" stroke-width="1" /><polyline fill="none" points="-124.2,171.6667 -120.0,171.6667 -120.0,181.6667 -124.2,181.6667" stroke="rgb(255, 0, 0)" stroke-width="1" /><polyline fill="none" points="215.0,-4.2 215.0,-0.0 205.0,-0.0 205.0,-4.2" stroke="rgb(255, 0, 0)" stroke-width="1" /><polyline fill="none" points="205.0,200.0 215.0,200.0 215.0,204.2 205.0,204.2" stroke="rgb(255, 0, 0)" stroke-width="1" /><circle cx="200.0" cy="-2.805" fill="none" r="1.25" stroke="rgb(51, 103, 152)" stroke-width="1" /><polyline fill="none" points="185.0,200.0 195.0,200.0 195.0,204.2 185.0,204.2" stroke="rgb(255, 0, 0)" stroke-width="1" /><circle cx="200.0" cy="202.805" fill="none" r="1.25" stroke="rgb(51, 103, 152)" stroke-width="1" /><polyline fill="none" points="185.0,-4.2 195.0,-4.2 195.0,0.0 185.0,0.0" stroke="rgb(255, 0, 0)" stroke-width="1" /><polyline fill="none" points="-120.0,62.7778 -120.0,72.7778 -124.2,72.7778 -124.2,62.7778" stroke="rgb(255, 0, 0)" stroke-width="1" /><polyline fill="none" points="284.2,72.7778 280.0,72.7778 280.0,62.7778 284.2,62.7778" stroke="rgb(255, 0, 0)" stroke-width="1" /><circle cx="-122.805" cy="77.7778" fill="none" r="1.25" stroke="rgb(51, 103, 152)" stroke-width="1" /><polyline fill="none" points="280.0,92.7778 280.0,82.7778 284.2,82.7778 284.2,92.7778" stroke="rgb(255, 0, 0)" stroke-width="1" /><circle cx="282.805" cy="77.7778" fill="none" r="1.25" stroke="rgb(51, 103, 152)" stroke-width="1" /><polyline fill="none" points="-124.2,82.7778 -120.0,82.7778 -120.0,92.7778 -124.2,92.7778" stroke="rgb(255, 0, 0)" stroke-width="1" /><polyline fill="none" points="-120.0,107.2222 -120.0,117.2222 -124.2,117.2222 -124.2,107.2222" stroke="rgb(255, 0, 0)" stroke-width="1" /><polyline fill="none" points="284.2,117.2222 280.0,117.2222 280.0,107.2222 284.2,107.2222" stroke="rgb(255, 0, 0)" stroke-width="1" /><circle cx="-122.805" cy="122.2222" fill="none" r="1.25" stroke="rgb(51, 103, 152)" stroke-width="1" /><polyline fill="none" points="280.0,137.2222 280.0,127.2222 284.2,127.2222 284.2,137.2222" stroke="rgb(255, 0, 0)" stroke-width="1" /><circle cx="282.805" cy="122.2222" fill="none" r="1.25" stroke="rgb(51, 103, 152)" stroke-width="1" /><polyline fill="none" points="-124.2,127.2222 -120.0,127.2222 -120.0,137.2222 -124.2,137.2222" stroke="rgb(255, 0, 0)" stroke-width="1" /><polyline fill="none" points="95.0,-4.2 95.0,-0.0 85.0,-0.0 85.0,-4.2" stroke="rgb(255, 0, 0)" stroke-width="1" /><polyline fill="none" points="85.0,200.0 95.0,200.0 95.0,204.2 85.0,204.2" stroke="rgb(255, 0, 0)" stroke-width="1" /><circle cx="80.0" cy="-2.805" fill="none" r="1.25" stroke="rgb(51, 103, 152)" stroke-width="1" /><polyline fill="none" points="65.0,200.0 75.0,200.0 75.0,204.2 65.0,204.2" stroke="rgb(255, 0, 0)" stroke-width="1" /><circle cx="80.0" cy="202.805" fill="none" r="1.25" stroke="rgb(51, 103, 152)" stroke-width="1" /><polyline fill="none" points="65.0,-4.2 75.0,-4.2 75.0,0.0 65.0,0.0" stroke="rgb(255, 0, 0)" stroke-width="1" /><polyline fill="none" points="-120.0,18.3333 -120.0,28.3333 -124.2,28.3333 -124.2,18.3333" stroke="rgb(255, 0, 0)" stroke-width="1" /><polyline fill="none" points="284.2,28.3333 280.0,28.3333 280.0,18.3333 284.2,18.3333" stroke="rgb(255, 0, 0)" stroke-width="1" /><circle cx="-122.805" cy="33.3333" fill="none" r="1.25" stroke="rgb(51, 103, 152)" stroke-width="1" /><polyline fill="none" points="280.0,48.3333 280.0,38.3333 284.2,38.3333 284.2,48.3333" stroke="rgb(255, 0, 0)" stroke-width="1" /><circle cx="282.805" cy="33.3333" fill="none" r="1.25" stroke="rgb(51, 103, 152)" stroke-width="1" /><polyline fill="none" points="-124.2,38.3333 -120.0,38.3333 -120.0,48.3333 -124.2,48.3333" stroke="rgb(255, 0, 0)" stroke-width="1" /><polyline fill="none" points="-25.0,-4.2 -25.0,-0.0 -35.0,-0.0 -35.0,-4.2" stroke="rgb(255, 0, 0)" stroke-width="1" /><polyline fill="none" points="-35.0,200.0 -25.0,200.0 -25.0,204.2 -35.0,204.2" stroke="rgb(255, 0, 0)" stroke-width="1" /><circle cx="-40.0" cy="-2.805" fill="none" r="1.25" stroke="rgb(51, 103, 152)" stroke-width="1" /><polyline fill="none" points="-55.0,200.0 -45.0,200.0 -45.0,204.2 -55.0,204.2" stroke="rgb(255, 0, 0)" stroke-width="1" /><circle cx="-40.0" cy="202.805" fill="none" r="1.25" stroke="rgb(51, 103, 152)" stroke-width="1" /><polyline fill="none" points="-55.0,-4.2 -45.0,-4.2 -45.0,0.0 -55.0,0.0" stroke="rgb(255, 0, 0)" stroke-width="1" /></svg>